%TF.GenerationSoftware,KiCad,Pcbnew,(6.0.2-0)*%
%TF.CreationDate,2022-05-31T21:56:42-04:00*%
%TF.ProjectId,hitclips_2040_programmer,68697463-6c69-4707-935f-323034305f70,rev?*%
%TF.SameCoordinates,Original*%
%TF.FileFunction,Soldermask,Top*%
%TF.FilePolarity,Negative*%
%FSLAX46Y46*%
G04 Gerber Fmt 4.6, Leading zero omitted, Abs format (unit mm)*
G04 Created by KiCad (PCBNEW (6.0.2-0)) date 2022-05-31 21:56:42*
%MOMM*%
%LPD*%
G01*
G04 APERTURE LIST*
%ADD10C,3.200000*%
%ADD11O,2.000000X0.950000*%
%ADD12R,1.300000X0.900000*%
%ADD13R,1.700000X1.700000*%
%ADD14O,1.700000X1.700000*%
%ADD15C,1.600000*%
%ADD16O,1.600000X1.600000*%
%ADD17C,1.800000*%
%ADD18R,1.800000X1.800000*%
%ADD19R,1.500000X1.550000*%
%ADD20O,1.250000X0.950000*%
%ADD21O,0.890000X1.550000*%
%ADD22R,1.200000X1.550000*%
%ADD23R,0.400000X1.350000*%
G04 APERTURE END LIST*
D10*
%TO.C,H4*%
X143332200Y-64516000D03*
%TD*%
%TO.C,H3*%
X169697400Y-92862400D03*
%TD*%
%TO.C,H2*%
X169697400Y-64516000D03*
%TD*%
%TO.C,H1*%
X143332200Y-92862400D03*
%TD*%
D11*
%TO.C,J3*%
X166699600Y-70002400D03*
X166699600Y-74002400D03*
X166699600Y-72002400D03*
X166699600Y-76002400D03*
X166699600Y-78002400D03*
D12*
X168549600Y-70002400D03*
X168549600Y-72002400D03*
X168549600Y-74002400D03*
X168549600Y-76002400D03*
X168549600Y-78002400D03*
%TD*%
D11*
%TO.C,J1*%
X146292000Y-74002400D03*
X146292000Y-76002400D03*
X146292000Y-72002400D03*
X146292000Y-70002400D03*
D12*
X144442000Y-70002400D03*
X144442000Y-72002400D03*
X144442000Y-74002400D03*
X144442000Y-76002400D03*
%TD*%
D13*
%TO.C,J5*%
X173020000Y-70000000D03*
D14*
X173020000Y-72540000D03*
X173020000Y-75080000D03*
X173020000Y-77620000D03*
X173020000Y-80160000D03*
X173020000Y-82700000D03*
%TD*%
D15*
%TO.C,R1*%
X163525200Y-87884000D03*
D16*
X155905200Y-87884000D03*
%TD*%
D13*
%TO.C,J4*%
X140000000Y-70000000D03*
D14*
X140000000Y-72540000D03*
X140000000Y-75080000D03*
X140000000Y-77620000D03*
X140000000Y-80160000D03*
X140000000Y-82700000D03*
%TD*%
D17*
%TO.C,D1*%
X170987800Y-86817200D03*
D18*
X168447800Y-86817200D03*
%TD*%
D19*
%TO.C,J2*%
X155210000Y-94822800D03*
D20*
X158710000Y-92122800D03*
D21*
X159710000Y-94822800D03*
D22*
X159110000Y-94822800D03*
D20*
X153710000Y-92122800D03*
D21*
X152710000Y-94822800D03*
D19*
X157210000Y-94822800D03*
D22*
X153310000Y-94822800D03*
D23*
X157510000Y-92122800D03*
X156860000Y-92122800D03*
X156210000Y-92122800D03*
X155560000Y-92122800D03*
X154910000Y-92122800D03*
%TD*%
M02*
