M48
; DRILL file {KiCad (6.0.2-0)} date Tuesday, May 31, 2022 at 09:56:36 PM
; FORMAT={-:-/ absolute / metric / decimal}
; #@! TF.CreationDate,2022-05-31T21:56:36-04:00
; #@! TF.GenerationSoftware,Kicad,Pcbnew,(6.0.2-0)
; #@! TF.FileFunction,Plated,1,2,PTH
FMAT,2
METRIC
; #@! TA.AperFunction,Plated,PTH,ViaDrill
T1C0.400
; #@! TA.AperFunction,Plated,PTH,ComponentDrill
T2C0.500
; #@! TA.AperFunction,Plated,PTH,ComponentDrill
T3C0.550
; #@! TA.AperFunction,Plated,PTH,ComponentDrill
T4C0.600
; #@! TA.AperFunction,Plated,PTH,ComponentDrill
T5C0.650
; #@! TA.AperFunction,Plated,PTH,ComponentDrill
T6C0.800
; #@! TA.AperFunction,Plated,PTH,ComponentDrill
T7C0.900
; #@! TA.AperFunction,Plated,PTH,ComponentDrill
T8C1.000
%
G90
G05
T1
X154.33Y-89.764
T4
X144.742Y-70.002
X144.742Y-72.002
X144.742Y-74.002
X144.742Y-76.002
X168.25Y-70.002
X168.25Y-72.002
X168.25Y-74.002
X168.25Y-76.002
X168.25Y-78.002
T6
X155.905Y-87.884
X163.525Y-87.884
T7
X168.448Y-86.817
X170.988Y-86.817
T8
X140.0Y-70.0
X140.0Y-72.54
X140.0Y-75.08
X140.0Y-77.62
X140.0Y-80.16
X140.0Y-82.7
X173.02Y-70.0
X173.02Y-72.54
X173.02Y-75.08
X173.02Y-77.62
X173.02Y-80.16
X173.02Y-82.7
T2
X152.71Y-94.498G85X152.71Y-95.148
G05
X159.71Y-94.498G85X159.71Y-95.148
G05
T3
X153.56Y-92.123G85X153.86Y-92.123
G05
X158.56Y-92.123G85X158.86Y-92.123
G05
T5
X145.767Y-70.002G85X146.817Y-70.002
G05
X145.767Y-72.002G85X146.817Y-72.002
G05
X145.767Y-74.002G85X146.817Y-74.002
G05
X145.767Y-76.002G85X146.817Y-76.002
G05
X166.175Y-70.002G85X167.225Y-70.002
G05
X166.175Y-72.002G85X167.225Y-72.002
G05
X166.175Y-74.002G85X167.225Y-74.002
G05
X166.175Y-76.002G85X167.225Y-76.002
G05
X166.175Y-78.002G85X167.225Y-78.002
G05
T0
M30
