%TF.GenerationSoftware,KiCad,Pcbnew,(6.0.2-0)*%
%TF.CreationDate,2022-05-31T21:56:41-04:00*%
%TF.ProjectId,hitclips_2040_programmer,68697463-6c69-4707-935f-323034305f70,rev?*%
%TF.SameCoordinates,Original*%
%TF.FileFunction,Copper,L2,Bot*%
%TF.FilePolarity,Positive*%
%FSLAX46Y46*%
G04 Gerber Fmt 4.6, Leading zero omitted, Abs format (unit mm)*
G04 Created by KiCad (PCBNEW (6.0.2-0)) date 2022-05-31 21:56:41*
%MOMM*%
%LPD*%
G01*
G04 APERTURE LIST*
%TA.AperFunction,ComponentPad*%
%ADD10O,2.000000X0.950000*%
%TD*%
%TA.AperFunction,ComponentPad*%
%ADD11R,1.300000X0.900000*%
%TD*%
%TA.AperFunction,ComponentPad*%
%ADD12R,1.700000X1.700000*%
%TD*%
%TA.AperFunction,ComponentPad*%
%ADD13O,1.700000X1.700000*%
%TD*%
%TA.AperFunction,ComponentPad*%
%ADD14C,1.600000*%
%TD*%
%TA.AperFunction,ComponentPad*%
%ADD15O,1.600000X1.600000*%
%TD*%
%TA.AperFunction,ComponentPad*%
%ADD16C,1.800000*%
%TD*%
%TA.AperFunction,ComponentPad*%
%ADD17R,1.800000X1.800000*%
%TD*%
%TA.AperFunction,ComponentPad*%
%ADD18O,1.250000X0.950000*%
%TD*%
%TA.AperFunction,ComponentPad*%
%ADD19O,0.890000X1.550000*%
%TD*%
%TA.AperFunction,ViaPad*%
%ADD20C,0.800000*%
%TD*%
%TA.AperFunction,Conductor*%
%ADD21C,1.000000*%
%TD*%
%TA.AperFunction,Conductor*%
%ADD22C,0.200000*%
%TD*%
G04 APERTURE END LIST*
D10*
%TO.P,J3,*%
%TO.N,*%
X166699600Y-70002400D03*
X166699600Y-74002400D03*
X166699600Y-72002400D03*
X166699600Y-76002400D03*
X166699600Y-78002400D03*
D11*
%TO.P,J3,1,Pin_1*%
%TO.N,BOOTSEL*%
X168549600Y-70002400D03*
%TO.P,J3,2,Pin_2*%
%TO.N,PLY_TGL*%
X168549600Y-72002400D03*
%TO.P,J3,3,Pin_3*%
%TO.N,AUD+*%
X168549600Y-74002400D03*
%TO.P,J3,4,Pin_4*%
%TO.N,AUD-*%
X168549600Y-76002400D03*
%TO.P,J3,5,Pin_5*%
%TO.N,DBG*%
X168549600Y-78002400D03*
%TD*%
D10*
%TO.P,J1,*%
%TO.N,*%
X146292000Y-74002400D03*
X146292000Y-76002400D03*
X146292000Y-72002400D03*
X146292000Y-70002400D03*
D11*
%TO.P,J1,1,Pin_1*%
%TO.N,VBUS*%
X144442000Y-70002400D03*
%TO.P,J1,2,Pin_2*%
%TO.N,USB-*%
X144442000Y-72002400D03*
%TO.P,J1,3,Pin_3*%
%TO.N,USB+*%
X144442000Y-74002400D03*
%TO.P,J1,4,Pin_4*%
%TO.N,GND*%
X144442000Y-76002400D03*
%TD*%
D12*
%TO.P,J5,1,Pin_1*%
%TO.N,BOOTSEL*%
X173020000Y-70000000D03*
D13*
%TO.P,J5,2,Pin_2*%
%TO.N,PLY_TGL*%
X173020000Y-72540000D03*
%TO.P,J5,3,Pin_3*%
%TO.N,AUD+*%
X173020000Y-75080000D03*
%TO.P,J5,4,Pin_4*%
%TO.N,AUD-*%
X173020000Y-77620000D03*
%TO.P,J5,5,Pin_5*%
%TO.N,DBG*%
X173020000Y-80160000D03*
%TO.P,J5,6,Pin_6*%
%TO.N,GND*%
X173020000Y-82700000D03*
%TD*%
D14*
%TO.P,R1,1*%
%TO.N,Net-(D1-Pad1)*%
X163525200Y-87884000D03*
D15*
%TO.P,R1,2*%
%TO.N,GND*%
X155905200Y-87884000D03*
%TD*%
D12*
%TO.P,J4,1,Pin_1*%
%TO.N,VBUS*%
X140000000Y-70000000D03*
D13*
%TO.P,J4,2,Pin_2*%
%TO.N,USB-*%
X140000000Y-72540000D03*
%TO.P,J4,3,Pin_3*%
%TO.N,USB+*%
X140000000Y-75080000D03*
%TO.P,J4,4,Pin_4*%
%TO.N,GND*%
X140000000Y-77620000D03*
%TO.P,J4,5,Pin_5*%
X140000000Y-80160000D03*
%TO.P,J4,6,Pin_6*%
X140000000Y-82700000D03*
%TD*%
D16*
%TO.P,D1,2,A*%
%TO.N,DBG*%
X170987800Y-86817200D03*
D17*
%TO.P,D1,1,K*%
%TO.N,Net-(D1-Pad1)*%
X168447800Y-86817200D03*
%TD*%
D18*
%TO.P,J2,6,Shield*%
%TO.N,GND*%
X158710000Y-92122800D03*
D19*
X159710000Y-94822800D03*
D18*
X153710000Y-92122800D03*
D19*
X152710000Y-94822800D03*
%TD*%
D20*
%TO.N,USB-*%
X154330400Y-89763600D03*
%TD*%
D21*
%TO.N,VBUS*%
X140000000Y-70000000D02*
X144475680Y-70000000D01*
X144475680Y-70000000D02*
X144478080Y-70002400D01*
D22*
%TO.N,USB-*%
X145331784Y-72776920D02*
X147023416Y-72776920D01*
X144878080Y-72323216D02*
X145331784Y-72776920D01*
X147777200Y-73530704D02*
X147777200Y-86309200D01*
X151231600Y-89763600D02*
X154330400Y-89763600D01*
X147023416Y-72776920D02*
X147777200Y-73530704D01*
X140000000Y-72540000D02*
X144090000Y-72540000D01*
X144878080Y-72182544D02*
X144878080Y-72323216D01*
X147777200Y-86309200D02*
X151231600Y-89763600D01*
X144627600Y-71932064D02*
X144878080Y-72182544D01*
X144090000Y-72540000D02*
X144627600Y-72002400D01*
%TO.N,USB+*%
X141077600Y-74002400D02*
X144627600Y-74002400D01*
X140000000Y-75080000D02*
X141077600Y-74002400D01*
%TD*%
%TA.AperFunction,Conductor*%
%TO.N,GND*%
G36*
X173932121Y-61538802D02*
G01*
X173978614Y-61592458D01*
X173990000Y-61644800D01*
X173990000Y-68515500D01*
X173969998Y-68583621D01*
X173916342Y-68630114D01*
X173864000Y-68641500D01*
X172121866Y-68641500D01*
X172059684Y-68648255D01*
X171923295Y-68699385D01*
X171806739Y-68786739D01*
X171719385Y-68903295D01*
X171668255Y-69039684D01*
X171661500Y-69101866D01*
X171661500Y-70898134D01*
X171668255Y-70960316D01*
X171719385Y-71096705D01*
X171806739Y-71213261D01*
X171923295Y-71300615D01*
X171931704Y-71303767D01*
X171931705Y-71303768D01*
X172040451Y-71344535D01*
X172097216Y-71387176D01*
X172121916Y-71453738D01*
X172106709Y-71523087D01*
X172087316Y-71549568D01*
X171960629Y-71682138D01*
X171834743Y-71866680D01*
X171740688Y-72069305D01*
X171680989Y-72284570D01*
X171657251Y-72506695D01*
X171657548Y-72511848D01*
X171657548Y-72511851D01*
X171663771Y-72619779D01*
X171670110Y-72729715D01*
X171671247Y-72734761D01*
X171671248Y-72734767D01*
X171674849Y-72750744D01*
X171719222Y-72947639D01*
X171739864Y-72998474D01*
X171801295Y-73149761D01*
X171803266Y-73154616D01*
X171919987Y-73345088D01*
X172066250Y-73513938D01*
X172147235Y-73581173D01*
X172232970Y-73652351D01*
X172238126Y-73656632D01*
X172249171Y-73663086D01*
X172311445Y-73699476D01*
X172360169Y-73751114D01*
X172373240Y-73820897D01*
X172346509Y-73886669D01*
X172306055Y-73920027D01*
X172300425Y-73922958D01*
X172293607Y-73926507D01*
X172289474Y-73929610D01*
X172289471Y-73929612D01*
X172119100Y-74057530D01*
X172114965Y-74060635D01*
X171960629Y-74222138D01*
X171834743Y-74406680D01*
X171740688Y-74609305D01*
X171680989Y-74824570D01*
X171657251Y-75046695D01*
X171657548Y-75051848D01*
X171657548Y-75051851D01*
X171663202Y-75149908D01*
X171670110Y-75269715D01*
X171671247Y-75274761D01*
X171671248Y-75274767D01*
X171680113Y-75314103D01*
X171719222Y-75487639D01*
X171803266Y-75694616D01*
X171919987Y-75885088D01*
X172066250Y-76053938D01*
X172142846Y-76117529D01*
X172232970Y-76192351D01*
X172238126Y-76196632D01*
X172249171Y-76203086D01*
X172311445Y-76239476D01*
X172360169Y-76291114D01*
X172373240Y-76360897D01*
X172346509Y-76426669D01*
X172306055Y-76460027D01*
X172300425Y-76462958D01*
X172293607Y-76466507D01*
X172289474Y-76469610D01*
X172289471Y-76469612D01*
X172119100Y-76597530D01*
X172114965Y-76600635D01*
X171960629Y-76762138D01*
X171834743Y-76946680D01*
X171740688Y-77149305D01*
X171680989Y-77364570D01*
X171657251Y-77586695D01*
X171670110Y-77809715D01*
X171671247Y-77814761D01*
X171671248Y-77814767D01*
X171684597Y-77874000D01*
X171719222Y-78027639D01*
X171803266Y-78234616D01*
X171919987Y-78425088D01*
X172066250Y-78593938D01*
X172201580Y-78706291D01*
X172232970Y-78732351D01*
X172238126Y-78736632D01*
X172262276Y-78750744D01*
X172311445Y-78779476D01*
X172360169Y-78831114D01*
X172373240Y-78900897D01*
X172346509Y-78966669D01*
X172306055Y-79000027D01*
X172300425Y-79002958D01*
X172293607Y-79006507D01*
X172289474Y-79009610D01*
X172289471Y-79009612D01*
X172119100Y-79137530D01*
X172114965Y-79140635D01*
X171960629Y-79302138D01*
X171834743Y-79486680D01*
X171740688Y-79689305D01*
X171680989Y-79904570D01*
X171657251Y-80126695D01*
X171670110Y-80349715D01*
X171671247Y-80354761D01*
X171671248Y-80354767D01*
X171684597Y-80414000D01*
X171719222Y-80567639D01*
X171803266Y-80774616D01*
X171919987Y-80965088D01*
X172066250Y-81133938D01*
X172142376Y-81197139D01*
X172232970Y-81272351D01*
X172238126Y-81276632D01*
X172311488Y-81319501D01*
X172311955Y-81319774D01*
X172360679Y-81371412D01*
X172373750Y-81441195D01*
X172347019Y-81506967D01*
X172306562Y-81540327D01*
X172298457Y-81544546D01*
X172289738Y-81550036D01*
X172119433Y-81677905D01*
X172111726Y-81684748D01*
X171964590Y-81838717D01*
X171958104Y-81846727D01*
X171838098Y-82022649D01*
X171833000Y-82031623D01*
X171743338Y-82224783D01*
X171739775Y-82234470D01*
X171684389Y-82434183D01*
X171685912Y-82442607D01*
X171698292Y-82446000D01*
X173148000Y-82446000D01*
X173216121Y-82466002D01*
X173262614Y-82519658D01*
X173274000Y-82572000D01*
X173274000Y-84018517D01*
X173278064Y-84032359D01*
X173291478Y-84034393D01*
X173298184Y-84033534D01*
X173308262Y-84031392D01*
X173512255Y-83970191D01*
X173521842Y-83966433D01*
X173713095Y-83872739D01*
X173721945Y-83867464D01*
X173790832Y-83818327D01*
X173857905Y-83795054D01*
X173926914Y-83811737D01*
X173975948Y-83863081D01*
X173990000Y-83920906D01*
X173990000Y-95733600D01*
X173969998Y-95801721D01*
X173916342Y-95848214D01*
X173864000Y-95859600D01*
X160620549Y-95859600D01*
X160552428Y-95839598D01*
X160505935Y-95785942D01*
X160495831Y-95715668D01*
X160517336Y-95661330D01*
X160542520Y-95625363D01*
X160548720Y-95614269D01*
X160620540Y-95448305D01*
X160624382Y-95436193D01*
X160661677Y-95257666D01*
X160662915Y-95248134D01*
X160663000Y-95244911D01*
X160663000Y-95094915D01*
X160658525Y-95079676D01*
X160657135Y-95078471D01*
X160649452Y-95076800D01*
X158775115Y-95076800D01*
X158759876Y-95081275D01*
X158758671Y-95082665D01*
X158757000Y-95090348D01*
X158757000Y-95197992D01*
X158757323Y-95204367D01*
X158771005Y-95339067D01*
X158773559Y-95351507D01*
X158827635Y-95524064D01*
X158832644Y-95535752D01*
X158908453Y-95672514D01*
X158923985Y-95741791D01*
X158899597Y-95808467D01*
X158843032Y-95851374D01*
X158798251Y-95859600D01*
X153620549Y-95859600D01*
X153552428Y-95839598D01*
X153505935Y-95785942D01*
X153495831Y-95715668D01*
X153517336Y-95661330D01*
X153542520Y-95625363D01*
X153548720Y-95614269D01*
X153620540Y-95448305D01*
X153624382Y-95436193D01*
X153661677Y-95257666D01*
X153662915Y-95248134D01*
X153663000Y-95244911D01*
X153663000Y-95094915D01*
X153658525Y-95079676D01*
X153657135Y-95078471D01*
X153649452Y-95076800D01*
X151775115Y-95076800D01*
X151759876Y-95081275D01*
X151758671Y-95082665D01*
X151757000Y-95090348D01*
X151757000Y-95197992D01*
X151757323Y-95204367D01*
X151771005Y-95339067D01*
X151773559Y-95351507D01*
X151827635Y-95524064D01*
X151832644Y-95535752D01*
X151908453Y-95672514D01*
X151923985Y-95741791D01*
X151899597Y-95808467D01*
X151843032Y-95851374D01*
X151798251Y-95859600D01*
X139165600Y-95859600D01*
X139097479Y-95839598D01*
X139050986Y-95785942D01*
X139039600Y-95733600D01*
X139039600Y-92995103D01*
X141222943Y-92995103D01*
X141223502Y-92999347D01*
X141223502Y-92999351D01*
X141234408Y-93082190D01*
X141260468Y-93280134D01*
X141336329Y-93557436D01*
X141338013Y-93561384D01*
X141437740Y-93795188D01*
X141449123Y-93821876D01*
X141523673Y-93946440D01*
X141526815Y-93951689D01*
X141596761Y-94068561D01*
X141776513Y-94292928D01*
X141985051Y-94490823D01*
X142218517Y-94658586D01*
X142222312Y-94660595D01*
X142222313Y-94660596D01*
X142244069Y-94672115D01*
X142472592Y-94793112D01*
X142742573Y-94891911D01*
X143023464Y-94953155D01*
X143052041Y-94955404D01*
X143246482Y-94970707D01*
X143246491Y-94970707D01*
X143248939Y-94970900D01*
X143404471Y-94970900D01*
X143406607Y-94970754D01*
X143406618Y-94970754D01*
X143614748Y-94956565D01*
X143614754Y-94956564D01*
X143619025Y-94956273D01*
X143623220Y-94955404D01*
X143623222Y-94955404D01*
X143759783Y-94927124D01*
X143900542Y-94897974D01*
X144171543Y-94802007D01*
X144427012Y-94670150D01*
X144430513Y-94667689D01*
X144430517Y-94667687D01*
X144544617Y-94587496D01*
X144596994Y-94550685D01*
X151757000Y-94550685D01*
X151761475Y-94565924D01*
X151762865Y-94567129D01*
X151770548Y-94568800D01*
X152437885Y-94568800D01*
X152453124Y-94564325D01*
X152454329Y-94562935D01*
X152456000Y-94555252D01*
X152456000Y-94550685D01*
X152964000Y-94550685D01*
X152968475Y-94565924D01*
X152969865Y-94567129D01*
X152977548Y-94568800D01*
X153644885Y-94568800D01*
X153660124Y-94564325D01*
X153661329Y-94562935D01*
X153663000Y-94555252D01*
X153663000Y-94550685D01*
X158757000Y-94550685D01*
X158761475Y-94565924D01*
X158762865Y-94567129D01*
X158770548Y-94568800D01*
X159437885Y-94568800D01*
X159453124Y-94564325D01*
X159454329Y-94562935D01*
X159456000Y-94555252D01*
X159456000Y-94550685D01*
X159964000Y-94550685D01*
X159968475Y-94565924D01*
X159969865Y-94567129D01*
X159977548Y-94568800D01*
X160644885Y-94568800D01*
X160660124Y-94564325D01*
X160661329Y-94562935D01*
X160663000Y-94555252D01*
X160663000Y-94447608D01*
X160662677Y-94441233D01*
X160648995Y-94306533D01*
X160646441Y-94294093D01*
X160592365Y-94121536D01*
X160587356Y-94109848D01*
X160499686Y-93951689D01*
X160492435Y-93941256D01*
X160374756Y-93803957D01*
X160365547Y-93795188D01*
X160222667Y-93684358D01*
X160211887Y-93677622D01*
X160049626Y-93597781D01*
X160037727Y-93593355D01*
X159981531Y-93578718D01*
X159967436Y-93579152D01*
X159964000Y-93587333D01*
X159964000Y-94550685D01*
X159456000Y-94550685D01*
X159456000Y-93588899D01*
X159452027Y-93575368D01*
X159445925Y-93574491D01*
X159296064Y-93629630D01*
X159284658Y-93635192D01*
X159130956Y-93730491D01*
X159120895Y-93738240D01*
X158989504Y-93862490D01*
X158981201Y-93872110D01*
X158877477Y-94020243D01*
X158871280Y-94031331D01*
X158799460Y-94197295D01*
X158795618Y-94209407D01*
X158758323Y-94387934D01*
X158757085Y-94397466D01*
X158757000Y-94400689D01*
X158757000Y-94550685D01*
X153663000Y-94550685D01*
X153663000Y-94447608D01*
X153662677Y-94441233D01*
X153648995Y-94306533D01*
X153646441Y-94294093D01*
X153592365Y-94121536D01*
X153587356Y-94109848D01*
X153499686Y-93951689D01*
X153492435Y-93941256D01*
X153374756Y-93803957D01*
X153365547Y-93795188D01*
X153222667Y-93684358D01*
X153211887Y-93677622D01*
X153049626Y-93597781D01*
X153037727Y-93593355D01*
X152981531Y-93578718D01*
X152967436Y-93579152D01*
X152964000Y-93587333D01*
X152964000Y-94550685D01*
X152456000Y-94550685D01*
X152456000Y-93588899D01*
X152452027Y-93575368D01*
X152445925Y-93574491D01*
X152296064Y-93629630D01*
X152284658Y-93635192D01*
X152130956Y-93730491D01*
X152120895Y-93738240D01*
X151989504Y-93862490D01*
X151981201Y-93872110D01*
X151877477Y-94020243D01*
X151871280Y-94031331D01*
X151799460Y-94197295D01*
X151795618Y-94209407D01*
X151758323Y-94387934D01*
X151757085Y-94397466D01*
X151757000Y-94400689D01*
X151757000Y-94550685D01*
X144596994Y-94550685D01*
X144662223Y-94504841D01*
X144872822Y-94309140D01*
X145054913Y-94086668D01*
X145205127Y-93841542D01*
X145316030Y-93588899D01*
X145318957Y-93582230D01*
X145320683Y-93578298D01*
X145399444Y-93301806D01*
X145439951Y-93017184D01*
X145440045Y-92999351D01*
X145441435Y-92733983D01*
X145441435Y-92733976D01*
X145441457Y-92729697D01*
X145403932Y-92444666D01*
X145388122Y-92386875D01*
X152609725Y-92386875D01*
X152669723Y-92549945D01*
X152675297Y-92561373D01*
X152773799Y-92720240D01*
X152781549Y-92730304D01*
X152909986Y-92866122D01*
X152919606Y-92874425D01*
X153072731Y-92981645D01*
X153083820Y-92987842D01*
X153255382Y-93062084D01*
X153267485Y-93065923D01*
X153438264Y-93101601D01*
X153452325Y-93100478D01*
X153456000Y-93090371D01*
X153456000Y-93082190D01*
X153964000Y-93082190D01*
X153968216Y-93096550D01*
X153980695Y-93098609D01*
X154052331Y-93091333D01*
X154064770Y-93088779D01*
X154243143Y-93032880D01*
X154254831Y-93027871D01*
X154418320Y-92937247D01*
X154428753Y-92929996D01*
X154570688Y-92808344D01*
X154579441Y-92799153D01*
X154694021Y-92651436D01*
X154700745Y-92640676D01*
X154783281Y-92472940D01*
X154787709Y-92461033D01*
X154805083Y-92394331D01*
X154804853Y-92386875D01*
X157609725Y-92386875D01*
X157669723Y-92549945D01*
X157675297Y-92561373D01*
X157773799Y-92720240D01*
X157781549Y-92730304D01*
X157909986Y-92866122D01*
X157919606Y-92874425D01*
X158072731Y-92981645D01*
X158083820Y-92987842D01*
X158255382Y-93062084D01*
X158267485Y-93065923D01*
X158438264Y-93101601D01*
X158452325Y-93100478D01*
X158456000Y-93090371D01*
X158456000Y-93082190D01*
X158964000Y-93082190D01*
X158968216Y-93096550D01*
X158980695Y-93098609D01*
X159052331Y-93091333D01*
X159064770Y-93088779D01*
X159243143Y-93032880D01*
X159254831Y-93027871D01*
X159313946Y-92995103D01*
X167588143Y-92995103D01*
X167588702Y-92999347D01*
X167588702Y-92999351D01*
X167599608Y-93082190D01*
X167625668Y-93280134D01*
X167701529Y-93557436D01*
X167703213Y-93561384D01*
X167802940Y-93795188D01*
X167814323Y-93821876D01*
X167888873Y-93946440D01*
X167892015Y-93951689D01*
X167961961Y-94068561D01*
X168141713Y-94292928D01*
X168350251Y-94490823D01*
X168583717Y-94658586D01*
X168587512Y-94660595D01*
X168587513Y-94660596D01*
X168609269Y-94672115D01*
X168837792Y-94793112D01*
X169107773Y-94891911D01*
X169388664Y-94953155D01*
X169417241Y-94955404D01*
X169611682Y-94970707D01*
X169611691Y-94970707D01*
X169614139Y-94970900D01*
X169769671Y-94970900D01*
X169771807Y-94970754D01*
X169771818Y-94970754D01*
X169979948Y-94956565D01*
X169979954Y-94956564D01*
X169984225Y-94956273D01*
X169988420Y-94955404D01*
X169988422Y-94955404D01*
X170124983Y-94927124D01*
X170265742Y-94897974D01*
X170536743Y-94802007D01*
X170792212Y-94670150D01*
X170795713Y-94667689D01*
X170795717Y-94667687D01*
X170909817Y-94587496D01*
X171027423Y-94504841D01*
X171238022Y-94309140D01*
X171420113Y-94086668D01*
X171570327Y-93841542D01*
X171681230Y-93588899D01*
X171684157Y-93582230D01*
X171685883Y-93578298D01*
X171764644Y-93301806D01*
X171805151Y-93017184D01*
X171805245Y-92999351D01*
X171806635Y-92733983D01*
X171806635Y-92733976D01*
X171806657Y-92729697D01*
X171769132Y-92444666D01*
X171693271Y-92167364D01*
X171580477Y-91902924D01*
X171456429Y-91695655D01*
X171435043Y-91659921D01*
X171435040Y-91659917D01*
X171432839Y-91656239D01*
X171253087Y-91431872D01*
X171044549Y-91233977D01*
X170811083Y-91066214D01*
X170789243Y-91054650D01*
X170766054Y-91042372D01*
X170557008Y-90931688D01*
X170287027Y-90832889D01*
X170006136Y-90771645D01*
X169975085Y-90769201D01*
X169783118Y-90754093D01*
X169783109Y-90754093D01*
X169780661Y-90753900D01*
X169625129Y-90753900D01*
X169622993Y-90754046D01*
X169622982Y-90754046D01*
X169414852Y-90768235D01*
X169414846Y-90768236D01*
X169410575Y-90768527D01*
X169406380Y-90769396D01*
X169406378Y-90769396D01*
X169269816Y-90797677D01*
X169129058Y-90826826D01*
X168858057Y-90922793D01*
X168602588Y-91054650D01*
X168599087Y-91057111D01*
X168599083Y-91057113D01*
X168588994Y-91064204D01*
X168367377Y-91219959D01*
X168156778Y-91415660D01*
X167974687Y-91638132D01*
X167972448Y-91641786D01*
X167835439Y-91865364D01*
X167824473Y-91883258D01*
X167708917Y-92146502D01*
X167630156Y-92422994D01*
X167589649Y-92707616D01*
X167589627Y-92711905D01*
X167589626Y-92711912D01*
X167588775Y-92874425D01*
X167588143Y-92995103D01*
X159313946Y-92995103D01*
X159418320Y-92937247D01*
X159428753Y-92929996D01*
X159570688Y-92808344D01*
X159579441Y-92799153D01*
X159694021Y-92651436D01*
X159700745Y-92640676D01*
X159783281Y-92472940D01*
X159787709Y-92461033D01*
X159805083Y-92394331D01*
X159804649Y-92380236D01*
X159796468Y-92376800D01*
X158982115Y-92376800D01*
X158966876Y-92381275D01*
X158965671Y-92382665D01*
X158964000Y-92390348D01*
X158964000Y-93082190D01*
X158456000Y-93082190D01*
X158456000Y-92394915D01*
X158451525Y-92379676D01*
X158450135Y-92378471D01*
X158442452Y-92376800D01*
X157624133Y-92376800D01*
X157610602Y-92380773D01*
X157609725Y-92386875D01*
X154804853Y-92386875D01*
X154804649Y-92380236D01*
X154796468Y-92376800D01*
X153982115Y-92376800D01*
X153966876Y-92381275D01*
X153965671Y-92382665D01*
X153964000Y-92390348D01*
X153964000Y-93082190D01*
X153456000Y-93082190D01*
X153456000Y-92394915D01*
X153451525Y-92379676D01*
X153450135Y-92378471D01*
X153442452Y-92376800D01*
X152624133Y-92376800D01*
X152610602Y-92380773D01*
X152609725Y-92386875D01*
X145388122Y-92386875D01*
X145328071Y-92167364D01*
X145215277Y-91902924D01*
X145184362Y-91851269D01*
X152614917Y-91851269D01*
X152615351Y-91865364D01*
X152623532Y-91868800D01*
X153437885Y-91868800D01*
X153453124Y-91864325D01*
X153454329Y-91862935D01*
X153456000Y-91855252D01*
X153456000Y-91850685D01*
X153964000Y-91850685D01*
X153968475Y-91865924D01*
X153969865Y-91867129D01*
X153977548Y-91868800D01*
X154795867Y-91868800D01*
X154809398Y-91864827D01*
X154810275Y-91858725D01*
X154807532Y-91851269D01*
X157614917Y-91851269D01*
X157615351Y-91865364D01*
X157623532Y-91868800D01*
X158437885Y-91868800D01*
X158453124Y-91864325D01*
X158454329Y-91862935D01*
X158456000Y-91855252D01*
X158456000Y-91850685D01*
X158964000Y-91850685D01*
X158968475Y-91865924D01*
X158969865Y-91867129D01*
X158977548Y-91868800D01*
X159795867Y-91868800D01*
X159809398Y-91864827D01*
X159810275Y-91858725D01*
X159750277Y-91695655D01*
X159744703Y-91684227D01*
X159646201Y-91525360D01*
X159638451Y-91515296D01*
X159510014Y-91379478D01*
X159500394Y-91371175D01*
X159347269Y-91263955D01*
X159336180Y-91257758D01*
X159164618Y-91183516D01*
X159152515Y-91179677D01*
X158981736Y-91143999D01*
X158967675Y-91145122D01*
X158964000Y-91155229D01*
X158964000Y-91850685D01*
X158456000Y-91850685D01*
X158456000Y-91163410D01*
X158451784Y-91149050D01*
X158439305Y-91146991D01*
X158367669Y-91154267D01*
X158355230Y-91156821D01*
X158176857Y-91212720D01*
X158165169Y-91217729D01*
X158001680Y-91308353D01*
X157991247Y-91315604D01*
X157849312Y-91437256D01*
X157840559Y-91446447D01*
X157725979Y-91594164D01*
X157719255Y-91604924D01*
X157636719Y-91772660D01*
X157632291Y-91784567D01*
X157614917Y-91851269D01*
X154807532Y-91851269D01*
X154750277Y-91695655D01*
X154744703Y-91684227D01*
X154646201Y-91525360D01*
X154638451Y-91515296D01*
X154510014Y-91379478D01*
X154500394Y-91371175D01*
X154347269Y-91263955D01*
X154336180Y-91257758D01*
X154164618Y-91183516D01*
X154152515Y-91179677D01*
X153981736Y-91143999D01*
X153967675Y-91145122D01*
X153964000Y-91155229D01*
X153964000Y-91850685D01*
X153456000Y-91850685D01*
X153456000Y-91163410D01*
X153451784Y-91149050D01*
X153439305Y-91146991D01*
X153367669Y-91154267D01*
X153355230Y-91156821D01*
X153176857Y-91212720D01*
X153165169Y-91217729D01*
X153001680Y-91308353D01*
X152991247Y-91315604D01*
X152849312Y-91437256D01*
X152840559Y-91446447D01*
X152725979Y-91594164D01*
X152719255Y-91604924D01*
X152636719Y-91772660D01*
X152632291Y-91784567D01*
X152614917Y-91851269D01*
X145184362Y-91851269D01*
X145091229Y-91695655D01*
X145069843Y-91659921D01*
X145069840Y-91659917D01*
X145067639Y-91656239D01*
X144887887Y-91431872D01*
X144679349Y-91233977D01*
X144445883Y-91066214D01*
X144424043Y-91054650D01*
X144400854Y-91042372D01*
X144191808Y-90931688D01*
X143921827Y-90832889D01*
X143640936Y-90771645D01*
X143609885Y-90769201D01*
X143417918Y-90754093D01*
X143417909Y-90754093D01*
X143415461Y-90753900D01*
X143259929Y-90753900D01*
X143257793Y-90754046D01*
X143257782Y-90754046D01*
X143049652Y-90768235D01*
X143049646Y-90768236D01*
X143045375Y-90768527D01*
X143041180Y-90769396D01*
X143041178Y-90769396D01*
X142904616Y-90797677D01*
X142763858Y-90826826D01*
X142492857Y-90922793D01*
X142237388Y-91054650D01*
X142233887Y-91057111D01*
X142233883Y-91057113D01*
X142223794Y-91064204D01*
X142002177Y-91219959D01*
X141791578Y-91415660D01*
X141609487Y-91638132D01*
X141607248Y-91641786D01*
X141470239Y-91865364D01*
X141459273Y-91883258D01*
X141343717Y-92146502D01*
X141264956Y-92422994D01*
X141224449Y-92707616D01*
X141224427Y-92711905D01*
X141224426Y-92711912D01*
X141223575Y-92874425D01*
X141222943Y-92995103D01*
X139039600Y-92995103D01*
X139039600Y-83931294D01*
X139059602Y-83863173D01*
X139113258Y-83816680D01*
X139183532Y-83806576D01*
X139229171Y-83822506D01*
X139406761Y-83926282D01*
X139416042Y-83930729D01*
X139615001Y-84006703D01*
X139624899Y-84009579D01*
X139728250Y-84030606D01*
X139742299Y-84029410D01*
X139746000Y-84019065D01*
X139746000Y-84018517D01*
X140254000Y-84018517D01*
X140258064Y-84032359D01*
X140271478Y-84034393D01*
X140278184Y-84033534D01*
X140288262Y-84031392D01*
X140492255Y-83970191D01*
X140501842Y-83966433D01*
X140693095Y-83872739D01*
X140701945Y-83867464D01*
X140875328Y-83743792D01*
X140883200Y-83737139D01*
X141034052Y-83586812D01*
X141040730Y-83578965D01*
X141165003Y-83406020D01*
X141170313Y-83397183D01*
X141264670Y-83206267D01*
X141268469Y-83196672D01*
X141330377Y-82992910D01*
X141332555Y-82982837D01*
X141333986Y-82971962D01*
X141331775Y-82957778D01*
X141318617Y-82954000D01*
X140272115Y-82954000D01*
X140256876Y-82958475D01*
X140255671Y-82959865D01*
X140254000Y-82967548D01*
X140254000Y-84018517D01*
X139746000Y-84018517D01*
X139746000Y-82427885D01*
X140254000Y-82427885D01*
X140258475Y-82443124D01*
X140259865Y-82444329D01*
X140267548Y-82446000D01*
X141318344Y-82446000D01*
X141331875Y-82442027D01*
X141333180Y-82432947D01*
X141291214Y-82265875D01*
X141287894Y-82256124D01*
X141202972Y-82060814D01*
X141198105Y-82051739D01*
X141082426Y-81872926D01*
X141076136Y-81864757D01*
X140932806Y-81707240D01*
X140925273Y-81700215D01*
X140758139Y-81568222D01*
X140749552Y-81562517D01*
X140712116Y-81541851D01*
X140662146Y-81491419D01*
X140647374Y-81421976D01*
X140672490Y-81355571D01*
X140699842Y-81328964D01*
X140875327Y-81203792D01*
X140883200Y-81197139D01*
X141034052Y-81046812D01*
X141040730Y-81038965D01*
X141165003Y-80866020D01*
X141170313Y-80857183D01*
X141264670Y-80666267D01*
X141268469Y-80656672D01*
X141330377Y-80452910D01*
X141332555Y-80442837D01*
X141333986Y-80431962D01*
X141331775Y-80417778D01*
X141318617Y-80414000D01*
X140272115Y-80414000D01*
X140256876Y-80418475D01*
X140255671Y-80419865D01*
X140254000Y-80427548D01*
X140254000Y-82427885D01*
X139746000Y-82427885D01*
X139746000Y-79887885D01*
X140254000Y-79887885D01*
X140258475Y-79903124D01*
X140259865Y-79904329D01*
X140267548Y-79906000D01*
X141318344Y-79906000D01*
X141331875Y-79902027D01*
X141333180Y-79892947D01*
X141291214Y-79725875D01*
X141287894Y-79716124D01*
X141202972Y-79520814D01*
X141198105Y-79511739D01*
X141082426Y-79332926D01*
X141076136Y-79324757D01*
X140932806Y-79167240D01*
X140925273Y-79160215D01*
X140758139Y-79028222D01*
X140749552Y-79022517D01*
X140712116Y-79001851D01*
X140662146Y-78951419D01*
X140647374Y-78881976D01*
X140672490Y-78815571D01*
X140699842Y-78788964D01*
X140875327Y-78663792D01*
X140883200Y-78657139D01*
X141034052Y-78506812D01*
X141040730Y-78498965D01*
X141165003Y-78326020D01*
X141170313Y-78317183D01*
X141264670Y-78126267D01*
X141268469Y-78116672D01*
X141330377Y-77912910D01*
X141332555Y-77902837D01*
X141333986Y-77891962D01*
X141331775Y-77877778D01*
X141318617Y-77874000D01*
X140272115Y-77874000D01*
X140256876Y-77878475D01*
X140255671Y-77879865D01*
X140254000Y-77887548D01*
X140254000Y-79887885D01*
X139746000Y-79887885D01*
X139746000Y-77492000D01*
X139766002Y-77423879D01*
X139819658Y-77377386D01*
X139872000Y-77366000D01*
X141318344Y-77366000D01*
X141331875Y-77362027D01*
X141333180Y-77352947D01*
X141291214Y-77185875D01*
X141287894Y-77176124D01*
X141202972Y-76980814D01*
X141198105Y-76971739D01*
X141082426Y-76792926D01*
X141076136Y-76784757D01*
X140932806Y-76627240D01*
X140925273Y-76620215D01*
X140769341Y-76497069D01*
X143284001Y-76497069D01*
X143284371Y-76503890D01*
X143289895Y-76554752D01*
X143293521Y-76570004D01*
X143338676Y-76690454D01*
X143347214Y-76706049D01*
X143423715Y-76808124D01*
X143436276Y-76820685D01*
X143538351Y-76897186D01*
X143553946Y-76905724D01*
X143674394Y-76950878D01*
X143689649Y-76954505D01*
X143740514Y-76960031D01*
X143747328Y-76960400D01*
X144169885Y-76960400D01*
X144185124Y-76955925D01*
X144186329Y-76954535D01*
X144188000Y-76946852D01*
X144188000Y-76274515D01*
X144183525Y-76259276D01*
X144182135Y-76258071D01*
X144174452Y-76256400D01*
X143302116Y-76256400D01*
X143286877Y-76260875D01*
X143285672Y-76262265D01*
X143284001Y-76269948D01*
X143284001Y-76497069D01*
X140769341Y-76497069D01*
X140758139Y-76488222D01*
X140749556Y-76482520D01*
X140712602Y-76462120D01*
X140662631Y-76411687D01*
X140647859Y-76342245D01*
X140672975Y-76275839D01*
X140700327Y-76249232D01*
X140723797Y-76232491D01*
X140879860Y-76121173D01*
X141038096Y-75963489D01*
X141097594Y-75880689D01*
X141165435Y-75786277D01*
X141168453Y-75782077D01*
X141267430Y-75581811D01*
X141299900Y-75474940D01*
X141330865Y-75373023D01*
X141330865Y-75373021D01*
X141332370Y-75368069D01*
X141361529Y-75146590D01*
X141361611Y-75143240D01*
X141363074Y-75083365D01*
X141363074Y-75083361D01*
X141363156Y-75080000D01*
X141344852Y-74857361D01*
X141322304Y-74767595D01*
X141325108Y-74696655D01*
X141365820Y-74638491D01*
X141431516Y-74611572D01*
X141444508Y-74610900D01*
X143220991Y-74610900D01*
X143289112Y-74630902D01*
X143335605Y-74684558D01*
X143337903Y-74690094D01*
X143338232Y-74690696D01*
X143341385Y-74699105D01*
X143428739Y-74815661D01*
X143498416Y-74867881D01*
X143543790Y-74901887D01*
X143586304Y-74958747D01*
X143591329Y-75029565D01*
X143557270Y-75091858D01*
X143543789Y-75103539D01*
X143436276Y-75184115D01*
X143423715Y-75196676D01*
X143347214Y-75298751D01*
X143338676Y-75314346D01*
X143293522Y-75434794D01*
X143289895Y-75450049D01*
X143284369Y-75500914D01*
X143284000Y-75507728D01*
X143284000Y-75730285D01*
X143288475Y-75745524D01*
X143289865Y-75746729D01*
X143297548Y-75748400D01*
X144570000Y-75748400D01*
X144638121Y-75768402D01*
X144684614Y-75822058D01*
X144696000Y-75874400D01*
X144696000Y-76942284D01*
X144700475Y-76957523D01*
X144701865Y-76958728D01*
X144709548Y-76960399D01*
X145136669Y-76960399D01*
X145143490Y-76960029D01*
X145194352Y-76954505D01*
X145209603Y-76950879D01*
X145308148Y-76913936D01*
X145378955Y-76908753D01*
X145402418Y-76916281D01*
X145468086Y-76944698D01*
X145663666Y-76985556D01*
X145668522Y-76985811D01*
X145668561Y-76985813D01*
X145668577Y-76985813D01*
X145670229Y-76985900D01*
X146866934Y-76985900D01*
X147015780Y-76970781D01*
X147018593Y-76969899D01*
X147088117Y-76975694D01*
X147144449Y-77018906D01*
X147168476Y-77085713D01*
X147168700Y-77093224D01*
X147168700Y-86261064D01*
X147167622Y-86277507D01*
X147163450Y-86309200D01*
X147168700Y-86349080D01*
X147168700Y-86349085D01*
X147173121Y-86382665D01*
X147184362Y-86468051D01*
X147245676Y-86616076D01*
X147250703Y-86622627D01*
X147250704Y-86622629D01*
X147318720Y-86711269D01*
X147318726Y-86711275D01*
X147343213Y-86743187D01*
X147349768Y-86748217D01*
X147368579Y-86762652D01*
X147380970Y-86773519D01*
X150767285Y-90159834D01*
X150778152Y-90172225D01*
X150797613Y-90197587D01*
X150804163Y-90202613D01*
X150829525Y-90222074D01*
X150829528Y-90222077D01*
X150898918Y-90275322D01*
X150918170Y-90290095D01*
X150918174Y-90290097D01*
X150924725Y-90295124D01*
X151072750Y-90356438D01*
X151191715Y-90372100D01*
X151191720Y-90372100D01*
X151191729Y-90372101D01*
X151223412Y-90376272D01*
X151231600Y-90377350D01*
X151263293Y-90373178D01*
X151279736Y-90372100D01*
X153599690Y-90372100D01*
X153667811Y-90392102D01*
X153693326Y-90413789D01*
X153719147Y-90442466D01*
X153873648Y-90554718D01*
X153879676Y-90557402D01*
X153879678Y-90557403D01*
X154042081Y-90629709D01*
X154048112Y-90632394D01*
X154141513Y-90652247D01*
X154228456Y-90670728D01*
X154228461Y-90670728D01*
X154234913Y-90672100D01*
X154425887Y-90672100D01*
X154432339Y-90670728D01*
X154432344Y-90670728D01*
X154519288Y-90652247D01*
X154612688Y-90632394D01*
X154618719Y-90629709D01*
X154781122Y-90557403D01*
X154781124Y-90557402D01*
X154787152Y-90554718D01*
X154941653Y-90442466D01*
X155069440Y-90300544D01*
X155164927Y-90135156D01*
X155223942Y-89953528D01*
X155243904Y-89763600D01*
X155223942Y-89573672D01*
X155164927Y-89392044D01*
X155069440Y-89226656D01*
X155002686Y-89152518D01*
X154971968Y-89088511D01*
X154980733Y-89018057D01*
X155026196Y-88963526D01*
X155093923Y-88942231D01*
X155162412Y-88960932D01*
X155168593Y-88964995D01*
X155244193Y-89017931D01*
X155253689Y-89023414D01*
X155451147Y-89115490D01*
X155461439Y-89119236D01*
X155633703Y-89165394D01*
X155647799Y-89165058D01*
X155651200Y-89157116D01*
X155651200Y-89151967D01*
X156159200Y-89151967D01*
X156163173Y-89165498D01*
X156171722Y-89166727D01*
X156348961Y-89119236D01*
X156359253Y-89115490D01*
X156556711Y-89023414D01*
X156566207Y-89017931D01*
X156744667Y-88892972D01*
X156753075Y-88885916D01*
X156907116Y-88731875D01*
X156914172Y-88723467D01*
X157039131Y-88545007D01*
X157044614Y-88535511D01*
X157136690Y-88338053D01*
X157140436Y-88327761D01*
X157186594Y-88155497D01*
X157186258Y-88141401D01*
X157178316Y-88138000D01*
X156177315Y-88138000D01*
X156162076Y-88142475D01*
X156160871Y-88143865D01*
X156159200Y-88151548D01*
X156159200Y-89151967D01*
X155651200Y-89151967D01*
X155651200Y-88156115D01*
X155646725Y-88140876D01*
X155645335Y-88139671D01*
X155637652Y-88138000D01*
X154637233Y-88138000D01*
X154623702Y-88141973D01*
X154622473Y-88150522D01*
X154669964Y-88327761D01*
X154673710Y-88338053D01*
X154765786Y-88535511D01*
X154771269Y-88545007D01*
X154896228Y-88723467D01*
X154903284Y-88731875D01*
X154959640Y-88788231D01*
X154993666Y-88850543D01*
X154988601Y-88921358D01*
X154946054Y-88978194D01*
X154879534Y-89003005D01*
X154810160Y-88987914D01*
X154796485Y-88979263D01*
X154795014Y-88978194D01*
X154787152Y-88972482D01*
X154781124Y-88969798D01*
X154781122Y-88969797D01*
X154618719Y-88897491D01*
X154618718Y-88897491D01*
X154612688Y-88894806D01*
X154519287Y-88874953D01*
X154432344Y-88856472D01*
X154432339Y-88856472D01*
X154425887Y-88855100D01*
X154234913Y-88855100D01*
X154228461Y-88856472D01*
X154228456Y-88856472D01*
X154141513Y-88874953D01*
X154048112Y-88894806D01*
X154042082Y-88897491D01*
X154042081Y-88897491D01*
X153879678Y-88969797D01*
X153879676Y-88969798D01*
X153873648Y-88972482D01*
X153868307Y-88976362D01*
X153868306Y-88976363D01*
X153810494Y-89018366D01*
X153719147Y-89084734D01*
X153714734Y-89089636D01*
X153714732Y-89089637D01*
X153693326Y-89113411D01*
X153632880Y-89150650D01*
X153599690Y-89155100D01*
X151535839Y-89155100D01*
X151467718Y-89135098D01*
X151446744Y-89118195D01*
X150212549Y-87884000D01*
X162211702Y-87884000D01*
X162231657Y-88112087D01*
X162233081Y-88117400D01*
X162233081Y-88117402D01*
X162262953Y-88228883D01*
X162290916Y-88333243D01*
X162293239Y-88338224D01*
X162293239Y-88338225D01*
X162385351Y-88535762D01*
X162385354Y-88535767D01*
X162387677Y-88540749D01*
X162519002Y-88728300D01*
X162680900Y-88890198D01*
X162685408Y-88893355D01*
X162685411Y-88893357D01*
X162691315Y-88897491D01*
X162868451Y-89021523D01*
X162873433Y-89023846D01*
X162873438Y-89023849D01*
X163069965Y-89115490D01*
X163075957Y-89118284D01*
X163081265Y-89119706D01*
X163081267Y-89119707D01*
X163291798Y-89176119D01*
X163291800Y-89176119D01*
X163297113Y-89177543D01*
X163525200Y-89197498D01*
X163753287Y-89177543D01*
X163758600Y-89176119D01*
X163758602Y-89176119D01*
X163969133Y-89119707D01*
X163969135Y-89119706D01*
X163974443Y-89118284D01*
X163980435Y-89115490D01*
X164176962Y-89023849D01*
X164176967Y-89023846D01*
X164181949Y-89021523D01*
X164359085Y-88897491D01*
X164364989Y-88893357D01*
X164364992Y-88893355D01*
X164369500Y-88890198D01*
X164531398Y-88728300D01*
X164662723Y-88540749D01*
X164665046Y-88535767D01*
X164665049Y-88535762D01*
X164757161Y-88338225D01*
X164757161Y-88338224D01*
X164759484Y-88333243D01*
X164787448Y-88228883D01*
X164817319Y-88117402D01*
X164817319Y-88117400D01*
X164818743Y-88112087D01*
X164838698Y-87884000D01*
X164828316Y-87765334D01*
X167039300Y-87765334D01*
X167046055Y-87827516D01*
X167097185Y-87963905D01*
X167184539Y-88080461D01*
X167301095Y-88167815D01*
X167437484Y-88218945D01*
X167499666Y-88225700D01*
X169395934Y-88225700D01*
X169458116Y-88218945D01*
X169594505Y-88167815D01*
X169711061Y-88080461D01*
X169798415Y-87963905D01*
X169822980Y-87898378D01*
X169865622Y-87841614D01*
X169932183Y-87816914D01*
X170001532Y-87832121D01*
X170021447Y-87845664D01*
X170086524Y-87899692D01*
X170177149Y-87974930D01*
X170377122Y-88091784D01*
X170593494Y-88174409D01*
X170598560Y-88175440D01*
X170598561Y-88175440D01*
X170651646Y-88186240D01*
X170820456Y-88220585D01*
X170949889Y-88225331D01*
X171046749Y-88228883D01*
X171046753Y-88228883D01*
X171051913Y-88229072D01*
X171057033Y-88228416D01*
X171057035Y-88228416D01*
X171130966Y-88218945D01*
X171281647Y-88199642D01*
X171286595Y-88198157D01*
X171286602Y-88198156D01*
X171498547Y-88134569D01*
X171503490Y-88133086D01*
X171535505Y-88117402D01*
X171706849Y-88033462D01*
X171706852Y-88033460D01*
X171711484Y-88031191D01*
X171900043Y-87896694D01*
X172064103Y-87733205D01*
X172199258Y-87545117D01*
X172301878Y-87337480D01*
X172369208Y-87115871D01*
X172399440Y-86886241D01*
X172399714Y-86875028D01*
X172401045Y-86820565D01*
X172401045Y-86820561D01*
X172401127Y-86817200D01*
X172387587Y-86652510D01*
X172382573Y-86591518D01*
X172382572Y-86591512D01*
X172382149Y-86586367D01*
X172325725Y-86361733D01*
X172323666Y-86356997D01*
X172235430Y-86154068D01*
X172235428Y-86154065D01*
X172233370Y-86149331D01*
X172107564Y-85954865D01*
X172102347Y-85949131D01*
X172014928Y-85853059D01*
X171951687Y-85783558D01*
X171947636Y-85780359D01*
X171947632Y-85780355D01*
X171773977Y-85643211D01*
X171773972Y-85643208D01*
X171769923Y-85640010D01*
X171765407Y-85637517D01*
X171765404Y-85637515D01*
X171571679Y-85530573D01*
X171571675Y-85530571D01*
X171567155Y-85528076D01*
X171562286Y-85526352D01*
X171562282Y-85526350D01*
X171353703Y-85452488D01*
X171353699Y-85452487D01*
X171348828Y-85450762D01*
X171343735Y-85449855D01*
X171343732Y-85449854D01*
X171125895Y-85411051D01*
X171125889Y-85411050D01*
X171120806Y-85410145D01*
X171047896Y-85409254D01*
X170894381Y-85407379D01*
X170894379Y-85407379D01*
X170889211Y-85407316D01*
X170660264Y-85442350D01*
X170440114Y-85514306D01*
X170435526Y-85516694D01*
X170435522Y-85516696D01*
X170239261Y-85618863D01*
X170234672Y-85621252D01*
X170230539Y-85624355D01*
X170230536Y-85624357D01*
X170053590Y-85757212D01*
X170049455Y-85760317D01*
X170040159Y-85770045D01*
X170031970Y-85778614D01*
X169970446Y-85814044D01*
X169899533Y-85810587D01*
X169841747Y-85769341D01*
X169822894Y-85735792D01*
X169801568Y-85678905D01*
X169801567Y-85678903D01*
X169798415Y-85670495D01*
X169711061Y-85553939D01*
X169594505Y-85466585D01*
X169458116Y-85415455D01*
X169395934Y-85408700D01*
X167499666Y-85408700D01*
X167437484Y-85415455D01*
X167301095Y-85466585D01*
X167184539Y-85553939D01*
X167097185Y-85670495D01*
X167046055Y-85806884D01*
X167039300Y-85869066D01*
X167039300Y-87765334D01*
X164828316Y-87765334D01*
X164818743Y-87655913D01*
X164808444Y-87617478D01*
X164760907Y-87440067D01*
X164760906Y-87440065D01*
X164759484Y-87434757D01*
X164716288Y-87342122D01*
X164665049Y-87232238D01*
X164665046Y-87232233D01*
X164662723Y-87227251D01*
X164531398Y-87039700D01*
X164369500Y-86877802D01*
X164364992Y-86874645D01*
X164364989Y-86874643D01*
X164278162Y-86813846D01*
X164181949Y-86746477D01*
X164176967Y-86744154D01*
X164176962Y-86744151D01*
X163979425Y-86652039D01*
X163979424Y-86652039D01*
X163974443Y-86649716D01*
X163969135Y-86648294D01*
X163969133Y-86648293D01*
X163758602Y-86591881D01*
X163758600Y-86591881D01*
X163753287Y-86590457D01*
X163525200Y-86570502D01*
X163297113Y-86590457D01*
X163291800Y-86591881D01*
X163291798Y-86591881D01*
X163081267Y-86648293D01*
X163081265Y-86648294D01*
X163075957Y-86649716D01*
X163070976Y-86652039D01*
X163070975Y-86652039D01*
X162873438Y-86744151D01*
X162873433Y-86744154D01*
X162868451Y-86746477D01*
X162772238Y-86813846D01*
X162685411Y-86874643D01*
X162685408Y-86874645D01*
X162680900Y-86877802D01*
X162519002Y-87039700D01*
X162387677Y-87227251D01*
X162385354Y-87232233D01*
X162385351Y-87232238D01*
X162334112Y-87342122D01*
X162290916Y-87434757D01*
X162289494Y-87440065D01*
X162289493Y-87440067D01*
X162241956Y-87617478D01*
X162231657Y-87655913D01*
X162211702Y-87884000D01*
X150212549Y-87884000D01*
X149941052Y-87612503D01*
X154623806Y-87612503D01*
X154624142Y-87626599D01*
X154632084Y-87630000D01*
X155633085Y-87630000D01*
X155648324Y-87625525D01*
X155649529Y-87624135D01*
X155651200Y-87616452D01*
X155651200Y-87611885D01*
X156159200Y-87611885D01*
X156163675Y-87627124D01*
X156165065Y-87628329D01*
X156172748Y-87630000D01*
X157173167Y-87630000D01*
X157186698Y-87626027D01*
X157187927Y-87617478D01*
X157140436Y-87440239D01*
X157136690Y-87429947D01*
X157044614Y-87232489D01*
X157039131Y-87222993D01*
X156914172Y-87044533D01*
X156907116Y-87036125D01*
X156753075Y-86882084D01*
X156744667Y-86875028D01*
X156566207Y-86750069D01*
X156556711Y-86744586D01*
X156359253Y-86652510D01*
X156348961Y-86648764D01*
X156176697Y-86602606D01*
X156162601Y-86602942D01*
X156159200Y-86610884D01*
X156159200Y-87611885D01*
X155651200Y-87611885D01*
X155651200Y-86616033D01*
X155647227Y-86602502D01*
X155638678Y-86601273D01*
X155461439Y-86648764D01*
X155451147Y-86652510D01*
X155253689Y-86744586D01*
X155244193Y-86750069D01*
X155065733Y-86875028D01*
X155057325Y-86882084D01*
X154903284Y-87036125D01*
X154896228Y-87044533D01*
X154771269Y-87222993D01*
X154765786Y-87232489D01*
X154673710Y-87429947D01*
X154669964Y-87440239D01*
X154623806Y-87612503D01*
X149941052Y-87612503D01*
X148548044Y-86219495D01*
X148514018Y-86157183D01*
X148519083Y-86086368D01*
X148561630Y-86029532D01*
X148628150Y-86004721D01*
X148637139Y-86004400D01*
X164888098Y-86004400D01*
X164888869Y-86004402D01*
X164966452Y-86004876D01*
X164975081Y-86002410D01*
X164975086Y-86002409D01*
X164994848Y-85996761D01*
X165011609Y-85993183D01*
X165031952Y-85990270D01*
X165031962Y-85990267D01*
X165040845Y-85988995D01*
X165064195Y-85978379D01*
X165081707Y-85971936D01*
X165097737Y-85967354D01*
X165106365Y-85964888D01*
X165131348Y-85949126D01*
X165146414Y-85940996D01*
X165173310Y-85928767D01*
X165192739Y-85912026D01*
X165207747Y-85900921D01*
X165221839Y-85892030D01*
X165229431Y-85887240D01*
X165248982Y-85865103D01*
X165261174Y-85853059D01*
X165276749Y-85839639D01*
X165276750Y-85839637D01*
X165283547Y-85833781D01*
X165288426Y-85826253D01*
X165288429Y-85826250D01*
X165297496Y-85812261D01*
X165308786Y-85797387D01*
X165319812Y-85784902D01*
X165325756Y-85778172D01*
X165329903Y-85769341D01*
X165335597Y-85757212D01*
X165338310Y-85751434D01*
X165346624Y-85736465D01*
X165362693Y-85711673D01*
X165370039Y-85687109D01*
X165376701Y-85669664D01*
X165383783Y-85654579D01*
X165387599Y-85646452D01*
X165392143Y-85617270D01*
X165395926Y-85600551D01*
X165401814Y-85580864D01*
X165401815Y-85580861D01*
X165404387Y-85572259D01*
X165404597Y-85537844D01*
X165404630Y-85537072D01*
X165404800Y-85535977D01*
X165404800Y-85505102D01*
X165404802Y-85504332D01*
X165405252Y-85430684D01*
X165405252Y-85430683D01*
X165405276Y-85426748D01*
X165404892Y-85425404D01*
X165404800Y-85424059D01*
X165404800Y-82967966D01*
X171688257Y-82967966D01*
X171718565Y-83102446D01*
X171721645Y-83112275D01*
X171801770Y-83309603D01*
X171806413Y-83318794D01*
X171917694Y-83500388D01*
X171923777Y-83508699D01*
X172063213Y-83669667D01*
X172070580Y-83676883D01*
X172234434Y-83812916D01*
X172242881Y-83818831D01*
X172426756Y-83926279D01*
X172436042Y-83930729D01*
X172635001Y-84006703D01*
X172644899Y-84009579D01*
X172748250Y-84030606D01*
X172762299Y-84029410D01*
X172766000Y-84019065D01*
X172766000Y-82972115D01*
X172761525Y-82956876D01*
X172760135Y-82955671D01*
X172752452Y-82954000D01*
X171703225Y-82954000D01*
X171689694Y-82957973D01*
X171688257Y-82967966D01*
X165404800Y-82967966D01*
X165404800Y-78906069D01*
X165424802Y-78837948D01*
X165478458Y-78791455D01*
X165548732Y-78781351D01*
X165603071Y-78802856D01*
X165692316Y-78865346D01*
X165875686Y-78944698D01*
X166071266Y-78985556D01*
X166076122Y-78985811D01*
X166076161Y-78985813D01*
X166076177Y-78985813D01*
X166077829Y-78985900D01*
X167274534Y-78985900D01*
X167303830Y-78982924D01*
X167417034Y-78971426D01*
X167417038Y-78971425D01*
X167423380Y-78970781D01*
X167429465Y-78968874D01*
X167429470Y-78968873D01*
X167605509Y-78913705D01*
X167676494Y-78912421D01*
X167687416Y-78915956D01*
X167789284Y-78954145D01*
X167851466Y-78960900D01*
X169247734Y-78960900D01*
X169309916Y-78954145D01*
X169446305Y-78903015D01*
X169562861Y-78815661D01*
X169650215Y-78699105D01*
X169701345Y-78562716D01*
X169708100Y-78500534D01*
X169708100Y-77504266D01*
X169701345Y-77442084D01*
X169650215Y-77305695D01*
X169562861Y-77189139D01*
X169545495Y-77176124D01*
X169448228Y-77103226D01*
X169405713Y-77046367D01*
X169400687Y-76975548D01*
X169434747Y-76913255D01*
X169448228Y-76901574D01*
X169555680Y-76821043D01*
X169555681Y-76821042D01*
X169562861Y-76815661D01*
X169650215Y-76699105D01*
X169701345Y-76562716D01*
X169708100Y-76500534D01*
X169708100Y-75504266D01*
X169701345Y-75442084D01*
X169650215Y-75305695D01*
X169562861Y-75189139D01*
X169458406Y-75110854D01*
X169448228Y-75103226D01*
X169405713Y-75046367D01*
X169400687Y-74975548D01*
X169434747Y-74913255D01*
X169448228Y-74901574D01*
X169555680Y-74821043D01*
X169555681Y-74821042D01*
X169562861Y-74815661D01*
X169650215Y-74699105D01*
X169701345Y-74562716D01*
X169708100Y-74500534D01*
X169708100Y-73504266D01*
X169701345Y-73442084D01*
X169650215Y-73305695D01*
X169562861Y-73189139D01*
X169555680Y-73183757D01*
X169448228Y-73103226D01*
X169405713Y-73046367D01*
X169400687Y-72975548D01*
X169434747Y-72913255D01*
X169448228Y-72901574D01*
X169555680Y-72821043D01*
X169555681Y-72821042D01*
X169562861Y-72815661D01*
X169650215Y-72699105D01*
X169701345Y-72562716D01*
X169708100Y-72500534D01*
X169708100Y-71504266D01*
X169701345Y-71442084D01*
X169650215Y-71305695D01*
X169562861Y-71189139D01*
X169477733Y-71125339D01*
X169448228Y-71103226D01*
X169405713Y-71046367D01*
X169400687Y-70975548D01*
X169434747Y-70913255D01*
X169448228Y-70901574D01*
X169555680Y-70821043D01*
X169555681Y-70821042D01*
X169562861Y-70815661D01*
X169650215Y-70699105D01*
X169701345Y-70562716D01*
X169708100Y-70500534D01*
X169708100Y-69504266D01*
X169701345Y-69442084D01*
X169650215Y-69305695D01*
X169562861Y-69189139D01*
X169446305Y-69101785D01*
X169309916Y-69050655D01*
X169247734Y-69043900D01*
X167851466Y-69043900D01*
X167789284Y-69050655D01*
X167682789Y-69090578D01*
X167611984Y-69095761D01*
X167588520Y-69088233D01*
X167529374Y-69062638D01*
X167529375Y-69062638D01*
X167523514Y-69060102D01*
X167327934Y-69019244D01*
X167323078Y-69018989D01*
X167323039Y-69018987D01*
X167323023Y-69018987D01*
X167321371Y-69018900D01*
X166124666Y-69018900D01*
X166111533Y-69020234D01*
X165982166Y-69033374D01*
X165982162Y-69033375D01*
X165975820Y-69034019D01*
X165884498Y-69062638D01*
X165791251Y-69091860D01*
X165791250Y-69091861D01*
X165785160Y-69093769D01*
X165779578Y-69096863D01*
X165779576Y-69096864D01*
X165615992Y-69187540D01*
X165615990Y-69187541D01*
X165610409Y-69190635D01*
X165605562Y-69194790D01*
X165602711Y-69196771D01*
X165535358Y-69219225D01*
X165466558Y-69201700D01*
X165418155Y-69149761D01*
X165404800Y-69093307D01*
X165404800Y-64648703D01*
X167588143Y-64648703D01*
X167625668Y-64933734D01*
X167701529Y-65211036D01*
X167814323Y-65475476D01*
X167961961Y-65722161D01*
X168141713Y-65946528D01*
X168350251Y-66144423D01*
X168583717Y-66312186D01*
X168587512Y-66314195D01*
X168587513Y-66314196D01*
X168609269Y-66325715D01*
X168837792Y-66446712D01*
X169107773Y-66545511D01*
X169388664Y-66606755D01*
X169417241Y-66609004D01*
X169611682Y-66624307D01*
X169611691Y-66624307D01*
X169614139Y-66624500D01*
X169769671Y-66624500D01*
X169771807Y-66624354D01*
X169771818Y-66624354D01*
X169979948Y-66610165D01*
X169979954Y-66610164D01*
X169984225Y-66609873D01*
X169988420Y-66609004D01*
X169988422Y-66609004D01*
X170124984Y-66580723D01*
X170265742Y-66551574D01*
X170536743Y-66455607D01*
X170792212Y-66323750D01*
X170795713Y-66321289D01*
X170795717Y-66321287D01*
X170909818Y-66241095D01*
X171027423Y-66158441D01*
X171238022Y-65962740D01*
X171420113Y-65740268D01*
X171570327Y-65495142D01*
X171685883Y-65231898D01*
X171764644Y-64955406D01*
X171805151Y-64670784D01*
X171805245Y-64652951D01*
X171806635Y-64387583D01*
X171806635Y-64387576D01*
X171806657Y-64383297D01*
X171769132Y-64098266D01*
X171693271Y-63820964D01*
X171580477Y-63556524D01*
X171432839Y-63309839D01*
X171253087Y-63085472D01*
X171044549Y-62887577D01*
X170811083Y-62719814D01*
X170789243Y-62708250D01*
X170766054Y-62695972D01*
X170557008Y-62585288D01*
X170287027Y-62486489D01*
X170006136Y-62425245D01*
X169975085Y-62422801D01*
X169783118Y-62407693D01*
X169783109Y-62407693D01*
X169780661Y-62407500D01*
X169625129Y-62407500D01*
X169622993Y-62407646D01*
X169622982Y-62407646D01*
X169414852Y-62421835D01*
X169414846Y-62421836D01*
X169410575Y-62422127D01*
X169406380Y-62422996D01*
X169406378Y-62422996D01*
X169269816Y-62451277D01*
X169129058Y-62480426D01*
X168858057Y-62576393D01*
X168602588Y-62708250D01*
X168599087Y-62710711D01*
X168599083Y-62710713D01*
X168588994Y-62717804D01*
X168367377Y-62873559D01*
X168156778Y-63069260D01*
X167974687Y-63291732D01*
X167824473Y-63536858D01*
X167708917Y-63800102D01*
X167630156Y-64076594D01*
X167589649Y-64361216D01*
X167589627Y-64365505D01*
X167589626Y-64365512D01*
X167588165Y-64644417D01*
X167588143Y-64648703D01*
X165404800Y-64648703D01*
X165404800Y-61644800D01*
X165424802Y-61576679D01*
X165478458Y-61530186D01*
X165530800Y-61518800D01*
X173864000Y-61518800D01*
X173932121Y-61538802D01*
G37*
%TD.AperFunction*%
%TD*%
M02*
