%FSLAX45Y45*%
G04 Gerber Fmt 4.5, Leading zero omitted, Abs format (unit mm)*
G04 Created by KiCad (PCBNEW (6.0.2-0)) date 2022-05-31 21:56:34*
%MOMM*%
%LPD*%
G01*
G04 APERTURE LIST*
%TA.AperFunction,Profile*%
%ADD10C,0.100000*%
%TD*%
%ADD11C,0.200000*%
%ADD12C,0.320000*%
G04 APERTURE END LIST*
D10*
X17449800Y-6101080D02*
X17449800Y-9636760D01*
X17449800Y-9636760D02*
X13853160Y-9636760D01*
X16489680Y-8549640D02*
X14813280Y-8549640D01*
X13853160Y-9636760D02*
X13853160Y-6101080D01*
X16489680Y-6101080D02*
X17449800Y-6101080D01*
X14813280Y-8549640D02*
X14813280Y-6101080D01*
X14813280Y-6101080D02*
X13853160Y-6101080D01*
X16489680Y-6101080D02*
X16489680Y-8549640D01*
D11*
D12*
X14173220Y-6291600D02*
X14493220Y-6611600D01*
X14493220Y-6291600D02*
X14173220Y-6611600D01*
X14173220Y-9126240D02*
X14493220Y-9446240D01*
X14493220Y-9126240D02*
X14173220Y-9446240D01*
X16809740Y-6291600D02*
X17129740Y-6611600D01*
X17129740Y-6291600D02*
X16809740Y-6611600D01*
X16809740Y-9126240D02*
X17129740Y-9446240D01*
X17129740Y-9126240D02*
X16809740Y-9446240D01*
D11*
X14105779Y-9952236D02*
X14105779Y-9752236D01*
X14153398Y-9752236D01*
X14181969Y-9761760D01*
X14201017Y-9780808D01*
X14210541Y-9799855D01*
X14220065Y-9837950D01*
X14220065Y-9866522D01*
X14210541Y-9904617D01*
X14201017Y-9923665D01*
X14181969Y-9942712D01*
X14153398Y-9952236D01*
X14105779Y-9952236D01*
X14305779Y-9952236D02*
X14305779Y-9818903D01*
X14305779Y-9856998D02*
X14315303Y-9837950D01*
X14324827Y-9828427D01*
X14343874Y-9818903D01*
X14362922Y-9818903D01*
X14429588Y-9952236D02*
X14429588Y-9818903D01*
X14429588Y-9752236D02*
X14420065Y-9761760D01*
X14429588Y-9771284D01*
X14439112Y-9761760D01*
X14429588Y-9752236D01*
X14429588Y-9771284D01*
X14553398Y-9952236D02*
X14534350Y-9942712D01*
X14524827Y-9923665D01*
X14524827Y-9752236D01*
X14658160Y-9952236D02*
X14639112Y-9942712D01*
X14629588Y-9923665D01*
X14629588Y-9752236D01*
X14886731Y-9952236D02*
X14886731Y-9752236D01*
X14953398Y-9895093D01*
X15020065Y-9752236D01*
X15020065Y-9952236D01*
X15201017Y-9952236D02*
X15201017Y-9847474D01*
X15191493Y-9828427D01*
X15172446Y-9818903D01*
X15134350Y-9818903D01*
X15115303Y-9828427D01*
X15201017Y-9942712D02*
X15181969Y-9952236D01*
X15134350Y-9952236D01*
X15115303Y-9942712D01*
X15105779Y-9923665D01*
X15105779Y-9904617D01*
X15115303Y-9885570D01*
X15134350Y-9876046D01*
X15181969Y-9876046D01*
X15201017Y-9866522D01*
X15296255Y-9818903D02*
X15296255Y-10018903D01*
X15296255Y-9828427D02*
X15315303Y-9818903D01*
X15353398Y-9818903D01*
X15372446Y-9828427D01*
X15381969Y-9837950D01*
X15391493Y-9856998D01*
X15391493Y-9914141D01*
X15381969Y-9933189D01*
X15372446Y-9942712D01*
X15353398Y-9952236D01*
X15315303Y-9952236D01*
X15296255Y-9942712D01*
X15477208Y-9933189D02*
X15486731Y-9942712D01*
X15477208Y-9952236D01*
X15467684Y-9942712D01*
X15477208Y-9933189D01*
X15477208Y-9952236D01*
X15477208Y-9828427D02*
X15486731Y-9837950D01*
X15477208Y-9847474D01*
X15467684Y-9837950D01*
X15477208Y-9828427D01*
X15477208Y-9847474D01*
X13648160Y-10181760D02*
X13848160Y-10381760D01*
X13848160Y-10181760D02*
X13648160Y-10381760D01*
X14086731Y-10172236D02*
X14210541Y-10172236D01*
X14143874Y-10248427D01*
X14172446Y-10248427D01*
X14191493Y-10257950D01*
X14201017Y-10267474D01*
X14210541Y-10286522D01*
X14210541Y-10334141D01*
X14201017Y-10353189D01*
X14191493Y-10362712D01*
X14172446Y-10372236D01*
X14115303Y-10372236D01*
X14096255Y-10362712D01*
X14086731Y-10353189D01*
X14296255Y-10353189D02*
X14305779Y-10362712D01*
X14296255Y-10372236D01*
X14286731Y-10362712D01*
X14296255Y-10353189D01*
X14296255Y-10372236D01*
X14381969Y-10191284D02*
X14391493Y-10181760D01*
X14410541Y-10172236D01*
X14458160Y-10172236D01*
X14477208Y-10181760D01*
X14486731Y-10191284D01*
X14496255Y-10210331D01*
X14496255Y-10229379D01*
X14486731Y-10257950D01*
X14372446Y-10372236D01*
X14496255Y-10372236D01*
X14620065Y-10172236D02*
X14639112Y-10172236D01*
X14658160Y-10181760D01*
X14667684Y-10191284D01*
X14677208Y-10210331D01*
X14686731Y-10248427D01*
X14686731Y-10296046D01*
X14677208Y-10334141D01*
X14667684Y-10353189D01*
X14658160Y-10362712D01*
X14639112Y-10372236D01*
X14620065Y-10372236D01*
X14601017Y-10362712D01*
X14591493Y-10353189D01*
X14581969Y-10334141D01*
X14572446Y-10296046D01*
X14572446Y-10248427D01*
X14581969Y-10210331D01*
X14591493Y-10191284D01*
X14601017Y-10181760D01*
X14620065Y-10172236D01*
X14810541Y-10172236D02*
X14829588Y-10172236D01*
X14848636Y-10181760D01*
X14858160Y-10191284D01*
X14867684Y-10210331D01*
X14877208Y-10248427D01*
X14877208Y-10296046D01*
X14867684Y-10334141D01*
X14858160Y-10353189D01*
X14848636Y-10362712D01*
X14829588Y-10372236D01*
X14810541Y-10372236D01*
X14791493Y-10362712D01*
X14781969Y-10353189D01*
X14772446Y-10334141D01*
X14762922Y-10296046D01*
X14762922Y-10248427D01*
X14772446Y-10210331D01*
X14781969Y-10191284D01*
X14791493Y-10181760D01*
X14810541Y-10172236D01*
X14962922Y-10372236D02*
X14962922Y-10238903D01*
X14962922Y-10257950D02*
X14972446Y-10248427D01*
X14991493Y-10238903D01*
X15020065Y-10238903D01*
X15039112Y-10248427D01*
X15048636Y-10267474D01*
X15048636Y-10372236D01*
X15048636Y-10267474D02*
X15058160Y-10248427D01*
X15077208Y-10238903D01*
X15105779Y-10238903D01*
X15124827Y-10248427D01*
X15134350Y-10267474D01*
X15134350Y-10372236D01*
X15229588Y-10372236D02*
X15229588Y-10238903D01*
X15229588Y-10257950D02*
X15239112Y-10248427D01*
X15258160Y-10238903D01*
X15286731Y-10238903D01*
X15305779Y-10248427D01*
X15315303Y-10267474D01*
X15315303Y-10372236D01*
X15315303Y-10267474D02*
X15324827Y-10248427D01*
X15343874Y-10238903D01*
X15372446Y-10238903D01*
X15391493Y-10248427D01*
X15401017Y-10267474D01*
X15401017Y-10372236D01*
X15791493Y-10162712D02*
X15620065Y-10419855D01*
X16048636Y-10172236D02*
X16067684Y-10172236D01*
X16086731Y-10181760D01*
X16096255Y-10191284D01*
X16105779Y-10210331D01*
X16115303Y-10248427D01*
X16115303Y-10296046D01*
X16105779Y-10334141D01*
X16096255Y-10353189D01*
X16086731Y-10362712D01*
X16067684Y-10372236D01*
X16048636Y-10372236D01*
X16029588Y-10362712D01*
X16020065Y-10353189D01*
X16010541Y-10334141D01*
X16001017Y-10296046D01*
X16001017Y-10248427D01*
X16010541Y-10210331D01*
X16020065Y-10191284D01*
X16029588Y-10181760D01*
X16048636Y-10172236D01*
X16201017Y-10353189D02*
X16210541Y-10362712D01*
X16201017Y-10372236D01*
X16191493Y-10362712D01*
X16201017Y-10353189D01*
X16201017Y-10372236D01*
X16401017Y-10372236D02*
X16286731Y-10372236D01*
X16343874Y-10372236D02*
X16343874Y-10172236D01*
X16324827Y-10200808D01*
X16305779Y-10219855D01*
X16286731Y-10229379D01*
X16477208Y-10191284D02*
X16486731Y-10181760D01*
X16505779Y-10172236D01*
X16553398Y-10172236D01*
X16572446Y-10181760D01*
X16581969Y-10191284D01*
X16591493Y-10210331D01*
X16591493Y-10229379D01*
X16581969Y-10257950D01*
X16467684Y-10372236D01*
X16591493Y-10372236D01*
X16762922Y-10172236D02*
X16724827Y-10172236D01*
X16705779Y-10181760D01*
X16696255Y-10191284D01*
X16677208Y-10219855D01*
X16667684Y-10257950D01*
X16667684Y-10334141D01*
X16677208Y-10353189D01*
X16686731Y-10362712D01*
X16705779Y-10372236D01*
X16743874Y-10372236D01*
X16762922Y-10362712D01*
X16772446Y-10353189D01*
X16781970Y-10334141D01*
X16781970Y-10286522D01*
X16772446Y-10267474D01*
X16762922Y-10257950D01*
X16743874Y-10248427D01*
X16705779Y-10248427D01*
X16686731Y-10257950D01*
X16677208Y-10267474D01*
X16667684Y-10286522D01*
X16905779Y-10172236D02*
X16924827Y-10172236D01*
X16943874Y-10181760D01*
X16953398Y-10191284D01*
X16962922Y-10210331D01*
X16972446Y-10248427D01*
X16972446Y-10296046D01*
X16962922Y-10334141D01*
X16953398Y-10353189D01*
X16943874Y-10362712D01*
X16924827Y-10372236D01*
X16905779Y-10372236D01*
X16886731Y-10362712D01*
X16877208Y-10353189D01*
X16867684Y-10334141D01*
X16858160Y-10296046D01*
X16858160Y-10248427D01*
X16867684Y-10210331D01*
X16877208Y-10191284D01*
X16886731Y-10181760D01*
X16905779Y-10172236D01*
X17048636Y-10172236D02*
X17048636Y-10210331D01*
X17124827Y-10172236D02*
X17124827Y-10210331D01*
X17420065Y-10448427D02*
X17410541Y-10438903D01*
X17391493Y-10410331D01*
X17381970Y-10391284D01*
X17372446Y-10362712D01*
X17362922Y-10315093D01*
X17362922Y-10276998D01*
X17372446Y-10229379D01*
X17381970Y-10200808D01*
X17391493Y-10181760D01*
X17410541Y-10153189D01*
X17420065Y-10143665D01*
X17581970Y-10238903D02*
X17581970Y-10372236D01*
X17534350Y-10162712D02*
X17486731Y-10305570D01*
X17610541Y-10305570D01*
X17839112Y-10372236D02*
X17839112Y-10172236D01*
X17924827Y-10372236D02*
X17924827Y-10267474D01*
X17915303Y-10248427D01*
X17896255Y-10238903D01*
X17867684Y-10238903D01*
X17848636Y-10248427D01*
X17839112Y-10257950D01*
X18048636Y-10372236D02*
X18029589Y-10362712D01*
X18020065Y-10353189D01*
X18010541Y-10334141D01*
X18010541Y-10276998D01*
X18020065Y-10257950D01*
X18029589Y-10248427D01*
X18048636Y-10238903D01*
X18077208Y-10238903D01*
X18096255Y-10248427D01*
X18105779Y-10257950D01*
X18115303Y-10276998D01*
X18115303Y-10334141D01*
X18105779Y-10353189D01*
X18096255Y-10362712D01*
X18077208Y-10372236D01*
X18048636Y-10372236D01*
X18229589Y-10372236D02*
X18210541Y-10362712D01*
X18201017Y-10343665D01*
X18201017Y-10172236D01*
X18381970Y-10362712D02*
X18362922Y-10372236D01*
X18324827Y-10372236D01*
X18305779Y-10362712D01*
X18296255Y-10343665D01*
X18296255Y-10267474D01*
X18305779Y-10248427D01*
X18324827Y-10238903D01*
X18362922Y-10238903D01*
X18381970Y-10248427D01*
X18391493Y-10267474D01*
X18391493Y-10286522D01*
X18296255Y-10305570D01*
X18467684Y-10362712D02*
X18486731Y-10372236D01*
X18524827Y-10372236D01*
X18543874Y-10362712D01*
X18553398Y-10343665D01*
X18553398Y-10334141D01*
X18543874Y-10315093D01*
X18524827Y-10305570D01*
X18496255Y-10305570D01*
X18477208Y-10296046D01*
X18467684Y-10276998D01*
X18467684Y-10267474D01*
X18477208Y-10248427D01*
X18496255Y-10238903D01*
X18524827Y-10238903D01*
X18543874Y-10248427D01*
X18620065Y-10448427D02*
X18629589Y-10438903D01*
X18648636Y-10410331D01*
X18658160Y-10391284D01*
X18667684Y-10362712D01*
X18677208Y-10315093D01*
X18677208Y-10276998D01*
X18667684Y-10229379D01*
X18658160Y-10200808D01*
X18648636Y-10181760D01*
X18629589Y-10153189D01*
X18620065Y-10143665D01*
X18981970Y-10448427D02*
X18972446Y-10438903D01*
X18953398Y-10410331D01*
X18943874Y-10391284D01*
X18934350Y-10362712D01*
X18924827Y-10315093D01*
X18924827Y-10276998D01*
X18934350Y-10229379D01*
X18943874Y-10200808D01*
X18953398Y-10181760D01*
X18972446Y-10153189D01*
X18981970Y-10143665D01*
X19058160Y-10238903D02*
X19058160Y-10372236D01*
X19058160Y-10257950D02*
X19067684Y-10248427D01*
X19086731Y-10238903D01*
X19115303Y-10238903D01*
X19134350Y-10248427D01*
X19143874Y-10267474D01*
X19143874Y-10372236D01*
X19267684Y-10372236D02*
X19248636Y-10362712D01*
X19239112Y-10353189D01*
X19229589Y-10334141D01*
X19229589Y-10276998D01*
X19239112Y-10257950D01*
X19248636Y-10248427D01*
X19267684Y-10238903D01*
X19296255Y-10238903D01*
X19315303Y-10248427D01*
X19324827Y-10257950D01*
X19334350Y-10276998D01*
X19334350Y-10334141D01*
X19324827Y-10353189D01*
X19315303Y-10362712D01*
X19296255Y-10372236D01*
X19267684Y-10372236D01*
X19391493Y-10238903D02*
X19467684Y-10238903D01*
X19420065Y-10172236D02*
X19420065Y-10343665D01*
X19429589Y-10362712D01*
X19448636Y-10372236D01*
X19467684Y-10372236D01*
X19686731Y-10238903D02*
X19686731Y-10438903D01*
X19686731Y-10248427D02*
X19705779Y-10238903D01*
X19743874Y-10238903D01*
X19762922Y-10248427D01*
X19772446Y-10257950D01*
X19781970Y-10276998D01*
X19781970Y-10334141D01*
X19772446Y-10353189D01*
X19762922Y-10362712D01*
X19743874Y-10372236D01*
X19705779Y-10372236D01*
X19686731Y-10362712D01*
X19896255Y-10372236D02*
X19877208Y-10362712D01*
X19867684Y-10343665D01*
X19867684Y-10172236D01*
X20058160Y-10372236D02*
X20058160Y-10267474D01*
X20048636Y-10248427D01*
X20029589Y-10238903D01*
X19991493Y-10238903D01*
X19972446Y-10248427D01*
X20058160Y-10362712D02*
X20039112Y-10372236D01*
X19991493Y-10372236D01*
X19972446Y-10362712D01*
X19962922Y-10343665D01*
X19962922Y-10324617D01*
X19972446Y-10305570D01*
X19991493Y-10296046D01*
X20039112Y-10296046D01*
X20058160Y-10286522D01*
X20124827Y-10238903D02*
X20201017Y-10238903D01*
X20153398Y-10172236D02*
X20153398Y-10343665D01*
X20162922Y-10362712D01*
X20181970Y-10372236D01*
X20201017Y-10372236D01*
X20343874Y-10362712D02*
X20324827Y-10372236D01*
X20286731Y-10372236D01*
X20267684Y-10362712D01*
X20258160Y-10343665D01*
X20258160Y-10267474D01*
X20267684Y-10248427D01*
X20286731Y-10238903D01*
X20324827Y-10238903D01*
X20343874Y-10248427D01*
X20353398Y-10267474D01*
X20353398Y-10286522D01*
X20258160Y-10305570D01*
X20524827Y-10372236D02*
X20524827Y-10172236D01*
X20524827Y-10362712D02*
X20505779Y-10372236D01*
X20467684Y-10372236D01*
X20448636Y-10362712D01*
X20439112Y-10353189D01*
X20429589Y-10334141D01*
X20429589Y-10276998D01*
X20439112Y-10257950D01*
X20448636Y-10248427D01*
X20467684Y-10238903D01*
X20505779Y-10238903D01*
X20524827Y-10248427D01*
X20601017Y-10448427D02*
X20610541Y-10438903D01*
X20629589Y-10410331D01*
X20639112Y-10391284D01*
X20648636Y-10362712D01*
X20658160Y-10315093D01*
X20658160Y-10276998D01*
X20648636Y-10229379D01*
X20639112Y-10200808D01*
X20629589Y-10181760D01*
X20610541Y-10153189D01*
X20601017Y-10143665D01*
M02*
