%TF.GenerationSoftware,KiCad,Pcbnew,(6.0.2-0)*%
%TF.CreationDate,2022-06-01T12:35:39-04:00*%
%TF.ProjectId,hitclips_2040,68697463-6c69-4707-935f-323034302e6b,rev?*%
%TF.SameCoordinates,Original*%
%TF.FileFunction,Copper,L1,Top*%
%TF.FilePolarity,Positive*%
%FSLAX46Y46*%
G04 Gerber Fmt 4.6, Leading zero omitted, Abs format (unit mm)*
G04 Created by KiCad (PCBNEW (6.0.2-0)) date 2022-06-01 12:35:39*
%MOMM*%
%LPD*%
G01*
G04 APERTURE LIST*
G04 Aperture macros list*
%AMRoundRect*
0 Rectangle with rounded corners*
0 $1 Rounding radius*
0 $2 $3 $4 $5 $6 $7 $8 $9 X,Y pos of 4 corners*
0 Add a 4 corners polygon primitive as box body*
4,1,4,$2,$3,$4,$5,$6,$7,$8,$9,$2,$3,0*
0 Add four circle primitives for the rounded corners*
1,1,$1+$1,$2,$3*
1,1,$1+$1,$4,$5*
1,1,$1+$1,$6,$7*
1,1,$1+$1,$8,$9*
0 Add four rect primitives between the rounded corners*
20,1,$1+$1,$2,$3,$4,$5,0*
20,1,$1+$1,$4,$5,$6,$7,0*
20,1,$1+$1,$6,$7,$8,$9,0*
20,1,$1+$1,$8,$9,$2,$3,0*%
G04 Aperture macros list end*
%TA.AperFunction,SMDPad,CuDef*%
%ADD10RoundRect,0.150000X-0.650000X-0.150000X0.650000X-0.150000X0.650000X0.150000X-0.650000X0.150000X0*%
%TD*%
%TA.AperFunction,SMDPad,CuDef*%
%ADD11RoundRect,0.140000X-0.140000X-0.170000X0.140000X-0.170000X0.140000X0.170000X-0.140000X0.170000X0*%
%TD*%
%TA.AperFunction,SMDPad,CuDef*%
%ADD12RoundRect,0.140000X0.170000X-0.140000X0.170000X0.140000X-0.170000X0.140000X-0.170000X-0.140000X0*%
%TD*%
%TA.AperFunction,SMDPad,CuDef*%
%ADD13RoundRect,0.135000X-0.185000X0.135000X-0.185000X-0.135000X0.185000X-0.135000X0.185000X0.135000X0*%
%TD*%
%TA.AperFunction,SMDPad,CuDef*%
%ADD14RoundRect,0.135000X0.185000X-0.135000X0.185000X0.135000X-0.185000X0.135000X-0.185000X-0.135000X0*%
%TD*%
%TA.AperFunction,SMDPad,CuDef*%
%ADD15RoundRect,0.140000X0.140000X0.170000X-0.140000X0.170000X-0.140000X-0.170000X0.140000X-0.170000X0*%
%TD*%
%TA.AperFunction,SMDPad,CuDef*%
%ADD16R,0.510000X0.700000*%
%TD*%
%TA.AperFunction,SMDPad,CuDef*%
%ADD17R,1.400000X1.200000*%
%TD*%
%TA.AperFunction,ComponentPad*%
%ADD18R,1.350000X1.350000*%
%TD*%
%TA.AperFunction,SMDPad,CuDef*%
%ADD19RoundRect,0.140000X-0.170000X0.140000X-0.170000X-0.140000X0.170000X-0.140000X0.170000X0.140000X0*%
%TD*%
%TA.AperFunction,SMDPad,CuDef*%
%ADD20RoundRect,0.050000X-0.387500X-0.050000X0.387500X-0.050000X0.387500X0.050000X-0.387500X0.050000X0*%
%TD*%
%TA.AperFunction,SMDPad,CuDef*%
%ADD21RoundRect,0.050000X-0.050000X-0.387500X0.050000X-0.387500X0.050000X0.387500X-0.050000X0.387500X0*%
%TD*%
%TA.AperFunction,SMDPad,CuDef*%
%ADD22RoundRect,0.144000X-1.456000X-1.456000X1.456000X-1.456000X1.456000X1.456000X-1.456000X1.456000X0*%
%TD*%
%TA.AperFunction,ComponentPad*%
%ADD23C,0.600000*%
%TD*%
%TA.AperFunction,SMDPad,CuDef*%
%ADD24R,0.300000X0.800000*%
%TD*%
%TA.AperFunction,ViaPad*%
%ADD25C,0.800000*%
%TD*%
%TA.AperFunction,Conductor*%
%ADD26C,0.400000*%
%TD*%
%TA.AperFunction,Conductor*%
%ADD27C,0.200000*%
%TD*%
%TA.AperFunction,Conductor*%
%ADD28C,0.130000*%
%TD*%
%TA.AperFunction,Conductor*%
%ADD29C,0.600000*%
%TD*%
G04 APERTURE END LIST*
D10*
%TO.P,U2,1,~{CS}*%
%TO.N,QSPI_SS*%
X118320000Y-71247000D03*
%TO.P,U2,2,DO(IO1)*%
%TO.N,QSPI_SD1*%
X118320000Y-72517000D03*
%TO.P,U2,3,IO2*%
%TO.N,QSPI_SD2*%
X118320000Y-73787000D03*
%TO.P,U2,4,GND*%
%TO.N,GND*%
X118320000Y-75057000D03*
%TO.P,U2,5,DI(IO0)*%
%TO.N,QSPI_SD0*%
X125520000Y-75057000D03*
%TO.P,U2,6,CLK*%
%TO.N,QSPI_CLK*%
X125520000Y-73787000D03*
%TO.P,U2,7,IO3*%
%TO.N,QSPI_SD3*%
X125520000Y-72517000D03*
%TO.P,U2,8,VCC*%
%TO.N,+3V3*%
X125520000Y-71247000D03*
%TD*%
D11*
%TO.P,C14,1*%
%TO.N,+3V3*%
X127508000Y-70866000D03*
%TO.P,C14,2*%
%TO.N,GND*%
X128468000Y-70866000D03*
%TD*%
D12*
%TO.P,C9,1*%
%TO.N,+3V3*%
X116713000Y-81506000D03*
%TO.P,C9,2*%
%TO.N,GND*%
X116713000Y-80546000D03*
%TD*%
D13*
%TO.P,R3,1*%
%TO.N,+3V3*%
X127508000Y-72134000D03*
%TO.P,R3,2*%
%TO.N,QSPI_SS*%
X127508000Y-73154000D03*
%TD*%
%TO.P,R5,1*%
%TO.N,Net-(C16-Pad2)*%
X132334000Y-83310000D03*
%TO.P,R5,2*%
%TO.N,XOUT*%
X132334000Y-84330000D03*
%TD*%
D14*
%TO.P,R1,1*%
%TO.N,Net-(R1-Pad1)*%
X122123200Y-77522800D03*
%TO.P,R1,2*%
%TO.N,USB_D+*%
X122123200Y-76502800D03*
%TD*%
D12*
%TO.P,C11,1*%
%TO.N,+1V1*%
X119380000Y-77950000D03*
%TO.P,C11,2*%
%TO.N,GND*%
X119380000Y-76990000D03*
%TD*%
D11*
%TO.P,C5,1*%
%TO.N,+3V3*%
X127028000Y-81026000D03*
%TO.P,C5,2*%
%TO.N,GND*%
X127988000Y-81026000D03*
%TD*%
D15*
%TO.P,C15,1*%
%TO.N,GND*%
X131516000Y-86614000D03*
%TO.P,C15,2*%
%TO.N,XIN*%
X130556000Y-86614000D03*
%TD*%
D16*
%TO.P,U1,1,Vin*%
%TO.N,VBUS*%
X130622000Y-75328000D03*
%TO.P,U1,2,GND*%
%TO.N,GND*%
X131572000Y-75328000D03*
%TO.P,U1,3,En*%
%TO.N,VBUS*%
X132522000Y-75328000D03*
%TO.P,U1,4,NC*%
%TO.N,unconnected-(U1-Pad4)*%
X132522000Y-73008000D03*
%TO.P,U1,5,Vout*%
%TO.N,+3V3*%
X130622000Y-73008000D03*
%TD*%
D12*
%TO.P,C13,1*%
%TO.N,+3V3*%
X125730000Y-77950000D03*
%TO.P,C13,2*%
%TO.N,GND*%
X125730000Y-76990000D03*
%TD*%
D17*
%TO.P,Y1,1,1*%
%TO.N,XIN*%
X128313000Y-84670000D03*
%TO.P,Y1,2,2*%
%TO.N,GND*%
X130513000Y-84670000D03*
%TO.P,Y1,3,3*%
%TO.N,Net-(C16-Pad2)*%
X130513000Y-82970000D03*
%TO.P,Y1,4,4*%
%TO.N,GND*%
X128313000Y-82970000D03*
%TD*%
D18*
%TO.P,J1,1,Pin_1*%
%TO.N,VBUS*%
X115570000Y-72184000D03*
%TO.P,J1,2,Pin_2*%
%TO.N,USB_D-*%
X115570000Y-74184000D03*
%TO.P,J1,3,Pin_3*%
%TO.N,USB_D+*%
X115570000Y-76184000D03*
%TO.P,J1,4,Pin_4*%
%TO.N,GND*%
X115570000Y-78184000D03*
%TD*%
D12*
%TO.P,C7,1*%
%TO.N,+3V3*%
X116713000Y-86586000D03*
%TO.P,C7,2*%
%TO.N,GND*%
X116713000Y-85626000D03*
%TD*%
D11*
%TO.P,C3,1*%
%TO.N,+3V3*%
X127028000Y-78740000D03*
%TO.P,C3,2*%
%TO.N,GND*%
X127988000Y-78740000D03*
%TD*%
D15*
%TO.P,C16,1*%
%TO.N,GND*%
X133068000Y-82169000D03*
%TO.P,C16,2*%
%TO.N,Net-(C16-Pad2)*%
X132108000Y-82169000D03*
%TD*%
D19*
%TO.P,C1,1*%
%TO.N,VBUS*%
X128778000Y-75466000D03*
%TO.P,C1,2*%
%TO.N,GND*%
X128778000Y-76426000D03*
%TD*%
D14*
%TO.P,R2,1*%
%TO.N,Net-(R2-Pad1)*%
X123342400Y-77522800D03*
%TO.P,R2,2*%
%TO.N,USB_D-*%
X123342400Y-76502800D03*
%TD*%
D20*
%TO.P,U3,1,IOVDD*%
%TO.N,+3V3*%
X118482500Y-80458000D03*
%TO.P,U3,2,GPIO0*%
%TO.N,unconnected-(U3-Pad2)*%
X118482500Y-80858000D03*
%TO.P,U3,3,GPIO1*%
%TO.N,unconnected-(U3-Pad3)*%
X118482500Y-81258000D03*
%TO.P,U3,4,GPIO2*%
%TO.N,unconnected-(U3-Pad4)*%
X118482500Y-81658000D03*
%TO.P,U3,5,GPIO3*%
%TO.N,unconnected-(U3-Pad5)*%
X118482500Y-82058000D03*
%TO.P,U3,6,GPIO4*%
%TO.N,unconnected-(U3-Pad6)*%
X118482500Y-82458000D03*
%TO.P,U3,7,GPIO5*%
%TO.N,unconnected-(U3-Pad7)*%
X118482500Y-82858000D03*
%TO.P,U3,8,GPIO6*%
%TO.N,unconnected-(U3-Pad8)*%
X118482500Y-83258000D03*
%TO.P,U3,9,GPIO7*%
%TO.N,unconnected-(U3-Pad9)*%
X118482500Y-83658000D03*
%TO.P,U3,10,IOVDD*%
%TO.N,+3V3*%
X118482500Y-84058000D03*
%TO.P,U3,11,GPIO8*%
%TO.N,unconnected-(U3-Pad11)*%
X118482500Y-84458000D03*
%TO.P,U3,12,GPIO9*%
%TO.N,unconnected-(U3-Pad12)*%
X118482500Y-84858000D03*
%TO.P,U3,13,GPIO10*%
%TO.N,unconnected-(U3-Pad13)*%
X118482500Y-85258000D03*
%TO.P,U3,14,GPIO11*%
%TO.N,unconnected-(U3-Pad14)*%
X118482500Y-85658000D03*
D21*
%TO.P,U3,15,GPIO12*%
%TO.N,unconnected-(U3-Pad15)*%
X119320000Y-86495500D03*
%TO.P,U3,16,GPIO13*%
%TO.N,unconnected-(U3-Pad16)*%
X119720000Y-86495500D03*
%TO.P,U3,17,GPIO14*%
%TO.N,unconnected-(U3-Pad17)*%
X120120000Y-86495500D03*
%TO.P,U3,18,GPIO15*%
%TO.N,unconnected-(U3-Pad18)*%
X120520000Y-86495500D03*
%TO.P,U3,19,TESTEN*%
%TO.N,GND*%
X120920000Y-86495500D03*
%TO.P,U3,20,XIN*%
%TO.N,XIN*%
X121320000Y-86495500D03*
%TO.P,U3,21,XOUT*%
%TO.N,XOUT*%
X121720000Y-86495500D03*
%TO.P,U3,22,IOVDD*%
%TO.N,+3V3*%
X122120000Y-86495500D03*
%TO.P,U3,23,DVDD*%
%TO.N,+1V1*%
X122520000Y-86495500D03*
%TO.P,U3,24,SWCLK*%
%TO.N,unconnected-(U3-Pad24)*%
X122920000Y-86495500D03*
%TO.P,U3,25,SWD*%
%TO.N,unconnected-(U3-Pad25)*%
X123320000Y-86495500D03*
%TO.P,U3,26,RUN*%
%TO.N,unconnected-(U3-Pad26)*%
X123720000Y-86495500D03*
%TO.P,U3,27,GPIO16*%
%TO.N,PLY_TGL*%
X124120000Y-86495500D03*
%TO.P,U3,28,GPIO17*%
%TO.N,DBG*%
X124520000Y-86495500D03*
D20*
%TO.P,U3,29,GPIO18*%
%TO.N,AUD+*%
X125357500Y-85658000D03*
%TO.P,U3,30,GPIO19*%
%TO.N,AUD-*%
X125357500Y-85258000D03*
%TO.P,U3,31,GPIO20*%
%TO.N,unconnected-(U3-Pad31)*%
X125357500Y-84858000D03*
%TO.P,U3,32,GPIO21*%
%TO.N,unconnected-(U3-Pad32)*%
X125357500Y-84458000D03*
%TO.P,U3,33,IOVDD*%
%TO.N,+3V3*%
X125357500Y-84058000D03*
%TO.P,U3,34,GPIO22*%
%TO.N,unconnected-(U3-Pad34)*%
X125357500Y-83658000D03*
%TO.P,U3,35,GPIO23*%
%TO.N,unconnected-(U3-Pad35)*%
X125357500Y-83258000D03*
%TO.P,U3,36,GPIO24*%
%TO.N,unconnected-(U3-Pad36)*%
X125357500Y-82858000D03*
%TO.P,U3,37,GPIO25*%
%TO.N,unconnected-(U3-Pad37)*%
X125357500Y-82458000D03*
%TO.P,U3,38,GPIO26_ADC0*%
%TO.N,unconnected-(U3-Pad38)*%
X125357500Y-82058000D03*
%TO.P,U3,39,GPIO27_ADC1*%
%TO.N,unconnected-(U3-Pad39)*%
X125357500Y-81658000D03*
%TO.P,U3,40,GPIO28_ADC2*%
%TO.N,unconnected-(U3-Pad40)*%
X125357500Y-81258000D03*
%TO.P,U3,41,GPIO29_ADC3*%
%TO.N,unconnected-(U3-Pad41)*%
X125357500Y-80858000D03*
%TO.P,U3,42,IOVDD*%
%TO.N,+3V3*%
X125357500Y-80458000D03*
D21*
%TO.P,U3,43,ADC_AVDD*%
X124520000Y-79620500D03*
%TO.P,U3,44,VREG_IN*%
X124120000Y-79620500D03*
%TO.P,U3,45,VREG_VOUT*%
%TO.N,+1V1*%
X123720000Y-79620500D03*
%TO.P,U3,46,USB_DM*%
%TO.N,Net-(R2-Pad1)*%
X123320000Y-79620500D03*
%TO.P,U3,47,USB_DP*%
%TO.N,Net-(R1-Pad1)*%
X122920000Y-79620500D03*
%TO.P,U3,48,USB_VDD*%
%TO.N,+3V3*%
X122520000Y-79620500D03*
%TO.P,U3,49,IOVDD*%
X122120000Y-79620500D03*
%TO.P,U3,50,DVDD*%
%TO.N,+1V1*%
X121720000Y-79620500D03*
%TO.P,U3,51,QSPI_SD3*%
%TO.N,QSPI_SD3*%
X121320000Y-79620500D03*
%TO.P,U3,52,QSPI_SCLK*%
%TO.N,QSPI_CLK*%
X120920000Y-79620500D03*
%TO.P,U3,53,QSPI_SD0*%
%TO.N,QSPI_SD0*%
X120520000Y-79620500D03*
%TO.P,U3,54,QSPI_SD2*%
%TO.N,QSPI_SD2*%
X120120000Y-79620500D03*
%TO.P,U3,55,QSPI_SD1*%
%TO.N,QSPI_SD1*%
X119720000Y-79620500D03*
%TO.P,U3,56,QSPI_SS*%
%TO.N,QSPI_SS*%
X119320000Y-79620500D03*
D22*
%TO.P,U3,57,GND*%
%TO.N,GND*%
X121920000Y-83058000D03*
D23*
X120645000Y-81783000D03*
X123195000Y-84333000D03*
X121920000Y-84333000D03*
X120645000Y-83058000D03*
X123195000Y-83058000D03*
X121920000Y-83058000D03*
X121920000Y-81783000D03*
X120645000Y-84333000D03*
X123195000Y-81783000D03*
%TD*%
D24*
%TO.P,U5,1,VCCA*%
%TO.N,+3V3*%
X130568000Y-80290000D03*
%TO.P,U5,2,1A*%
%TO.N,AUD+*%
X131068000Y-80290000D03*
%TO.P,U5,3,2A*%
%TO.N,AUD-*%
X131568000Y-80290000D03*
%TO.P,U5,4,GND*%
%TO.N,GND*%
X132068000Y-80290000D03*
%TO.P,U5,5,DIR*%
%TO.N,+3V3*%
X132068000Y-77190000D03*
%TO.P,U5,6,2B*%
%TO.N,AUD_OUT-*%
X131568000Y-77190000D03*
%TO.P,U5,7,1B*%
%TO.N,AUD_OUT+*%
X131068000Y-77190000D03*
%TO.P,U5,8,VCCB*%
%TO.N,VBUS*%
X130568000Y-77190000D03*
%TD*%
D12*
%TO.P,C2,1*%
%TO.N,+3V3*%
X128905000Y-73124000D03*
%TO.P,C2,2*%
%TO.N,GND*%
X128905000Y-72164000D03*
%TD*%
%TO.P,C6,1*%
%TO.N,+3V3*%
X120650000Y-77950000D03*
%TO.P,C6,2*%
%TO.N,GND*%
X120650000Y-76990000D03*
%TD*%
D11*
%TO.P,C4,1*%
%TO.N,+3V3*%
X127028000Y-79756000D03*
%TO.P,C4,2*%
%TO.N,GND*%
X127988000Y-79756000D03*
%TD*%
%TO.P,C10,1*%
%TO.N,+1V1*%
X126746000Y-86614000D03*
%TO.P,C10,2*%
%TO.N,GND*%
X127706000Y-86614000D03*
%TD*%
D12*
%TO.P,C8,1*%
%TO.N,+3V3*%
X116713000Y-84046000D03*
%TO.P,C8,2*%
%TO.N,GND*%
X116713000Y-83086000D03*
%TD*%
D18*
%TO.P,J2,1,Pin_1*%
%TO.N,BOOTSEL*%
X135128000Y-72183800D03*
%TO.P,J2,2,Pin_2*%
%TO.N,PLY_TGL*%
X135128000Y-74183800D03*
%TO.P,J2,3,Pin_3*%
%TO.N,AUD_OUT+*%
X135128000Y-76183800D03*
%TO.P,J2,4,Pin_4*%
%TO.N,AUD_OUT-*%
X135128000Y-78183800D03*
%TO.P,J2,5,Pin_5*%
%TO.N,DBG*%
X135128000Y-80183800D03*
%TD*%
D14*
%TO.P,R4,1*%
%TO.N,BOOTSEL*%
X127508000Y-75440000D03*
%TO.P,R4,2*%
%TO.N,QSPI_SS*%
X127508000Y-74420000D03*
%TD*%
D12*
%TO.P,C12,1*%
%TO.N,+1V1*%
X124460000Y-77950000D03*
%TO.P,C12,2*%
%TO.N,GND*%
X124460000Y-76990000D03*
%TD*%
D25*
%TO.N,GND*%
X119964083Y-72252817D03*
X133376502Y-72898000D03*
X117244011Y-76990000D03*
X119634000Y-85344000D03*
X124640503Y-75920500D03*
X130112619Y-81753630D03*
X129667000Y-71311500D03*
X117244011Y-74676000D03*
X129032000Y-80137000D03*
%TO.N,+3V3*%
X132845755Y-77412502D03*
X120650000Y-78183980D03*
X126326000Y-80458000D03*
X117906800Y-79948630D03*
X125268627Y-79531627D03*
X128403866Y-73473825D03*
X122326400Y-78740000D03*
%TO.N,XIN*%
X119720500Y-83881531D03*
X129540000Y-86805500D03*
%TO.N,BOOTSEL*%
X130810000Y-71882000D03*
%TO.N,PLY_TGL*%
X124332150Y-85430466D03*
X133853486Y-75184000D03*
%TO.N,AUD_OUT+*%
X132909544Y-78959944D03*
X129670315Y-76127500D03*
%TO.N,AUD_OUT-*%
X133731000Y-79629000D03*
X133350000Y-70612000D03*
%TO.N,DBG*%
X125222000Y-86676500D03*
%TO.N,QSPI_SS*%
X120523000Y-70993000D03*
X118546225Y-79155675D03*
%TO.N,XOUT*%
X121999182Y-85462372D03*
X133412500Y-83439000D03*
%TO.N,QSPI_SD1*%
X117365702Y-78632169D03*
X116974356Y-71675982D03*
%TO.N,QSPI_SD2*%
X119560070Y-80648130D03*
X117094000Y-73152000D03*
%TO.N,QSPI_SD0*%
X122248058Y-72393905D03*
X119519500Y-81646807D03*
%TO.N,QSPI_CLK*%
X120983908Y-80842637D03*
X123952000Y-72581500D03*
%TO.N,QSPI_SD3*%
X123935180Y-81111989D03*
X128905000Y-78421500D03*
%TO.N,AUD+*%
X133096000Y-80772000D03*
X126769269Y-85367269D03*
%TD*%
D26*
%TO.N,VBUS*%
X128916000Y-75328000D02*
X128778000Y-75466000D01*
X130518489Y-75431511D02*
X130518489Y-77190000D01*
X130162680Y-70104000D02*
X116332000Y-70104000D01*
D27*
X130841511Y-75977511D02*
X130622000Y-75758000D01*
X132522000Y-75328000D02*
X132522000Y-75582022D01*
D26*
X116332000Y-70104000D02*
X115770020Y-70665980D01*
X130622000Y-75328000D02*
X128916000Y-75328000D01*
D27*
X132126511Y-75977511D02*
X130841511Y-75977511D01*
D26*
X131826000Y-73604427D02*
X131826000Y-71767320D01*
D27*
X130622000Y-75758000D02*
X130622000Y-75328000D01*
D26*
X131826000Y-71767320D02*
X130162680Y-70104000D01*
X130622000Y-75328000D02*
X130518489Y-75431511D01*
D27*
X132522000Y-75582022D02*
X132126511Y-75977511D01*
D26*
X115770020Y-70665980D02*
X115770020Y-72184000D01*
X130622000Y-74808427D02*
X131826000Y-73604427D01*
X130622000Y-75328000D02*
X130622000Y-74808427D01*
D28*
%TO.N,GND*%
X120920000Y-86013202D02*
X120700278Y-85793480D01*
D26*
X132467160Y-81273840D02*
X132117511Y-80924191D01*
X132688467Y-73757511D02*
X132998489Y-73757511D01*
X127988000Y-79756000D02*
X127988000Y-78740000D01*
X132117511Y-80924191D02*
X132117511Y-80290000D01*
D27*
X129619449Y-77267449D02*
X129619449Y-77955477D01*
X128778000Y-76426000D02*
X129619449Y-77267449D01*
D29*
X130513000Y-84670000D02*
X131516000Y-85673000D01*
D26*
X127988000Y-78740000D02*
X127988000Y-78627004D01*
D27*
X129794000Y-79375000D02*
X129032000Y-80137000D01*
X128440000Y-82970000D02*
X128690000Y-82970000D01*
D26*
X119380000Y-76990000D02*
X116764000Y-76990000D01*
X128905000Y-72164000D02*
X128905000Y-71303000D01*
D27*
X128690000Y-82970000D02*
X130390000Y-84670000D01*
D26*
X115951000Y-84864000D02*
X116713000Y-85626000D01*
X133068000Y-82169000D02*
X133068000Y-81874680D01*
X118627138Y-75057000D02*
X119964083Y-73720055D01*
X115951000Y-83735004D02*
X115951000Y-84864000D01*
X133068000Y-81874680D02*
X132467160Y-81273840D01*
X128905000Y-71303000D02*
X128468000Y-70866000D01*
X116003480Y-81142524D02*
X116003480Y-82376480D01*
X117625011Y-75057000D02*
X117244011Y-74676000D01*
X131572000Y-74873978D02*
X132688467Y-73757511D01*
X131708498Y-81459480D02*
X132281520Y-81459480D01*
D27*
X124640503Y-75920500D02*
X124460000Y-76101003D01*
D26*
X116713000Y-83086000D02*
X116600004Y-83086000D01*
X132998489Y-73757511D02*
X133376502Y-73379498D01*
X116003480Y-82376480D02*
X116713000Y-83086000D01*
X130112619Y-81753630D02*
X131414348Y-81753630D01*
D28*
X119931080Y-85793480D02*
X119634000Y-85496400D01*
D26*
X116713000Y-80546000D02*
X116600004Y-80546000D01*
X118320000Y-75057000D02*
X118627138Y-75057000D01*
X118320000Y-75057000D02*
X117625011Y-75057000D01*
D29*
X131516000Y-85673000D02*
X131516000Y-86614000D01*
D27*
X124460000Y-76101003D02*
X124460000Y-76990000D01*
D26*
X127988000Y-78627004D02*
X126350996Y-76990000D01*
D27*
X129794000Y-78130028D02*
X129794000Y-79375000D01*
D26*
X131572000Y-75328000D02*
X131572000Y-74873978D01*
X116764000Y-76990000D02*
X115770020Y-77983980D01*
X127988000Y-81026000D02*
X127988000Y-79756000D01*
D29*
X127988000Y-79756000D02*
X128651000Y-79756000D01*
D27*
X129619449Y-77955477D02*
X129794000Y-78130028D01*
D26*
X116600004Y-80546000D02*
X116003480Y-81142524D01*
D27*
X127706000Y-86614000D02*
X128597011Y-87505011D01*
D28*
X119634000Y-85496400D02*
X119634000Y-85344000D01*
D26*
X116600004Y-83086000D02*
X115951000Y-83735004D01*
D28*
X120920000Y-86495500D02*
X120920000Y-86013202D01*
D27*
X128597011Y-87505011D02*
X130624989Y-87505011D01*
D26*
X132281520Y-81459480D02*
X132467160Y-81273840D01*
D29*
X116713000Y-80546000D02*
X115870020Y-79703020D01*
D28*
X120700278Y-85793480D02*
X119931080Y-85793480D01*
D26*
X128905000Y-71303000D02*
X129658500Y-71303000D01*
X115770020Y-77983980D02*
X115770020Y-78184000D01*
D29*
X128651000Y-79756000D02*
X129032000Y-80137000D01*
D26*
X133376502Y-73379498D02*
X133376502Y-72898000D01*
X120650000Y-76990000D02*
X119380000Y-76990000D01*
X129658500Y-71303000D02*
X129667000Y-71311500D01*
X126350996Y-76990000D02*
X125730000Y-76990000D01*
X131414348Y-81753630D02*
X131708498Y-81459480D01*
D27*
X130624989Y-87505011D02*
X131516000Y-86614000D01*
D29*
X115870020Y-79703020D02*
X115870020Y-78184000D01*
D26*
X119964083Y-73720055D02*
X119964083Y-72252817D01*
%TO.N,+3V3*%
X121811920Y-78225520D02*
X122326400Y-78740000D01*
D29*
X125520000Y-71247000D02*
X127127000Y-71247000D01*
D27*
X122120000Y-87027295D02*
X121771295Y-87376000D01*
D26*
X116713000Y-86586000D02*
X116953677Y-86586000D01*
D27*
X126520489Y-83426806D02*
X126520489Y-81533511D01*
X122120000Y-86495500D02*
X122120000Y-87027295D01*
D26*
X127508000Y-72134000D02*
X127802004Y-72134000D01*
X120650000Y-78183980D02*
X120691540Y-78225520D01*
D27*
X132845755Y-77412502D02*
X132290502Y-77412502D01*
X122120000Y-79620500D02*
X122120000Y-78946400D01*
D26*
X116825996Y-84046000D02*
X117475000Y-83396996D01*
X116713000Y-84046000D02*
X116825996Y-84046000D01*
D27*
X125357500Y-84058000D02*
X125889295Y-84058000D01*
D26*
X117475000Y-84808000D02*
X116713000Y-84046000D01*
X117475000Y-86064677D02*
X117475000Y-84808000D01*
D27*
X118482500Y-80458000D02*
X118416170Y-80458000D01*
X122520000Y-78933600D02*
X122326400Y-78740000D01*
D26*
X126147500Y-79620500D02*
X127028000Y-78740000D01*
X116953677Y-86586000D02*
X117475000Y-86064677D01*
D27*
X124120000Y-79620500D02*
X124120000Y-79080000D01*
X125150480Y-78529520D02*
X125730000Y-77950000D01*
X125889295Y-84058000D02*
X126520489Y-83426806D01*
X120650000Y-78229961D02*
X120650000Y-77950000D01*
D26*
X117475000Y-83396996D02*
X117475000Y-82014000D01*
D27*
X128291002Y-72622998D02*
X128403866Y-72735862D01*
D29*
X127508000Y-70866000D02*
X127508000Y-72134000D01*
D26*
X117906800Y-79948630D02*
X117906800Y-80162400D01*
X117475000Y-82014000D02*
X116967000Y-81506000D01*
D27*
X127028000Y-81026000D02*
X127637520Y-81635520D01*
D26*
X121771295Y-87376000D02*
X117503000Y-87376000D01*
D27*
X126326000Y-80458000D02*
X127028000Y-79756000D01*
D26*
X125357500Y-79620500D02*
X125357500Y-80358480D01*
D27*
X118482500Y-84058000D02*
X116725000Y-84058000D01*
X132290502Y-77412502D02*
X132068000Y-77190000D01*
D28*
X120650000Y-77950000D02*
X120650000Y-78183980D01*
D27*
X128676480Y-81635520D02*
X130022000Y-80290000D01*
X116725000Y-84058000D02*
X116713000Y-84046000D01*
X122120000Y-78946400D02*
X122326400Y-78740000D01*
X122520000Y-79620500D02*
X122520000Y-78933600D01*
D26*
X117503000Y-87376000D02*
X116713000Y-86586000D01*
D27*
X116902705Y-81506000D02*
X116713000Y-81506000D01*
X124120000Y-79080000D02*
X124670480Y-78529520D01*
X118482500Y-80458000D02*
X117950705Y-80458000D01*
X130022000Y-80290000D02*
X130568000Y-80290000D01*
X125357500Y-80458000D02*
X126326000Y-80458000D01*
D26*
X120691540Y-78225520D02*
X121811920Y-78225520D01*
D27*
X127028000Y-81026000D02*
X126894000Y-81026000D01*
D26*
X128291002Y-72622998D02*
X128792004Y-73124000D01*
D27*
X126894000Y-81026000D02*
X126326000Y-80458000D01*
X124670480Y-78529520D02*
X125150480Y-78529520D01*
X118416170Y-80458000D02*
X117906800Y-79948630D01*
X126520489Y-81533511D02*
X127028000Y-81026000D01*
X117950705Y-80458000D02*
X116902705Y-81506000D01*
D29*
X127127000Y-71247000D02*
X127508000Y-70866000D01*
D26*
X124520000Y-79620500D02*
X124219520Y-79620500D01*
X127802004Y-72134000D02*
X128291002Y-72622998D01*
D27*
X127637520Y-81635520D02*
X128676480Y-81635520D01*
D26*
X124520000Y-79620500D02*
X126147500Y-79620500D01*
D29*
X130622000Y-73008000D02*
X129021000Y-73008000D01*
D27*
X128403866Y-72735862D02*
X128403866Y-73473825D01*
D26*
X128792004Y-73124000D02*
X128905000Y-73124000D01*
D29*
X129021000Y-73008000D02*
X128905000Y-73124000D01*
D27*
%TO.N,+1V1*%
X119663781Y-78467480D02*
X119412280Y-78467480D01*
X121720000Y-79620500D02*
X121720000Y-79088705D01*
D28*
X124064680Y-80447478D02*
X124210431Y-80447478D01*
D27*
X119380000Y-78435200D02*
X119380000Y-77950000D01*
X122520000Y-87027295D02*
X122520000Y-86495500D01*
D28*
X122376480Y-80782469D02*
X123230331Y-80782469D01*
X123720000Y-80292800D02*
X123720000Y-79620500D01*
D27*
X123720000Y-78690000D02*
X123720000Y-79620500D01*
X124460000Y-77950000D02*
X123720000Y-78690000D01*
X122868705Y-87376000D02*
X122520000Y-87027295D01*
D28*
X124599691Y-83933511D02*
X122520000Y-86013202D01*
D27*
X126288800Y-87376000D02*
X122868705Y-87376000D01*
X126746000Y-86614000D02*
X126746000Y-86918800D01*
X121720000Y-79088705D02*
X121514775Y-78883480D01*
D28*
X123755480Y-80010000D02*
X123755480Y-80116815D01*
D27*
X119412280Y-78467480D02*
X119380000Y-78435200D01*
X121514775Y-78883480D02*
X120079781Y-78883480D01*
D28*
X122520000Y-86013202D02*
X122520000Y-86495500D01*
D27*
X126746000Y-86918800D02*
X126288800Y-87376000D01*
X120079781Y-78883480D02*
X119663781Y-78467480D01*
D28*
X121720000Y-79620500D02*
X121720000Y-80125989D01*
X123720000Y-79620500D02*
X123720000Y-80102798D01*
X124210431Y-80447478D02*
X124599691Y-80836738D01*
X121720000Y-80125989D02*
X122376480Y-80782469D01*
X123230331Y-80782469D02*
X123720000Y-80292800D01*
X123720000Y-80102798D02*
X124064680Y-80447478D01*
X124599691Y-80836738D02*
X124599691Y-83933511D01*
%TO.N,XIN*%
X120836770Y-85463960D02*
X121320000Y-85947190D01*
D27*
X129731500Y-86614000D02*
X129540000Y-86805500D01*
D28*
X119720500Y-84348234D02*
X120836226Y-85463960D01*
D27*
X128612000Y-84670000D02*
X128440000Y-84670000D01*
D28*
X119720500Y-83881531D02*
X119720500Y-84348234D01*
X121320000Y-85947190D02*
X121320000Y-86495500D01*
X120836226Y-85463960D02*
X120836770Y-85463960D01*
D27*
X130556000Y-86614000D02*
X128612000Y-84670000D01*
X130556000Y-86614000D02*
X129731500Y-86614000D01*
%TO.N,Net-(C16-Pad2)*%
X132334000Y-83310000D02*
X130980000Y-83310000D01*
X132334000Y-83310000D02*
X132334000Y-82395000D01*
X132334000Y-82395000D02*
X132108000Y-82169000D01*
X130980000Y-83310000D02*
X130640000Y-82970000D01*
D28*
%TO.N,USB_D-*%
X123393200Y-76502800D02*
X122684000Y-75793600D01*
X117244620Y-75793600D02*
X115635020Y-74184000D01*
X122684000Y-75793600D02*
X117244620Y-75793600D01*
%TO.N,USB_D+*%
X121855200Y-76184000D02*
X115635020Y-76184000D01*
X122224800Y-76553600D02*
X121855200Y-76184000D01*
D27*
%TO.N,BOOTSEL*%
X131064000Y-73660000D02*
X129907575Y-73660000D01*
X131318000Y-73406000D02*
X131064000Y-73660000D01*
X131318000Y-73406000D02*
X131318000Y-72390000D01*
X129907575Y-73660000D02*
X129130055Y-74437520D01*
X131318000Y-72390000D02*
X130810000Y-71882000D01*
X129130055Y-74437520D02*
X128510480Y-74437520D01*
X128510480Y-74437520D02*
X127508000Y-75440000D01*
%TO.N,PLY_TGL*%
X124120000Y-85642616D02*
X124120000Y-86495500D01*
X124332150Y-85430466D02*
X124120000Y-85642616D01*
X134153489Y-75074491D02*
X135027980Y-74200000D01*
X133853486Y-75184000D02*
X133962995Y-75074491D01*
X133962995Y-75074491D02*
X134153489Y-75074491D01*
%TO.N,AUD_OUT+*%
X130133006Y-77904028D02*
X130018969Y-77789991D01*
X130018969Y-76476154D02*
X129670315Y-76127500D01*
X132838613Y-78889013D02*
X132172007Y-78889013D01*
X131187022Y-77904028D02*
X131068000Y-77904028D01*
X130018969Y-77789991D02*
X130018969Y-76476154D01*
X131068000Y-77904028D02*
X130133006Y-77904028D01*
X132909544Y-78959944D02*
X132838613Y-78889013D01*
X131068000Y-77904028D02*
X131068000Y-77190000D01*
X132172007Y-78889013D02*
X131187022Y-77904028D01*
%TO.N,AUD_OUT-*%
X133050872Y-78112013D02*
X131960013Y-78112013D01*
X134112000Y-73406000D02*
X133153986Y-74364014D01*
X132913001Y-76490489D02*
X131618489Y-76490489D01*
X134112000Y-71374000D02*
X134112000Y-73406000D01*
X133731000Y-79629000D02*
X133731000Y-78792141D01*
X132811522Y-76490489D02*
X131789511Y-76490489D01*
X131618489Y-77240489D02*
X131568000Y-77190000D01*
X131568000Y-76712000D02*
X131568000Y-77190000D01*
X131789511Y-76490489D02*
X131568000Y-76712000D01*
X132908506Y-76393506D02*
X132811522Y-76490489D01*
X133731000Y-78792141D02*
X133050872Y-78112013D01*
X133153986Y-74364014D02*
X133153986Y-76148026D01*
X131960013Y-78112013D02*
X131568000Y-77720000D01*
X131568000Y-77720000D02*
X131568000Y-77190000D01*
X131618489Y-76490489D02*
X131618489Y-77240489D01*
X133153986Y-76148026D02*
X132908506Y-76393506D01*
X133350000Y-70612000D02*
X134112000Y-71374000D01*
%TO.N,DBG*%
X125041000Y-86495500D02*
X125222000Y-86676500D01*
X124520000Y-86495500D02*
X125041000Y-86495500D01*
%TO.N,Net-(R1-Pad1)*%
X122328400Y-77726000D02*
X121920000Y-77726000D01*
D28*
X122920000Y-79620500D02*
X122920000Y-79086162D01*
X122990911Y-79015251D02*
X122990911Y-78390511D01*
X122990911Y-78390511D02*
X122123200Y-77522800D01*
X122920000Y-79086162D02*
X122990911Y-79015251D01*
%TO.N,Net-(R2-Pad1)*%
X123342400Y-79598100D02*
X123342400Y-77522800D01*
X123320000Y-79620500D02*
X123342400Y-79598100D01*
D27*
%TO.N,QSPI_SS*%
X120777000Y-71247000D02*
X124084283Y-71247000D01*
X119011050Y-79620500D02*
X119320000Y-79620500D01*
X127508000Y-73069283D02*
X127508000Y-73154000D01*
X118491000Y-71247000D02*
X118320000Y-71247000D01*
X124683803Y-71846520D02*
X126285237Y-71846520D01*
X126285237Y-71846520D02*
X127508000Y-73069283D01*
X124084283Y-71247000D02*
X124683803Y-71846520D01*
X118745000Y-70993000D02*
X118491000Y-71247000D01*
X118546225Y-79155675D02*
X119011050Y-79620500D01*
X120523000Y-70993000D02*
X118745000Y-70993000D01*
X127508000Y-74420000D02*
X127508000Y-73154000D01*
X120523000Y-70993000D02*
X120777000Y-71247000D01*
D28*
%TO.N,XOUT*%
X121720000Y-86495500D02*
X121720000Y-85741554D01*
D27*
X133225000Y-83439000D02*
X132334000Y-84330000D01*
X133412500Y-83439000D02*
X133225000Y-83439000D01*
D28*
X121720000Y-85741554D02*
X121999182Y-85462372D01*
D27*
%TO.N,QSPI_SD1*%
X116974356Y-71675982D02*
X117815374Y-72517000D01*
X117815374Y-72517000D02*
X118320000Y-72517000D01*
X118814994Y-78435200D02*
X119246793Y-78866999D01*
X119720000Y-79088705D02*
X119720000Y-79620500D01*
X117562671Y-78435200D02*
X118814994Y-78435200D01*
X119246793Y-78866999D02*
X119498294Y-78866999D01*
X119498294Y-78866999D02*
X119720000Y-79088705D01*
X117365702Y-78632169D02*
X117562671Y-78435200D01*
%TO.N,QSPI_SD2*%
X119847815Y-80424480D02*
X120120000Y-80152295D01*
X120120000Y-80152295D02*
X120120000Y-79620500D01*
X119783720Y-80424480D02*
X119847815Y-80424480D01*
X119560070Y-80648130D02*
X119783720Y-80424480D01*
X117094000Y-73152000D02*
X117685000Y-73152000D01*
X117685000Y-73152000D02*
X118320000Y-73787000D01*
%TO.N,QSPI_SD0*%
X124993546Y-75057000D02*
X125520000Y-75057000D01*
X122248058Y-72393905D02*
X122330451Y-72393905D01*
D28*
X120520000Y-80366783D02*
X120269000Y-80617783D01*
D27*
X122330451Y-72393905D02*
X124993546Y-75057000D01*
D28*
X120520000Y-79620500D02*
X120520000Y-80366783D01*
X120269000Y-80897307D02*
X119519500Y-81646807D01*
X120269000Y-80617783D02*
X120269000Y-80897307D01*
D27*
%TO.N,QSPI_CLK*%
X123952000Y-72581500D02*
X125157500Y-73787000D01*
X125157500Y-73787000D02*
X125520000Y-73787000D01*
D28*
X120920000Y-80778729D02*
X120983908Y-80842637D01*
X120920000Y-79620500D02*
X120920000Y-80778729D01*
D27*
%TO.N,QSPI_SD3*%
X125685717Y-72517000D02*
X125520000Y-72517000D01*
X126746000Y-76200000D02*
X126746000Y-73577283D01*
X126746000Y-73577283D02*
X125685717Y-72517000D01*
D28*
X123935180Y-81111989D02*
X122193022Y-81111989D01*
D27*
X128905000Y-78421500D02*
X128905000Y-78359000D01*
D28*
X122193022Y-81111989D02*
X121320000Y-80238967D01*
X121320000Y-80238967D02*
X121320000Y-79620500D01*
D27*
X128905000Y-78359000D02*
X126746000Y-76200000D01*
%TO.N,AUD-*%
X128806517Y-82070489D02*
X129887495Y-80989511D01*
X127313489Y-82070489D02*
X128806517Y-82070489D01*
X129887495Y-80989511D02*
X131517511Y-80989511D01*
X127313489Y-83833806D02*
X127313489Y-82070489D01*
X125889295Y-85258000D02*
X127313489Y-83833806D01*
X125357500Y-85258000D02*
X125889295Y-85258000D01*
X131517511Y-80989511D02*
X131568000Y-80939022D01*
X131568000Y-80939022D02*
X131568000Y-80290000D01*
%TO.N,AUD+*%
X126769269Y-85367269D02*
X126478538Y-85658000D01*
X131229511Y-79590489D02*
X131068000Y-79752000D01*
X133096000Y-80168978D02*
X132517511Y-79590489D01*
X126478538Y-85658000D02*
X125357500Y-85658000D01*
X133096000Y-80772000D02*
X133096000Y-80168978D01*
X132517511Y-79590489D02*
X131229511Y-79590489D01*
X131068000Y-79752000D02*
X131068000Y-80290000D01*
%TD*%
%TA.AperFunction,Conductor*%
%TO.N,GND*%
G36*
X134065758Y-81197191D02*
G01*
X134077415Y-81209124D01*
X134078008Y-81208531D01*
X134084358Y-81214881D01*
X134089739Y-81222061D01*
X134206295Y-81309415D01*
X134342684Y-81360545D01*
X134404866Y-81367300D01*
X134494000Y-81367300D01*
X134562121Y-81387302D01*
X134608614Y-81440958D01*
X134620000Y-81493300D01*
X134620000Y-82550098D01*
X134619998Y-82550868D01*
X134619524Y-82628452D01*
X134621990Y-82637081D01*
X134621991Y-82637086D01*
X134627639Y-82656848D01*
X134631217Y-82673609D01*
X134634130Y-82693952D01*
X134634133Y-82693962D01*
X134635405Y-82702845D01*
X134646021Y-82726195D01*
X134652464Y-82743707D01*
X134659512Y-82768365D01*
X134675274Y-82793348D01*
X134683404Y-82808414D01*
X134695633Y-82835310D01*
X134712374Y-82854739D01*
X134723479Y-82869747D01*
X134737160Y-82891431D01*
X134743888Y-82897373D01*
X134759296Y-82910981D01*
X134771340Y-82923173D01*
X134790619Y-82945547D01*
X134798147Y-82950426D01*
X134798150Y-82950429D01*
X134812139Y-82959496D01*
X134827013Y-82970786D01*
X134846228Y-82987756D01*
X134854354Y-82991571D01*
X134854355Y-82991572D01*
X134860021Y-82994232D01*
X134872966Y-83000310D01*
X134887935Y-83008624D01*
X134912727Y-83024693D01*
X134929650Y-83029754D01*
X134937290Y-83032039D01*
X134954736Y-83038701D01*
X134977948Y-83049599D01*
X135007130Y-83054143D01*
X135023849Y-83057926D01*
X135043536Y-83063814D01*
X135043539Y-83063815D01*
X135052141Y-83066387D01*
X135061116Y-83066442D01*
X135061117Y-83066442D01*
X135067810Y-83066483D01*
X135086556Y-83066597D01*
X135087328Y-83066630D01*
X135088423Y-83066800D01*
X135119298Y-83066800D01*
X135120068Y-83066802D01*
X135193716Y-83067252D01*
X135193717Y-83067252D01*
X135197652Y-83067276D01*
X135198996Y-83066892D01*
X135200341Y-83066800D01*
X135510000Y-83066800D01*
X135578121Y-83086802D01*
X135624614Y-83140458D01*
X135636000Y-83192800D01*
X135636000Y-84506800D01*
X135615998Y-84574921D01*
X135562342Y-84621414D01*
X135510000Y-84632800D01*
X135336702Y-84632800D01*
X135335932Y-84632798D01*
X135335078Y-84632793D01*
X135258348Y-84632324D01*
X135249719Y-84634790D01*
X135249714Y-84634791D01*
X135229952Y-84640439D01*
X135213191Y-84644017D01*
X135192848Y-84646930D01*
X135192838Y-84646933D01*
X135183955Y-84648205D01*
X135160605Y-84658821D01*
X135143093Y-84665264D01*
X135135057Y-84667561D01*
X135118435Y-84672312D01*
X135093452Y-84688074D01*
X135078386Y-84696204D01*
X135051490Y-84708433D01*
X135032061Y-84725174D01*
X135017053Y-84736279D01*
X134995369Y-84749960D01*
X134989427Y-84756688D01*
X134975819Y-84772096D01*
X134963627Y-84784140D01*
X134941253Y-84803419D01*
X134936374Y-84810947D01*
X134936371Y-84810950D01*
X134927304Y-84824939D01*
X134916014Y-84839813D01*
X134899044Y-84859028D01*
X134886490Y-84885766D01*
X134878176Y-84900735D01*
X134862107Y-84925527D01*
X134859535Y-84934127D01*
X134854761Y-84950090D01*
X134848099Y-84967536D01*
X134837201Y-84990748D01*
X134835820Y-84999621D01*
X134832658Y-85019928D01*
X134828874Y-85036649D01*
X134822986Y-85056336D01*
X134822985Y-85056339D01*
X134820413Y-85064941D01*
X134820358Y-85073916D01*
X134820358Y-85073917D01*
X134820203Y-85099346D01*
X134820170Y-85100128D01*
X134820000Y-85101223D01*
X134820000Y-85132098D01*
X134819998Y-85132868D01*
X134819524Y-85210452D01*
X134819908Y-85211796D01*
X134820000Y-85213141D01*
X134820000Y-86996000D01*
X134799998Y-87064121D01*
X134746342Y-87110614D01*
X134694000Y-87122000D01*
X132400411Y-87122000D01*
X132332290Y-87101998D01*
X132285797Y-87048342D01*
X132275693Y-86978068D01*
X132279414Y-86960846D01*
X132299313Y-86892356D01*
X132300768Y-86884391D01*
X132297948Y-86870969D01*
X132286487Y-86868000D01*
X131470500Y-86868000D01*
X131402379Y-86847998D01*
X131355886Y-86794342D01*
X131344500Y-86742000D01*
X131344500Y-86486000D01*
X131364502Y-86417879D01*
X131418158Y-86371386D01*
X131470500Y-86360000D01*
X132284424Y-86360000D01*
X132299219Y-86355656D01*
X132301063Y-86345225D01*
X132299312Y-86335641D01*
X132257643Y-86192216D01*
X132251396Y-86177780D01*
X132176124Y-86050501D01*
X132166484Y-86038074D01*
X132061926Y-85933516D01*
X132049499Y-85923876D01*
X131922220Y-85848604D01*
X131907784Y-85842357D01*
X131764359Y-85800688D01*
X131751756Y-85798386D01*
X131723898Y-85796193D01*
X131718969Y-85796000D01*
X131705561Y-85796000D01*
X131637440Y-85775998D01*
X131590947Y-85722342D01*
X131580843Y-85652068D01*
X131604734Y-85594435D01*
X131657789Y-85523644D01*
X131666324Y-85508054D01*
X131711478Y-85387606D01*
X131715105Y-85372351D01*
X131720631Y-85321486D01*
X131721000Y-85314672D01*
X131721000Y-85177263D01*
X131741002Y-85109142D01*
X131794658Y-85062649D01*
X131864932Y-85052545D01*
X131890635Y-85059814D01*
X131891404Y-85060269D01*
X131899010Y-85062479D01*
X131899013Y-85062480D01*
X131967510Y-85082380D01*
X132047534Y-85105629D01*
X132053941Y-85106133D01*
X132053945Y-85106134D01*
X132081556Y-85108307D01*
X132081562Y-85108307D01*
X132084011Y-85108500D01*
X132333848Y-85108500D01*
X132583988Y-85108499D01*
X132620466Y-85105629D01*
X132735075Y-85072332D01*
X132768983Y-85062481D01*
X132768985Y-85062480D01*
X132776596Y-85060269D01*
X132806688Y-85042473D01*
X132909720Y-84981540D01*
X132916541Y-84977506D01*
X133031506Y-84862541D01*
X133062017Y-84810950D01*
X133110234Y-84729419D01*
X133110234Y-84729418D01*
X133114269Y-84722596D01*
X133118502Y-84708028D01*
X133155753Y-84579808D01*
X133159629Y-84566466D01*
X133160206Y-84559142D01*
X133162307Y-84532444D01*
X133162307Y-84532438D01*
X133162500Y-84529989D01*
X133162500Y-84470255D01*
X133182502Y-84402134D01*
X133236158Y-84355641D01*
X133303937Y-84345896D01*
X133303985Y-84345437D01*
X133305801Y-84345628D01*
X133306432Y-84345537D01*
X133308590Y-84345921D01*
X133310557Y-84346128D01*
X133317013Y-84347500D01*
X133507987Y-84347500D01*
X133514439Y-84346128D01*
X133514444Y-84346128D01*
X133623414Y-84322965D01*
X133694788Y-84307794D01*
X133817663Y-84253087D01*
X133863222Y-84232803D01*
X133863224Y-84232802D01*
X133869252Y-84230118D01*
X134023753Y-84117866D01*
X134059198Y-84078500D01*
X134147121Y-83980852D01*
X134147122Y-83980851D01*
X134151540Y-83975944D01*
X134209814Y-83875010D01*
X134243723Y-83816279D01*
X134243724Y-83816278D01*
X134247027Y-83810556D01*
X134306042Y-83628928D01*
X134307177Y-83618134D01*
X134325314Y-83445565D01*
X134326004Y-83439000D01*
X134320803Y-83389512D01*
X134306732Y-83255635D01*
X134306732Y-83255633D01*
X134306042Y-83249072D01*
X134247027Y-83067444D01*
X134237522Y-83050980D01*
X134193310Y-82974404D01*
X134151540Y-82902056D01*
X134135138Y-82883839D01*
X134028175Y-82765045D01*
X134028174Y-82765044D01*
X134023753Y-82760134D01*
X133877977Y-82654221D01*
X133834623Y-82597998D01*
X133828548Y-82527262D01*
X133831041Y-82517131D01*
X133851313Y-82447356D01*
X133852768Y-82439391D01*
X133849948Y-82425969D01*
X133838487Y-82423000D01*
X133061936Y-82423000D01*
X132993815Y-82402998D01*
X132947322Y-82349342D01*
X132937014Y-82313446D01*
X132936228Y-82307471D01*
X132926838Y-82236150D01*
X132906090Y-82186061D01*
X132896500Y-82137845D01*
X132896500Y-82041000D01*
X132916502Y-81972879D01*
X132970158Y-81926386D01*
X133022500Y-81915000D01*
X133836424Y-81915000D01*
X133851219Y-81910656D01*
X133853063Y-81900225D01*
X133851312Y-81890641D01*
X133809643Y-81747216D01*
X133803396Y-81732780D01*
X133728126Y-81605505D01*
X133718601Y-81593226D01*
X133692652Y-81527141D01*
X133706550Y-81457518D01*
X133724516Y-81431693D01*
X133835040Y-81308944D01*
X133878752Y-81233233D01*
X133930133Y-81184241D01*
X133999847Y-81170805D01*
X134065758Y-81197191D01*
G37*
%TD.AperFunction*%
%TA.AperFunction,Conductor*%
G36*
X119637012Y-85076251D02*
G01*
X119643595Y-85082380D01*
X119895620Y-85334405D01*
X119929646Y-85396717D01*
X119924581Y-85467532D01*
X119882034Y-85524368D01*
X119815514Y-85549179D01*
X119806525Y-85549500D01*
X119626608Y-85549500D01*
X119575162Y-85555726D01*
X119560755Y-85557469D01*
X119490725Y-85545796D01*
X119438123Y-85498114D01*
X119419650Y-85429563D01*
X119420531Y-85417245D01*
X119425964Y-85372351D01*
X119428500Y-85351392D01*
X119428500Y-85171475D01*
X119448502Y-85103354D01*
X119502158Y-85056861D01*
X119572432Y-85046757D01*
X119637012Y-85076251D01*
G37*
%TD.AperFunction*%
%TA.AperFunction,Conductor*%
G36*
X116708621Y-82852002D02*
G01*
X116755114Y-82905658D01*
X116766500Y-82958000D01*
X116766500Y-83051336D01*
X116746498Y-83119457D01*
X116729595Y-83140431D01*
X116649431Y-83220595D01*
X116587119Y-83254621D01*
X116560336Y-83257500D01*
X116477516Y-83257500D01*
X116475068Y-83257693D01*
X116475060Y-83257693D01*
X116447156Y-83259889D01*
X116447151Y-83259890D01*
X116440746Y-83260394D01*
X116341995Y-83289084D01*
X116291016Y-83303894D01*
X116291014Y-83303895D01*
X116283403Y-83306106D01*
X116276581Y-83310141D01*
X116276580Y-83310141D01*
X116255760Y-83322454D01*
X116191621Y-83340000D01*
X115919442Y-83340000D01*
X115905911Y-83343973D01*
X115904776Y-83351871D01*
X115941357Y-83477784D01*
X115947605Y-83492222D01*
X115953016Y-83501372D01*
X115970474Y-83570188D01*
X115953015Y-83629647D01*
X115943106Y-83646403D01*
X115897394Y-83803746D01*
X115896890Y-83810151D01*
X115896889Y-83810156D01*
X115894693Y-83838060D01*
X115894500Y-83840516D01*
X115894500Y-84251484D01*
X115897394Y-84288254D01*
X115943106Y-84445597D01*
X116026512Y-84586629D01*
X116142371Y-84702488D01*
X116149189Y-84706520D01*
X116149194Y-84706524D01*
X116185232Y-84727836D01*
X116233685Y-84779728D01*
X116246391Y-84849579D01*
X116219316Y-84915210D01*
X116185234Y-84944743D01*
X116149503Y-84965874D01*
X116137074Y-84975516D01*
X116069219Y-85043371D01*
X116006907Y-85077397D01*
X115936092Y-85072332D01*
X115879256Y-85029785D01*
X115862718Y-84996701D01*
X115862595Y-84996757D01*
X115862595Y-84996755D01*
X115851979Y-84973405D01*
X115845536Y-84955893D01*
X115840954Y-84939863D01*
X115838488Y-84931235D01*
X115822726Y-84906252D01*
X115814596Y-84891186D01*
X115802367Y-84864290D01*
X115785626Y-84844861D01*
X115774521Y-84829853D01*
X115765630Y-84815761D01*
X115760840Y-84808169D01*
X115738703Y-84788618D01*
X115726659Y-84776426D01*
X115713239Y-84760851D01*
X115713237Y-84760850D01*
X115707381Y-84754053D01*
X115699853Y-84749174D01*
X115699850Y-84749171D01*
X115685861Y-84740104D01*
X115670987Y-84728814D01*
X115658502Y-84717788D01*
X115651772Y-84711844D01*
X115643646Y-84708029D01*
X115643645Y-84708028D01*
X115637979Y-84705368D01*
X115625034Y-84699290D01*
X115610065Y-84690976D01*
X115585273Y-84674907D01*
X115560709Y-84667561D01*
X115543264Y-84660899D01*
X115538827Y-84658816D01*
X115520052Y-84650001D01*
X115490870Y-84645457D01*
X115474151Y-84641674D01*
X115454464Y-84635786D01*
X115454461Y-84635785D01*
X115445859Y-84633213D01*
X115436884Y-84633158D01*
X115436883Y-84633158D01*
X115430190Y-84633117D01*
X115411444Y-84633003D01*
X115410672Y-84632970D01*
X115409577Y-84632800D01*
X115378702Y-84632800D01*
X115377932Y-84632798D01*
X115304284Y-84632348D01*
X115304283Y-84632348D01*
X115300348Y-84632324D01*
X115299004Y-84632708D01*
X115297659Y-84632800D01*
X115188000Y-84632800D01*
X115119879Y-84612798D01*
X115073386Y-84559142D01*
X115062000Y-84506800D01*
X115062000Y-83192800D01*
X115082002Y-83124679D01*
X115135658Y-83078186D01*
X115188000Y-83066800D01*
X115561298Y-83066800D01*
X115562069Y-83066802D01*
X115639652Y-83067276D01*
X115648281Y-83064810D01*
X115648286Y-83064809D01*
X115668048Y-83059161D01*
X115684809Y-83055583D01*
X115705152Y-83052670D01*
X115705162Y-83052667D01*
X115714045Y-83051395D01*
X115737395Y-83040779D01*
X115754907Y-83034336D01*
X115770937Y-83029754D01*
X115779565Y-83027288D01*
X115804548Y-83011526D01*
X115819614Y-83003396D01*
X115846510Y-82991167D01*
X115865939Y-82974426D01*
X115880947Y-82963321D01*
X115895039Y-82954430D01*
X115902631Y-82949640D01*
X115922182Y-82927503D01*
X115934374Y-82915459D01*
X115949949Y-82902039D01*
X115949950Y-82902037D01*
X115956747Y-82896181D01*
X115961627Y-82888652D01*
X115967532Y-82881883D01*
X115968718Y-82882918D01*
X116014933Y-82843185D01*
X116066831Y-82832000D01*
X116640500Y-82832000D01*
X116708621Y-82852002D01*
G37*
%TD.AperFunction*%
%TA.AperFunction,Conductor*%
G36*
X131309489Y-81618013D02*
G01*
X131355982Y-81671669D01*
X131366086Y-81741943D01*
X131362365Y-81759165D01*
X131359027Y-81770654D01*
X131320813Y-81830489D01*
X131256316Y-81860166D01*
X131238030Y-81861500D01*
X130180245Y-81861500D01*
X130112124Y-81841498D01*
X130065631Y-81787842D01*
X130055527Y-81717568D01*
X130085021Y-81652988D01*
X130091150Y-81646405D01*
X130102639Y-81634916D01*
X130164951Y-81600890D01*
X130191734Y-81598011D01*
X131241368Y-81598011D01*
X131309489Y-81618013D01*
G37*
%TD.AperFunction*%
%TA.AperFunction,Conductor*%
G36*
X129958534Y-78491617D02*
G01*
X129958547Y-78491568D01*
X129966526Y-78493706D01*
X129974155Y-78496866D01*
X130133006Y-78517779D01*
X130164705Y-78513606D01*
X130181150Y-78512528D01*
X130882783Y-78512528D01*
X130950904Y-78532530D01*
X130971878Y-78549433D01*
X131198777Y-78776332D01*
X131232803Y-78838644D01*
X131227738Y-78909459D01*
X131185191Y-78966295D01*
X131126128Y-78990349D01*
X131104830Y-78993153D01*
X131093204Y-78994683D01*
X131083543Y-78995955D01*
X131070660Y-78997651D01*
X130922635Y-79058965D01*
X130916084Y-79063992D01*
X130916082Y-79063993D01*
X130863620Y-79104249D01*
X130827439Y-79132012D01*
X130827436Y-79132015D01*
X130795524Y-79156502D01*
X130790494Y-79163057D01*
X130776059Y-79181868D01*
X130765192Y-79194259D01*
X130671766Y-79287685D01*
X130659375Y-79298552D01*
X130634013Y-79318013D01*
X130628988Y-79324562D01*
X130623125Y-79332203D01*
X130565787Y-79374071D01*
X130523162Y-79381500D01*
X130369866Y-79381500D01*
X130307684Y-79388255D01*
X130171295Y-79439385D01*
X130054739Y-79526739D01*
X129967385Y-79643295D01*
X129964837Y-79641385D01*
X129925682Y-79680439D01*
X129881887Y-79694695D01*
X129863149Y-79697162D01*
X129715124Y-79758476D01*
X129690233Y-79777576D01*
X129619937Y-79831515D01*
X129619921Y-79831529D01*
X129594566Y-79850984D01*
X129594563Y-79850987D01*
X129588013Y-79856013D01*
X129582983Y-79862568D01*
X129568548Y-79881379D01*
X129557681Y-79893770D01*
X128889643Y-80561808D01*
X128827331Y-80595834D01*
X128756516Y-80590769D01*
X128699680Y-80548222D01*
X128692094Y-80536851D01*
X128644090Y-80455679D01*
X128646977Y-80453972D01*
X128626622Y-80402193D01*
X128640494Y-80332564D01*
X128644392Y-80326499D01*
X128644090Y-80326320D01*
X128723396Y-80192220D01*
X128729643Y-80177784D01*
X128771312Y-80034359D01*
X128772768Y-80026391D01*
X128769948Y-80012969D01*
X128758487Y-80010000D01*
X128260115Y-80010000D01*
X128244876Y-80014475D01*
X128243671Y-80015865D01*
X128242000Y-80023548D01*
X128242000Y-80901020D01*
X128221998Y-80969141D01*
X128168342Y-81015634D01*
X128116000Y-81027020D01*
X127942500Y-81027020D01*
X127874379Y-81007018D01*
X127827886Y-80953362D01*
X127816500Y-80901020D01*
X127816500Y-80790516D01*
X127813606Y-80753746D01*
X127767894Y-80596403D01*
X127751546Y-80568760D01*
X127734000Y-80504621D01*
X127734000Y-80277379D01*
X127751546Y-80213240D01*
X127763859Y-80192420D01*
X127763859Y-80192419D01*
X127767894Y-80185597D01*
X127813606Y-80028254D01*
X127814582Y-80015865D01*
X127816307Y-79993940D01*
X127816307Y-79993932D01*
X127816500Y-79991484D01*
X127816500Y-79520516D01*
X127815450Y-79507173D01*
X127814111Y-79490156D01*
X127814110Y-79490151D01*
X127813606Y-79483746D01*
X127767894Y-79326403D01*
X127759459Y-79312139D01*
X127741999Y-79243325D01*
X127759458Y-79183861D01*
X127767894Y-79169597D01*
X127771699Y-79156502D01*
X127789434Y-79095455D01*
X127813606Y-79012254D01*
X127814278Y-79003725D01*
X127816307Y-78977940D01*
X127816307Y-78977932D01*
X127816500Y-78975484D01*
X127816500Y-78806940D01*
X127836502Y-78738819D01*
X127890158Y-78692326D01*
X127960432Y-78682222D01*
X128025012Y-78711716D01*
X128062332Y-78768002D01*
X128070473Y-78793056D01*
X128165960Y-78958444D01*
X128209637Y-79006952D01*
X128240353Y-79070958D01*
X128242000Y-79091261D01*
X128242000Y-79483885D01*
X128246475Y-79499124D01*
X128247865Y-79500329D01*
X128255548Y-79502000D01*
X128756424Y-79502000D01*
X128771219Y-79497656D01*
X128773062Y-79487226D01*
X128771494Y-79478639D01*
X128778932Y-79408033D01*
X128823361Y-79352656D01*
X128895444Y-79330000D01*
X129000487Y-79330000D01*
X129006939Y-79328628D01*
X129006944Y-79328628D01*
X129093888Y-79310147D01*
X129187288Y-79290294D01*
X129193319Y-79287609D01*
X129355722Y-79215303D01*
X129355724Y-79215302D01*
X129361752Y-79212618D01*
X129395065Y-79188415D01*
X129472696Y-79132012D01*
X129516253Y-79100366D01*
X129644040Y-78958444D01*
X129739527Y-78793056D01*
X129798542Y-78611428D01*
X129799769Y-78599754D01*
X129826780Y-78534096D01*
X129885000Y-78493464D01*
X129955945Y-78490759D01*
X129958534Y-78491617D01*
G37*
%TD.AperFunction*%
%TA.AperFunction,Conductor*%
G36*
X116691227Y-79251505D02*
G01*
X116724535Y-79277812D01*
X116754449Y-79311035D01*
X116908950Y-79423287D01*
X116914976Y-79425970D01*
X116914983Y-79425974D01*
X116991642Y-79460104D01*
X117045738Y-79506084D01*
X117066388Y-79574011D01*
X117060227Y-79614147D01*
X117037105Y-79685309D01*
X116997031Y-79743915D01*
X116983446Y-79750414D01*
X116970091Y-79763581D01*
X116967000Y-79775513D01*
X116967000Y-80528966D01*
X116946998Y-80597087D01*
X116930095Y-80618061D01*
X116867561Y-80680595D01*
X116805249Y-80714621D01*
X116778466Y-80717500D01*
X116585000Y-80717500D01*
X116516879Y-80697498D01*
X116470386Y-80643842D01*
X116459000Y-80591500D01*
X116459000Y-79777576D01*
X116454656Y-79762781D01*
X116444225Y-79760937D01*
X116434641Y-79762688D01*
X116291216Y-79804357D01*
X116276778Y-79810605D01*
X116268137Y-79815715D01*
X116199321Y-79833173D01*
X116131990Y-79810655D01*
X116087522Y-79755310D01*
X116078000Y-79707260D01*
X116078000Y-79492999D01*
X116098002Y-79424878D01*
X116151658Y-79378385D01*
X116204000Y-79366999D01*
X116289669Y-79366999D01*
X116296490Y-79366629D01*
X116347352Y-79361105D01*
X116362604Y-79357479D01*
X116483054Y-79312324D01*
X116498644Y-79303789D01*
X116555338Y-79261299D01*
X116621845Y-79236452D01*
X116691227Y-79251505D01*
G37*
%TD.AperFunction*%
%TA.AperFunction,Conductor*%
G36*
X120846121Y-76777502D02*
G01*
X120892614Y-76831158D01*
X120904000Y-76883500D01*
X120904000Y-77035500D01*
X120883998Y-77103621D01*
X120830342Y-77150114D01*
X120778000Y-77161500D01*
X120414516Y-77161500D01*
X120412068Y-77161693D01*
X120412060Y-77161693D01*
X120384156Y-77163889D01*
X120384151Y-77163890D01*
X120377746Y-77164394D01*
X120310950Y-77183800D01*
X120228016Y-77207894D01*
X120228014Y-77207895D01*
X120220403Y-77210106D01*
X120213581Y-77214141D01*
X120213580Y-77214141D01*
X120192760Y-77226454D01*
X120128621Y-77244000D01*
X119901379Y-77244000D01*
X119837240Y-77226454D01*
X119816420Y-77214141D01*
X119816419Y-77214141D01*
X119809597Y-77210106D01*
X119801986Y-77207895D01*
X119801984Y-77207894D01*
X119719050Y-77183800D01*
X119652254Y-77164394D01*
X119645849Y-77163890D01*
X119645844Y-77163889D01*
X119617940Y-77161693D01*
X119617932Y-77161693D01*
X119615484Y-77161500D01*
X119144516Y-77161500D01*
X119142068Y-77161693D01*
X119142060Y-77161693D01*
X119114156Y-77163889D01*
X119114151Y-77163890D01*
X119107746Y-77164394D01*
X119040950Y-77183800D01*
X118958016Y-77207894D01*
X118958014Y-77207895D01*
X118950403Y-77210106D01*
X118943581Y-77214141D01*
X118943580Y-77214141D01*
X118922760Y-77226454D01*
X118858621Y-77244000D01*
X118586442Y-77244000D01*
X118572911Y-77247973D01*
X118571776Y-77255871D01*
X118608357Y-77381784D01*
X118614605Y-77396222D01*
X118620016Y-77405372D01*
X118637474Y-77474188D01*
X118620015Y-77533647D01*
X118610106Y-77550403D01*
X118564394Y-77707746D01*
X118563889Y-77714158D01*
X118562731Y-77720499D01*
X118560548Y-77720100D01*
X118538872Y-77776944D01*
X118481726Y-77819074D01*
X118438558Y-77826700D01*
X117817004Y-77826700D01*
X117765755Y-77815807D01*
X117654021Y-77766060D01*
X117654020Y-77766060D01*
X117647990Y-77763375D01*
X117554589Y-77743522D01*
X117467646Y-77725041D01*
X117467641Y-77725041D01*
X117461189Y-77723669D01*
X117270215Y-77723669D01*
X117263763Y-77725041D01*
X117263758Y-77725041D01*
X117176815Y-77743522D01*
X117083414Y-77763375D01*
X117077384Y-77766060D01*
X117077383Y-77766060D01*
X117037768Y-77783698D01*
X116930247Y-77831569D01*
X116859881Y-77841003D01*
X116795584Y-77810897D01*
X116757770Y-77750808D01*
X116752999Y-77716462D01*
X116752999Y-77464331D01*
X116752629Y-77457510D01*
X116747105Y-77406648D01*
X116743479Y-77391396D01*
X116698324Y-77270946D01*
X116685478Y-77247483D01*
X116688060Y-77246069D01*
X116668409Y-77193488D01*
X116683455Y-77124104D01*
X116687744Y-77117431D01*
X116690230Y-77112890D01*
X116695615Y-77105705D01*
X116746745Y-76969316D01*
X116753500Y-76907134D01*
X116753500Y-76883500D01*
X116773502Y-76815379D01*
X116827158Y-76768886D01*
X116879500Y-76757500D01*
X120778000Y-76757500D01*
X120846121Y-76777502D01*
G37*
%TD.AperFunction*%
%TA.AperFunction,Conductor*%
G36*
X119860411Y-71621502D02*
G01*
X119885926Y-71643189D01*
X119911747Y-71671866D01*
X119917086Y-71675745D01*
X120030003Y-71757784D01*
X120066248Y-71784118D01*
X120072276Y-71786802D01*
X120072278Y-71786803D01*
X120234681Y-71859109D01*
X120240712Y-71861794D01*
X120305203Y-71875502D01*
X120421056Y-71900128D01*
X120421061Y-71900128D01*
X120427513Y-71901500D01*
X120618487Y-71901500D01*
X120624939Y-71900128D01*
X120624944Y-71900128D01*
X120798830Y-71863167D01*
X120798833Y-71863166D01*
X120805288Y-71861794D01*
X120806747Y-71861145D01*
X120842382Y-71855500D01*
X121294550Y-71855500D01*
X121362671Y-71875502D01*
X121409164Y-71929158D01*
X121419268Y-71999432D01*
X121412731Y-72022089D01*
X121413531Y-72022349D01*
X121354516Y-72203977D01*
X121334554Y-72393905D01*
X121335244Y-72400470D01*
X121353786Y-72576884D01*
X121354516Y-72583833D01*
X121413531Y-72765461D01*
X121509018Y-72930849D01*
X121636805Y-73072771D01*
X121791306Y-73185023D01*
X121797334Y-73187707D01*
X121797336Y-73187708D01*
X121908098Y-73237022D01*
X121965770Y-73262699D01*
X122059170Y-73282552D01*
X122146114Y-73301033D01*
X122146119Y-73301033D01*
X122152571Y-73302405D01*
X122326212Y-73302405D01*
X122394333Y-73322407D01*
X122415307Y-73339310D01*
X124174595Y-75098598D01*
X124208621Y-75160910D01*
X124211500Y-75187693D01*
X124211500Y-75273502D01*
X124211693Y-75275950D01*
X124211693Y-75275958D01*
X124213403Y-75297677D01*
X124214438Y-75310831D01*
X124237765Y-75391125D01*
X124257969Y-75460666D01*
X124260855Y-75470601D01*
X124264892Y-75477427D01*
X124341509Y-75606980D01*
X124341511Y-75606983D01*
X124345547Y-75613807D01*
X124463193Y-75731453D01*
X124470017Y-75735489D01*
X124470020Y-75735491D01*
X124577589Y-75799107D01*
X124606399Y-75816145D01*
X124614010Y-75818356D01*
X124614012Y-75818357D01*
X124666231Y-75833528D01*
X124766169Y-75862562D01*
X124772574Y-75863066D01*
X124772579Y-75863067D01*
X124801042Y-75865307D01*
X124801050Y-75865307D01*
X124803498Y-75865500D01*
X126011500Y-75865500D01*
X126079621Y-75885502D01*
X126126114Y-75939158D01*
X126137500Y-75991500D01*
X126137500Y-76079235D01*
X126117498Y-76147356D01*
X126063842Y-76193849D01*
X126005443Y-76204171D01*
X125986969Y-76208052D01*
X125984000Y-76219513D01*
X125984000Y-77035500D01*
X125963998Y-77103621D01*
X125910342Y-77150114D01*
X125858000Y-77161500D01*
X125494516Y-77161500D01*
X125492068Y-77161693D01*
X125492060Y-77161693D01*
X125464156Y-77163889D01*
X125464151Y-77163890D01*
X125457746Y-77164394D01*
X125390950Y-77183800D01*
X125308016Y-77207894D01*
X125308014Y-77207895D01*
X125300403Y-77210106D01*
X125293581Y-77214141D01*
X125293580Y-77214141D01*
X125272760Y-77226454D01*
X125208621Y-77244000D01*
X124981379Y-77244000D01*
X124917240Y-77226454D01*
X124896420Y-77214141D01*
X124896419Y-77214141D01*
X124889597Y-77210106D01*
X124881986Y-77207895D01*
X124881984Y-77207894D01*
X124799050Y-77183800D01*
X124732254Y-77164394D01*
X124725849Y-77163890D01*
X124725844Y-77163889D01*
X124697940Y-77161693D01*
X124697932Y-77161693D01*
X124695484Y-77161500D01*
X124332000Y-77161500D01*
X124263879Y-77141498D01*
X124217386Y-77087842D01*
X124206000Y-77035500D01*
X124206000Y-76717885D01*
X124714000Y-76717885D01*
X124718475Y-76733124D01*
X124719865Y-76734329D01*
X124727548Y-76736000D01*
X125457885Y-76736000D01*
X125473124Y-76731525D01*
X125474329Y-76730135D01*
X125476000Y-76722452D01*
X125476000Y-76221576D01*
X125471656Y-76206781D01*
X125461225Y-76204937D01*
X125451641Y-76206688D01*
X125308216Y-76248357D01*
X125293780Y-76254604D01*
X125159680Y-76333910D01*
X125157973Y-76331023D01*
X125106193Y-76351378D01*
X125036564Y-76337506D01*
X125030499Y-76333608D01*
X125030320Y-76333910D01*
X124896220Y-76254604D01*
X124881784Y-76248357D01*
X124738359Y-76206688D01*
X124730391Y-76205232D01*
X124716969Y-76208052D01*
X124714000Y-76219513D01*
X124714000Y-76717885D01*
X124206000Y-76717885D01*
X124206000Y-76221576D01*
X124201525Y-76206337D01*
X124182273Y-76189655D01*
X124161564Y-76179380D01*
X124126100Y-76122013D01*
X124122669Y-76110204D01*
X124039906Y-75970259D01*
X123924941Y-75855294D01*
X123862484Y-75818357D01*
X123791819Y-75776566D01*
X123791818Y-75776566D01*
X123784996Y-75772531D01*
X123777385Y-75770320D01*
X123777383Y-75770319D01*
X123686650Y-75743959D01*
X123628866Y-75727171D01*
X123622459Y-75726667D01*
X123622455Y-75726666D01*
X123594844Y-75724493D01*
X123594838Y-75724493D01*
X123592389Y-75724300D01*
X123477941Y-75724300D01*
X123409820Y-75704298D01*
X123388846Y-75687395D01*
X123121948Y-75420497D01*
X123111081Y-75408106D01*
X123098051Y-75391125D01*
X123093025Y-75384575D01*
X122973224Y-75292648D01*
X122833714Y-75234861D01*
X122721592Y-75220100D01*
X122684000Y-75215151D01*
X122675811Y-75216229D01*
X122654595Y-75219022D01*
X122638150Y-75220100D01*
X118192000Y-75220100D01*
X118123879Y-75200098D01*
X118077386Y-75146442D01*
X118066000Y-75094100D01*
X118066000Y-74929000D01*
X118086002Y-74860879D01*
X118139658Y-74814386D01*
X118192000Y-74803000D01*
X119606878Y-74803000D01*
X119620409Y-74799027D01*
X119621544Y-74791129D01*
X119580893Y-74651210D01*
X119574648Y-74636779D01*
X119498089Y-74507323D01*
X119492129Y-74499640D01*
X119466180Y-74433556D01*
X119480078Y-74363933D01*
X119490421Y-74347839D01*
X119494453Y-74343807D01*
X119579145Y-74200601D01*
X119625562Y-74040831D01*
X119628500Y-74003502D01*
X119628500Y-73570498D01*
X119625562Y-73533169D01*
X119579145Y-73373399D01*
X119494453Y-73230193D01*
X119491771Y-73227511D01*
X119466498Y-73163139D01*
X119480400Y-73093516D01*
X119490572Y-73077688D01*
X119494453Y-73073807D01*
X119579145Y-72930601D01*
X119625562Y-72770831D01*
X119626480Y-72759176D01*
X119628307Y-72735958D01*
X119628307Y-72735950D01*
X119628500Y-72733502D01*
X119628500Y-72300498D01*
X119628047Y-72294739D01*
X119626067Y-72269579D01*
X119626066Y-72269574D01*
X119625562Y-72263169D01*
X119592646Y-72149869D01*
X119581357Y-72111012D01*
X119581356Y-72111010D01*
X119579145Y-72103399D01*
X119494453Y-71960193D01*
X119491771Y-71957511D01*
X119466498Y-71893139D01*
X119480400Y-71823516D01*
X119490572Y-71807688D01*
X119494453Y-71803807D01*
X119577513Y-71663361D01*
X119629406Y-71614908D01*
X119685966Y-71601500D01*
X119792290Y-71601500D01*
X119860411Y-71621502D01*
G37*
%TD.AperFunction*%
%TA.AperFunction,Conductor*%
G36*
X116905698Y-74040772D02*
G01*
X116947816Y-74049725D01*
X117010289Y-74083454D01*
X117042615Y-74137818D01*
X117060855Y-74200601D01*
X117145547Y-74343807D01*
X117148487Y-74346747D01*
X117173820Y-74411266D01*
X117159921Y-74480889D01*
X117147874Y-74499636D01*
X117141908Y-74507327D01*
X117086164Y-74601587D01*
X117034272Y-74650040D01*
X116964421Y-74662746D01*
X116898790Y-74635671D01*
X116888615Y-74626544D01*
X116790405Y-74528334D01*
X116756379Y-74466022D01*
X116753500Y-74439239D01*
X116753500Y-74164018D01*
X116773502Y-74095897D01*
X116827158Y-74049404D01*
X116897432Y-74039300D01*
X116905698Y-74040772D01*
G37*
%TD.AperFunction*%
%TA.AperFunction,Conductor*%
G36*
X132391376Y-70378002D02*
G01*
X132437869Y-70431658D01*
X132448565Y-70497170D01*
X132436496Y-70612000D01*
X132456458Y-70801928D01*
X132515473Y-70983556D01*
X132518776Y-70989278D01*
X132518777Y-70989279D01*
X132529040Y-71007055D01*
X132610960Y-71148944D01*
X132615378Y-71153851D01*
X132615379Y-71153852D01*
X132734325Y-71285955D01*
X132738747Y-71290866D01*
X132821203Y-71350774D01*
X132886189Y-71397989D01*
X132893248Y-71403118D01*
X132899276Y-71405802D01*
X132899278Y-71405803D01*
X133061681Y-71478109D01*
X133067712Y-71480794D01*
X133155754Y-71499508D01*
X133248056Y-71519128D01*
X133248061Y-71519128D01*
X133254513Y-71520500D01*
X133345761Y-71520500D01*
X133413882Y-71540502D01*
X133434856Y-71557405D01*
X133466595Y-71589144D01*
X133500621Y-71651456D01*
X133503500Y-71678239D01*
X133503500Y-72452166D01*
X133483498Y-72520287D01*
X133429842Y-72566780D01*
X133359568Y-72576884D01*
X133294988Y-72547390D01*
X133259518Y-72496396D01*
X133230767Y-72419703D01*
X133227615Y-72411295D01*
X133140261Y-72294739D01*
X133023705Y-72207385D01*
X132887316Y-72156255D01*
X132825134Y-72149500D01*
X132660500Y-72149500D01*
X132592379Y-72129498D01*
X132545886Y-72075842D01*
X132534500Y-72023500D01*
X132534500Y-71796247D01*
X132534792Y-71787678D01*
X132538210Y-71737545D01*
X132538210Y-71737541D01*
X132538726Y-71729968D01*
X132527736Y-71667001D01*
X132526775Y-71660485D01*
X132525559Y-71650434D01*
X132519102Y-71597078D01*
X132516419Y-71589977D01*
X132515778Y-71587368D01*
X132511309Y-71571035D01*
X132510548Y-71568515D01*
X132509243Y-71561037D01*
X132491449Y-71520500D01*
X132483559Y-71502524D01*
X132481068Y-71496419D01*
X132461175Y-71443776D01*
X132461173Y-71443772D01*
X132458487Y-71436664D01*
X132454184Y-71430403D01*
X132452947Y-71428037D01*
X132444720Y-71413257D01*
X132443369Y-71410972D01*
X132440315Y-71404015D01*
X132435695Y-71397995D01*
X132435692Y-71397989D01*
X132401421Y-71353329D01*
X132397541Y-71347988D01*
X132365661Y-71301600D01*
X132365656Y-71301595D01*
X132361357Y-71295339D01*
X132314829Y-71253884D01*
X132309554Y-71248904D01*
X131633745Y-70573095D01*
X131599719Y-70510783D01*
X131604784Y-70439968D01*
X131647331Y-70383132D01*
X131713851Y-70358321D01*
X131722840Y-70358000D01*
X132323255Y-70358000D01*
X132391376Y-70378002D01*
G37*
%TD.AperFunction*%
%TA.AperFunction,Conductor*%
G36*
X129885141Y-70832502D02*
G01*
X129906115Y-70849405D01*
X130143146Y-71086436D01*
X130177172Y-71148748D01*
X130172107Y-71219563D01*
X130147688Y-71259840D01*
X130070960Y-71345056D01*
X130067659Y-71350774D01*
X129980046Y-71502524D01*
X129975473Y-71510444D01*
X129916458Y-71692072D01*
X129915768Y-71698633D01*
X129915768Y-71698635D01*
X129913020Y-71724784D01*
X129886007Y-71790441D01*
X129827786Y-71831071D01*
X129756841Y-71833774D01*
X129695696Y-71797692D01*
X129672073Y-71761654D01*
X129670398Y-71757784D01*
X129595124Y-71630501D01*
X129585484Y-71618074D01*
X129480926Y-71513516D01*
X129468499Y-71503876D01*
X129341220Y-71428604D01*
X129326782Y-71422356D01*
X129303705Y-71415652D01*
X129243869Y-71377439D01*
X129214191Y-71312943D01*
X129217860Y-71259502D01*
X129251312Y-71144359D01*
X129252768Y-71136391D01*
X129249948Y-71122969D01*
X129238487Y-71120000D01*
X128442500Y-71120000D01*
X128374379Y-71099998D01*
X128327886Y-71046342D01*
X128316500Y-70994000D01*
X128316500Y-70938500D01*
X128336502Y-70870379D01*
X128390158Y-70823886D01*
X128442500Y-70812500D01*
X129817020Y-70812500D01*
X129885141Y-70832502D01*
G37*
%TD.AperFunction*%
%TD*%
M02*
