%TF.GenerationSoftware,KiCad,Pcbnew,(6.0.2-0)*%
%TF.CreationDate,2022-06-01T12:35:39-04:00*%
%TF.ProjectId,hitclips_2040,68697463-6c69-4707-935f-323034302e6b,rev?*%
%TF.SameCoordinates,Original*%
%TF.FileFunction,Soldermask,Top*%
%TF.FilePolarity,Negative*%
%FSLAX46Y46*%
G04 Gerber Fmt 4.6, Leading zero omitted, Abs format (unit mm)*
G04 Created by KiCad (PCBNEW (6.0.2-0)) date 2022-06-01 12:35:39*
%MOMM*%
%LPD*%
G01*
G04 APERTURE LIST*
G04 Aperture macros list*
%AMRoundRect*
0 Rectangle with rounded corners*
0 $1 Rounding radius*
0 $2 $3 $4 $5 $6 $7 $8 $9 X,Y pos of 4 corners*
0 Add a 4 corners polygon primitive as box body*
4,1,4,$2,$3,$4,$5,$6,$7,$8,$9,$2,$3,0*
0 Add four circle primitives for the rounded corners*
1,1,$1+$1,$2,$3*
1,1,$1+$1,$4,$5*
1,1,$1+$1,$6,$7*
1,1,$1+$1,$8,$9*
0 Add four rect primitives between the rounded corners*
20,1,$1+$1,$2,$3,$4,$5,0*
20,1,$1+$1,$4,$5,$6,$7,0*
20,1,$1+$1,$6,$7,$8,$9,0*
20,1,$1+$1,$8,$9,$2,$3,0*%
G04 Aperture macros list end*
%ADD10RoundRect,0.150000X-0.650000X-0.150000X0.650000X-0.150000X0.650000X0.150000X-0.650000X0.150000X0*%
%ADD11RoundRect,0.140000X-0.140000X-0.170000X0.140000X-0.170000X0.140000X0.170000X-0.140000X0.170000X0*%
%ADD12RoundRect,0.140000X0.170000X-0.140000X0.170000X0.140000X-0.170000X0.140000X-0.170000X-0.140000X0*%
%ADD13RoundRect,0.135000X-0.185000X0.135000X-0.185000X-0.135000X0.185000X-0.135000X0.185000X0.135000X0*%
%ADD14RoundRect,0.135000X0.185000X-0.135000X0.185000X0.135000X-0.185000X0.135000X-0.185000X-0.135000X0*%
%ADD15RoundRect,0.140000X0.140000X0.170000X-0.140000X0.170000X-0.140000X-0.170000X0.140000X-0.170000X0*%
%ADD16R,0.510000X0.700000*%
%ADD17R,1.400000X1.200000*%
%ADD18R,1.350000X1.350000*%
%ADD19RoundRect,0.140000X-0.170000X0.140000X-0.170000X-0.140000X0.170000X-0.140000X0.170000X0.140000X0*%
%ADD20RoundRect,0.050000X-0.387500X-0.050000X0.387500X-0.050000X0.387500X0.050000X-0.387500X0.050000X0*%
%ADD21RoundRect,0.050000X-0.050000X-0.387500X0.050000X-0.387500X0.050000X0.387500X-0.050000X0.387500X0*%
%ADD22RoundRect,0.144000X-1.456000X-1.456000X1.456000X-1.456000X1.456000X1.456000X-1.456000X1.456000X0*%
%ADD23R,0.300000X0.800000*%
G04 APERTURE END LIST*
D10*
%TO.C,U2*%
X118320000Y-71247000D03*
X118320000Y-72517000D03*
X118320000Y-73787000D03*
X118320000Y-75057000D03*
X125520000Y-75057000D03*
X125520000Y-73787000D03*
X125520000Y-72517000D03*
X125520000Y-71247000D03*
%TD*%
D11*
%TO.C,C14*%
X127508000Y-70866000D03*
X128468000Y-70866000D03*
%TD*%
D12*
%TO.C,C9*%
X116713000Y-81506000D03*
X116713000Y-80546000D03*
%TD*%
D13*
%TO.C,R3*%
X127508000Y-72134000D03*
X127508000Y-73154000D03*
%TD*%
%TO.C,R5*%
X132334000Y-83310000D03*
X132334000Y-84330000D03*
%TD*%
D14*
%TO.C,R1*%
X122123200Y-77522800D03*
X122123200Y-76502800D03*
%TD*%
D12*
%TO.C,C11*%
X119380000Y-77950000D03*
X119380000Y-76990000D03*
%TD*%
D11*
%TO.C,C5*%
X127028000Y-81026000D03*
X127988000Y-81026000D03*
%TD*%
D15*
%TO.C,C15*%
X131516000Y-86614000D03*
X130556000Y-86614000D03*
%TD*%
D16*
%TO.C,U1*%
X130622000Y-75328000D03*
X131572000Y-75328000D03*
X132522000Y-75328000D03*
X132522000Y-73008000D03*
X130622000Y-73008000D03*
%TD*%
D12*
%TO.C,C13*%
X125730000Y-77950000D03*
X125730000Y-76990000D03*
%TD*%
D17*
%TO.C,Y1*%
X128313000Y-84670000D03*
X130513000Y-84670000D03*
X130513000Y-82970000D03*
X128313000Y-82970000D03*
%TD*%
D18*
%TO.C,J1*%
X115570000Y-72184000D03*
X115570000Y-74184000D03*
X115570000Y-76184000D03*
X115570000Y-78184000D03*
%TD*%
D12*
%TO.C,C7*%
X116713000Y-86586000D03*
X116713000Y-85626000D03*
%TD*%
D11*
%TO.C,C3*%
X127028000Y-78740000D03*
X127988000Y-78740000D03*
%TD*%
D15*
%TO.C,C16*%
X133068000Y-82169000D03*
X132108000Y-82169000D03*
%TD*%
D19*
%TO.C,C1*%
X128778000Y-75466000D03*
X128778000Y-76426000D03*
%TD*%
D14*
%TO.C,R2*%
X123342400Y-77522800D03*
X123342400Y-76502800D03*
%TD*%
D20*
%TO.C,U3*%
X118482500Y-80458000D03*
X118482500Y-80858000D03*
X118482500Y-81258000D03*
X118482500Y-81658000D03*
X118482500Y-82058000D03*
X118482500Y-82458000D03*
X118482500Y-82858000D03*
X118482500Y-83258000D03*
X118482500Y-83658000D03*
X118482500Y-84058000D03*
X118482500Y-84458000D03*
X118482500Y-84858000D03*
X118482500Y-85258000D03*
X118482500Y-85658000D03*
D21*
X119320000Y-86495500D03*
X119720000Y-86495500D03*
X120120000Y-86495500D03*
X120520000Y-86495500D03*
X120920000Y-86495500D03*
X121320000Y-86495500D03*
X121720000Y-86495500D03*
X122120000Y-86495500D03*
X122520000Y-86495500D03*
X122920000Y-86495500D03*
X123320000Y-86495500D03*
X123720000Y-86495500D03*
X124120000Y-86495500D03*
X124520000Y-86495500D03*
D20*
X125357500Y-85658000D03*
X125357500Y-85258000D03*
X125357500Y-84858000D03*
X125357500Y-84458000D03*
X125357500Y-84058000D03*
X125357500Y-83658000D03*
X125357500Y-83258000D03*
X125357500Y-82858000D03*
X125357500Y-82458000D03*
X125357500Y-82058000D03*
X125357500Y-81658000D03*
X125357500Y-81258000D03*
X125357500Y-80858000D03*
X125357500Y-80458000D03*
D21*
X124520000Y-79620500D03*
X124120000Y-79620500D03*
X123720000Y-79620500D03*
X123320000Y-79620500D03*
X122920000Y-79620500D03*
X122520000Y-79620500D03*
X122120000Y-79620500D03*
X121720000Y-79620500D03*
X121320000Y-79620500D03*
X120920000Y-79620500D03*
X120520000Y-79620500D03*
X120120000Y-79620500D03*
X119720000Y-79620500D03*
X119320000Y-79620500D03*
D22*
X121920000Y-83058000D03*
%TD*%
D23*
%TO.C,U5*%
X130568000Y-80290000D03*
X131068000Y-80290000D03*
X131568000Y-80290000D03*
X132068000Y-80290000D03*
X132068000Y-77190000D03*
X131568000Y-77190000D03*
X131068000Y-77190000D03*
X130568000Y-77190000D03*
%TD*%
D12*
%TO.C,C2*%
X128905000Y-73124000D03*
X128905000Y-72164000D03*
%TD*%
%TO.C,C6*%
X120650000Y-77950000D03*
X120650000Y-76990000D03*
%TD*%
D11*
%TO.C,C4*%
X127028000Y-79756000D03*
X127988000Y-79756000D03*
%TD*%
%TO.C,C10*%
X126746000Y-86614000D03*
X127706000Y-86614000D03*
%TD*%
D12*
%TO.C,C8*%
X116713000Y-84046000D03*
X116713000Y-83086000D03*
%TD*%
D18*
%TO.C,J2*%
X135128000Y-72183800D03*
X135128000Y-74183800D03*
X135128000Y-76183800D03*
X135128000Y-78183800D03*
X135128000Y-80183800D03*
%TD*%
D14*
%TO.C,R4*%
X127508000Y-75440000D03*
X127508000Y-74420000D03*
%TD*%
D12*
%TO.C,C12*%
X124460000Y-77950000D03*
X124460000Y-76990000D03*
%TD*%
M02*
