%FSLAX45Y45*%
G04 Gerber Fmt 4.5, Leading zero omitted, Abs format (unit mm)*
G04 Created by KiCad (PCBNEW (6.0.2-0)) date 2022-06-01 12:35:31*
%MOMM*%
%LPD*%
G01*
G04 APERTURE LIST*
%TA.AperFunction,Profile*%
%ADD10C,0.100000*%
%TD*%
%ADD11C,0.200000*%
G04 APERTURE END LIST*
D10*
X13512800Y-8255880D02*
X13614400Y-8255880D01*
X11557000Y-8255880D02*
X11557000Y-6985000D01*
X13532800Y-8514080D02*
X13532800Y-8763000D01*
X11537000Y-8763000D02*
X11537000Y-8514080D01*
X13512800Y-6985000D02*
X13512800Y-8255880D01*
X13614400Y-8514080D02*
X13532800Y-8514080D01*
X13614400Y-8255880D02*
X13614400Y-8514080D01*
X11455400Y-8255880D02*
X11557000Y-8255880D01*
X11455400Y-8514080D02*
X11455400Y-8255880D01*
X13532800Y-8763000D02*
X11537000Y-8763000D01*
X11537000Y-8514080D02*
X11455400Y-8514080D01*
X11557000Y-6985000D02*
X13512800Y-6985000D01*
D11*
X11708019Y-9078476D02*
X11708019Y-8878476D01*
X11755638Y-8878476D01*
X11784209Y-8888000D01*
X11803257Y-8907048D01*
X11812781Y-8926095D01*
X11822305Y-8964190D01*
X11822305Y-8992762D01*
X11812781Y-9030857D01*
X11803257Y-9049905D01*
X11784209Y-9068952D01*
X11755638Y-9078476D01*
X11708019Y-9078476D01*
X11908019Y-9078476D02*
X11908019Y-8945143D01*
X11908019Y-8983238D02*
X11917543Y-8964190D01*
X11927067Y-8954667D01*
X11946114Y-8945143D01*
X11965162Y-8945143D01*
X12031828Y-9078476D02*
X12031828Y-8945143D01*
X12031828Y-8878476D02*
X12022305Y-8888000D01*
X12031828Y-8897524D01*
X12041352Y-8888000D01*
X12031828Y-8878476D01*
X12031828Y-8897524D01*
X12155638Y-9078476D02*
X12136590Y-9068952D01*
X12127067Y-9049905D01*
X12127067Y-8878476D01*
X12260400Y-9078476D02*
X12241352Y-9068952D01*
X12231828Y-9049905D01*
X12231828Y-8878476D01*
X12488971Y-9078476D02*
X12488971Y-8878476D01*
X12555638Y-9021333D01*
X12622305Y-8878476D01*
X12622305Y-9078476D01*
X12803257Y-9078476D02*
X12803257Y-8973714D01*
X12793733Y-8954667D01*
X12774686Y-8945143D01*
X12736590Y-8945143D01*
X12717543Y-8954667D01*
X12803257Y-9068952D02*
X12784209Y-9078476D01*
X12736590Y-9078476D01*
X12717543Y-9068952D01*
X12708019Y-9049905D01*
X12708019Y-9030857D01*
X12717543Y-9011810D01*
X12736590Y-9002286D01*
X12784209Y-9002286D01*
X12803257Y-8992762D01*
X12898495Y-8945143D02*
X12898495Y-9145143D01*
X12898495Y-8954667D02*
X12917543Y-8945143D01*
X12955638Y-8945143D01*
X12974686Y-8954667D01*
X12984209Y-8964190D01*
X12993733Y-8983238D01*
X12993733Y-9040381D01*
X12984209Y-9059429D01*
X12974686Y-9068952D01*
X12955638Y-9078476D01*
X12917543Y-9078476D01*
X12898495Y-9068952D01*
X13079448Y-9059429D02*
X13088971Y-9068952D01*
X13079448Y-9078476D01*
X13069924Y-9068952D01*
X13079448Y-9059429D01*
X13079448Y-9078476D01*
X13079448Y-8954667D02*
X13088971Y-8964190D01*
X13079448Y-8973714D01*
X13069924Y-8964190D01*
X13079448Y-8954667D01*
X13079448Y-8973714D01*
M02*
