M48
; DRILL file {KiCad (6.0.2-0)} date Wednesday, June 01, 2022 at 12:35:33 PM
; FORMAT={-:-/ absolute / metric / decimal}
; #@! TF.CreationDate,2022-06-01T12:35:33-04:00
; #@! TF.GenerationSoftware,Kicad,Pcbnew,(6.0.2-0)
; #@! TF.FileFunction,Plated,1,2,PTH
FMAT,2
METRIC
; #@! TA.AperFunction,Plated,PTH,ComponentDrill
T1C0.350
; #@! TA.AperFunction,Plated,PTH,ViaDrill
T2C0.400
; #@! TA.AperFunction,Plated,PTH,ComponentDrill
T3C0.800
%
G90
G05
T1
X120.645Y-81.783
X120.645Y-83.058
X120.645Y-84.333
X121.92Y-81.783
X121.92Y-83.058
X121.92Y-84.333
X123.195Y-81.783
X123.195Y-83.058
X123.195Y-84.333
T2
X116.974Y-71.676
X117.094Y-73.152
X117.244Y-74.676
X117.244Y-76.99
X117.366Y-78.632
X117.907Y-79.949
X118.546Y-79.156
X119.519Y-81.647
X119.56Y-80.648
X119.634Y-85.344
X119.721Y-83.882
X119.964Y-72.253
X120.523Y-70.993
X120.65Y-78.184
X120.984Y-80.843
X121.999Y-85.462
X122.248Y-72.394
X122.326Y-78.74
X123.935Y-81.112
X123.952Y-72.581
X124.332Y-85.43
X124.641Y-75.92
X125.222Y-86.676
X125.269Y-79.532
X126.326Y-80.458
X126.769Y-85.367
X128.404Y-73.474
X128.905Y-78.421
X129.032Y-80.137
X129.54Y-86.805
X129.667Y-71.311
X129.67Y-76.127
X130.113Y-81.754
X130.81Y-71.882
X132.846Y-77.413
X132.91Y-78.96
X133.096Y-80.772
X133.35Y-70.612
X133.377Y-72.898
X133.412Y-83.439
X133.731Y-79.629
X133.853Y-75.184
T3
X115.57Y-72.184
X115.57Y-74.184
X115.57Y-76.184
X115.57Y-78.184
X135.128Y-72.184
X135.128Y-74.184
X135.128Y-76.184
X135.128Y-78.184
X135.128Y-80.184
T0
M30
