%TF.GenerationSoftware,KiCad,Pcbnew,(6.0.2-0)*%
%TF.CreationDate,2022-06-01T12:35:39-04:00*%
%TF.ProjectId,hitclips_2040,68697463-6c69-4707-935f-323034302e6b,rev?*%
%TF.SameCoordinates,Original*%
%TF.FileFunction,Copper,L2,Bot*%
%TF.FilePolarity,Positive*%
%FSLAX46Y46*%
G04 Gerber Fmt 4.6, Leading zero omitted, Abs format (unit mm)*
G04 Created by KiCad (PCBNEW (6.0.2-0)) date 2022-06-01 12:35:39*
%MOMM*%
%LPD*%
G01*
G04 APERTURE LIST*
%TA.AperFunction,ComponentPad*%
%ADD10R,1.350000X1.350000*%
%TD*%
%TA.AperFunction,ComponentPad*%
%ADD11C,0.600000*%
%TD*%
%TA.AperFunction,SMDPad,CuDef*%
%ADD12R,1.800000X2.750000*%
%TD*%
%TA.AperFunction,ViaPad*%
%ADD13C,0.800000*%
%TD*%
%TA.AperFunction,Conductor*%
%ADD14C,0.250000*%
%TD*%
%TA.AperFunction,Conductor*%
%ADD15C,0.400000*%
%TD*%
%TA.AperFunction,Conductor*%
%ADD16C,0.600000*%
%TD*%
%TA.AperFunction,Conductor*%
%ADD17C,0.200000*%
%TD*%
%TA.AperFunction,Conductor*%
%ADD18C,0.130000*%
%TD*%
G04 APERTURE END LIST*
D10*
%TO.P,J1,1,Pin_1*%
%TO.N,VBUS*%
X115570000Y-72184000D03*
%TO.P,J1,2,Pin_2*%
%TO.N,USB_D-*%
X115570000Y-74184000D03*
%TO.P,J1,3,Pin_3*%
%TO.N,USB_D+*%
X115570000Y-76184000D03*
%TO.P,J1,4,Pin_4*%
%TO.N,GND*%
X115570000Y-78184000D03*
%TD*%
D11*
%TO.P,U3,57,GND*%
%TO.N,GND*%
X120645000Y-81783000D03*
X123195000Y-84333000D03*
X121920000Y-84333000D03*
X120645000Y-83058000D03*
X123195000Y-83058000D03*
X121920000Y-83058000D03*
X121920000Y-81783000D03*
X120645000Y-84333000D03*
X123195000Y-81783000D03*
%TD*%
D10*
%TO.P,J2,1,Pin_1*%
%TO.N,BOOTSEL*%
X135128000Y-72183800D03*
%TO.P,J2,2,Pin_2*%
%TO.N,PLY_TGL*%
X135128000Y-74183800D03*
%TO.P,J2,3,Pin_3*%
%TO.N,AUD_OUT+*%
X135128000Y-76183800D03*
%TO.P,J2,4,Pin_4*%
%TO.N,AUD_OUT-*%
X135128000Y-78183800D03*
%TO.P,J2,5,Pin_5*%
%TO.N,DBG*%
X135128000Y-80183800D03*
%TD*%
D12*
%TO.P,U4,1,PLY_TGL*%
%TO.N,PLY_TGL*%
X132080000Y-75438000D03*
%TO.P,U4,2,DAT+*%
%TO.N,AUD_OUT+*%
X129540000Y-75438000D03*
%TO.P,U4,3,NC*%
%TO.N,unconnected-(U4-Pad3)*%
X127000000Y-75438000D03*
%TO.P,U4,4,GND*%
%TO.N,GND*%
X124460000Y-75438000D03*
%TO.P,U4,5,DAT-*%
%TO.N,AUD_OUT-*%
X121920000Y-75438000D03*
%TO.P,U4,6,VCC*%
%TO.N,VBUS*%
X119380000Y-75438000D03*
%TD*%
D13*
%TO.N,GND*%
X119964083Y-72252817D03*
X133376502Y-72898000D03*
X117244011Y-76990000D03*
X119634000Y-85344000D03*
X124640503Y-75920500D03*
X130112619Y-81753630D03*
X129667000Y-71311500D03*
X117244011Y-74676000D03*
X129032000Y-80137000D03*
%TO.N,+3V3*%
X132845755Y-77412502D03*
X120650000Y-78183980D03*
X126326000Y-80458000D03*
X117906800Y-79948630D03*
X125268627Y-79531627D03*
X128403866Y-73473825D03*
X122326400Y-78740000D03*
%TO.N,XIN*%
X119720500Y-83881531D03*
X129540000Y-86805500D03*
%TO.N,BOOTSEL*%
X130810000Y-71882000D03*
%TO.N,PLY_TGL*%
X124332150Y-85430466D03*
X133853486Y-75184000D03*
%TO.N,AUD_OUT+*%
X132909544Y-78959944D03*
X129670315Y-76127500D03*
%TO.N,AUD_OUT-*%
X133731000Y-79629000D03*
X133350000Y-70612000D03*
%TO.N,DBG*%
X125222000Y-86676500D03*
%TO.N,QSPI_SS*%
X120523000Y-70993000D03*
X118546225Y-79155675D03*
%TO.N,XOUT*%
X121999182Y-85462372D03*
X133412500Y-83439000D03*
%TO.N,QSPI_SD1*%
X117365702Y-78632169D03*
X116974356Y-71675982D03*
%TO.N,QSPI_SD2*%
X119560070Y-80648130D03*
X117094000Y-73152000D03*
%TO.N,QSPI_SD0*%
X122248058Y-72393905D03*
X119519500Y-81646807D03*
%TO.N,QSPI_CLK*%
X120983908Y-80842637D03*
X123952000Y-72581500D03*
%TO.N,QSPI_SD3*%
X123935180Y-81111989D03*
X128905000Y-78421500D03*
%TO.N,AUD+*%
X133096000Y-80772000D03*
X126769269Y-85367269D03*
%TD*%
D14*
%TO.N,VBUS*%
X119380000Y-73057012D02*
X117274459Y-70951471D01*
X119380000Y-75438000D02*
X119380000Y-73057012D01*
X115695020Y-71930704D02*
X115695020Y-72184000D01*
X116674253Y-70951471D02*
X115695020Y-71930704D01*
X117274459Y-70951471D02*
X116674253Y-70951471D01*
D15*
%TO.N,GND*%
X123063000Y-72339820D02*
X123063000Y-73000551D01*
X133376502Y-72898000D02*
X130695320Y-72898000D01*
X124091320Y-71311500D02*
X123063000Y-72339820D01*
X117244011Y-74676000D02*
X117244011Y-76990000D01*
D16*
X117141429Y-82982031D02*
X115870020Y-81710622D01*
D15*
X130695320Y-72898000D02*
X129667000Y-71869680D01*
D16*
X120645000Y-83058000D02*
X120569031Y-82982031D01*
D15*
X123063000Y-73000551D02*
X124460000Y-74397551D01*
D16*
X115870020Y-81710622D02*
X115870020Y-78184000D01*
D15*
X124460000Y-74397551D02*
X124460000Y-75438000D01*
D16*
X118796031Y-82982031D02*
X117141429Y-82982031D01*
X119634000Y-85344000D02*
X118796031Y-84506031D01*
D15*
X129667000Y-71869680D02*
X129667000Y-71311500D01*
D16*
X118796031Y-84506031D02*
X118796031Y-82982031D01*
D15*
X129667000Y-71311500D02*
X124091320Y-71311500D01*
D16*
X120569031Y-82982031D02*
X118796031Y-82982031D01*
D17*
%TO.N,+3V3*%
X130556000Y-78613000D02*
X130556000Y-77781006D01*
D15*
X120650000Y-78233380D02*
X118902794Y-79980586D01*
D17*
X130924504Y-77412502D02*
X132845755Y-77412502D01*
X126326000Y-80458000D02*
X127663000Y-79121000D01*
X130369825Y-73473825D02*
X128403866Y-73473825D01*
D15*
X122326400Y-78740000D02*
X124477000Y-78740000D01*
D17*
X130924504Y-77412502D02*
X130739511Y-77227509D01*
D15*
X124477000Y-78740000D02*
X125268627Y-79531627D01*
D17*
X130739511Y-73843511D02*
X130369825Y-73473825D01*
D15*
X120650000Y-78183980D02*
X120650000Y-78233380D01*
D17*
X130739511Y-77227509D02*
X130739511Y-73843511D01*
X130556000Y-77781006D02*
X130924504Y-77412502D01*
D15*
X118902794Y-79980586D02*
X117906800Y-79948630D01*
D17*
X127663000Y-79121000D02*
X130048000Y-79121000D01*
X130048000Y-79121000D02*
X130556000Y-78613000D01*
%TO.N,XIN*%
X128969489Y-87376011D02*
X129540000Y-86805500D01*
X119720500Y-84256338D02*
X122840173Y-87376011D01*
X119720500Y-83881531D02*
X119720500Y-84256338D01*
X122840173Y-87376011D02*
X128969489Y-87376011D01*
%TO.N,BOOTSEL*%
X134810000Y-71882000D02*
X135027980Y-72099980D01*
X135027980Y-72099980D02*
X135027980Y-72200000D01*
X130810000Y-71882000D02*
X134810000Y-71882000D01*
%TO.N,PLY_TGL*%
X133553200Y-75484286D02*
X133853486Y-75184000D01*
X132207000Y-81622022D02*
X132207000Y-78673245D01*
X132372978Y-81788000D02*
X132207000Y-81622022D01*
X133109023Y-78138493D02*
X133553200Y-77694316D01*
X133553200Y-77694316D02*
X133553200Y-75484286D01*
X134146997Y-83924991D02*
X134146997Y-82695548D01*
X133599486Y-75438000D02*
X132080000Y-75438000D01*
X125094858Y-84667758D02*
X133404230Y-84667758D01*
X132741752Y-78138493D02*
X133109023Y-78138493D01*
X134146997Y-82695548D02*
X133239449Y-81788000D01*
X133404230Y-84667758D02*
X134146997Y-83924991D01*
X124332150Y-85430466D02*
X125094858Y-84667758D01*
X133853486Y-75184000D02*
X133599486Y-75438000D01*
X132207000Y-78673245D02*
X132741752Y-78138493D01*
X133239449Y-81788000D02*
X132372978Y-81788000D01*
%TO.N,AUD_OUT+*%
X132909544Y-78538013D02*
X133274510Y-78538012D01*
X133952720Y-77273680D02*
X135026400Y-76200000D01*
X133274510Y-78538012D02*
X133952720Y-77859802D01*
X133952720Y-77859802D02*
X133952720Y-77273680D01*
X135026400Y-76200000D02*
X135027980Y-76200000D01*
X132909544Y-78959944D02*
X132909544Y-78538013D01*
%TO.N,AUD_OUT-*%
X121412000Y-72545763D02*
X121412000Y-71374000D01*
X135027980Y-78332020D02*
X135027980Y-78300020D01*
X122174000Y-70612000D02*
X133350000Y-70612000D01*
X133731000Y-79629000D02*
X135027980Y-78332020D01*
X121728489Y-72862252D02*
X121412000Y-72545763D01*
X121728489Y-75246489D02*
X121728489Y-72862252D01*
X121412000Y-71374000D02*
X122174000Y-70612000D01*
X121920000Y-75438000D02*
X121728489Y-75246489D01*
%TO.N,DBG*%
X135027980Y-84174020D02*
X135027980Y-80200000D01*
X133096000Y-86106000D02*
X135027980Y-84174020D01*
X125792500Y-86106000D02*
X133096000Y-86106000D01*
X125222000Y-86676500D02*
X125792500Y-86106000D01*
%TO.N,QSPI_SS*%
X118608725Y-79155675D02*
X120663594Y-77100806D01*
X118546225Y-79155675D02*
X118608725Y-79155675D01*
X120663594Y-71133594D02*
X120523000Y-70993000D01*
X120663594Y-77100806D02*
X120663594Y-71133594D01*
%TO.N,XOUT*%
X132625100Y-84226400D02*
X133412500Y-83439000D01*
X124460000Y-84226400D02*
X132625100Y-84226400D01*
X121999182Y-85462372D02*
X123224028Y-85462372D01*
X123224028Y-85462372D02*
X124460000Y-84226400D01*
%TO.N,QSPI_SD1*%
X117943522Y-77279748D02*
X117943522Y-72645148D01*
X117602000Y-77621270D02*
X117943522Y-77279748D01*
X117943522Y-72645148D02*
X116974356Y-71675982D01*
X117365702Y-78632169D02*
X117602000Y-78395871D01*
X117602000Y-78395871D02*
X117602000Y-77621270D01*
%TO.N,QSPI_SD2*%
X116544511Y-79917711D02*
X116544511Y-73701489D01*
X116544511Y-73701489D02*
X117094000Y-73152000D01*
X117274930Y-80648130D02*
X116544511Y-79917711D01*
X119560070Y-80648130D02*
X117274930Y-80648130D01*
%TO.N,QSPI_SD0*%
X123190000Y-76962000D02*
X123190000Y-73833978D01*
X119519500Y-81646807D02*
X119550652Y-81646807D01*
X122248058Y-72892036D02*
X122248058Y-72393905D01*
D18*
X120259581Y-80937878D02*
X120259581Y-80502019D01*
X123074489Y-77077511D02*
X123190000Y-76962000D01*
X121314511Y-77821489D02*
X122058489Y-77077511D01*
D17*
X123190000Y-73833978D02*
X122248058Y-72892036D01*
D18*
X122058489Y-77077511D02*
X123074489Y-77077511D01*
X120259581Y-80502019D02*
X121314511Y-79447089D01*
X121314511Y-79447089D02*
X121314511Y-77821489D01*
X119550652Y-81646807D02*
X120259581Y-80937878D01*
%TO.N,QSPI_CLK*%
X125364991Y-77407031D02*
X125659511Y-77112511D01*
D17*
X125730000Y-77042022D02*
X125730000Y-73833978D01*
X125659511Y-77112511D02*
X125730000Y-77042022D01*
D18*
X121644031Y-80182514D02*
X121644031Y-77957981D01*
X121644031Y-77957981D02*
X122194981Y-77407031D01*
X120983908Y-80842637D02*
X121644031Y-80182514D01*
D17*
X125730000Y-73833978D02*
X124477522Y-72581500D01*
D18*
X122194981Y-77407031D02*
X125364991Y-77407031D01*
D17*
X124477522Y-72581500D02*
X123952000Y-72581500D01*
D18*
%TO.N,QSPI_SD3*%
X123935180Y-81111989D02*
X124628011Y-81111989D01*
X127318500Y-78421500D02*
X128905000Y-78421500D01*
X124628011Y-81111989D02*
X127318500Y-78421500D01*
D17*
%TO.N,AUD+*%
X126769269Y-85367269D02*
X127000000Y-85598000D01*
X127000000Y-85598000D02*
X133038994Y-85598000D01*
X134628460Y-82304460D02*
X133096000Y-80772000D01*
X133038994Y-85598000D02*
X134628460Y-84008534D01*
X134628460Y-84008534D02*
X134628460Y-82304460D01*
%TD*%
%TA.AperFunction,Conductor*%
%TO.N,GND*%
G36*
X116286512Y-80520715D02*
G01*
X116293095Y-80526844D01*
X116810615Y-81044364D01*
X116821482Y-81056755D01*
X116840943Y-81082117D01*
X116847493Y-81087143D01*
X116872851Y-81106601D01*
X116872858Y-81106607D01*
X116912293Y-81136866D01*
X116968055Y-81179654D01*
X117116080Y-81240968D01*
X117235045Y-81256630D01*
X117235050Y-81256630D01*
X117235059Y-81256631D01*
X117266742Y-81260802D01*
X117274930Y-81261880D01*
X117306623Y-81257708D01*
X117323066Y-81256630D01*
X118517599Y-81256630D01*
X118585720Y-81276632D01*
X118632213Y-81330288D01*
X118642317Y-81400562D01*
X118637432Y-81421566D01*
X118625958Y-81456879D01*
X118625268Y-81463440D01*
X118625268Y-81463442D01*
X118619924Y-81514290D01*
X118605996Y-81646807D01*
X118606686Y-81653372D01*
X118620889Y-81788502D01*
X118625958Y-81836735D01*
X118684973Y-82018363D01*
X118688276Y-82024085D01*
X118688277Y-82024086D01*
X118703815Y-82050999D01*
X118780460Y-82183751D01*
X118908247Y-82325673D01*
X118984175Y-82380838D01*
X119056399Y-82433312D01*
X119062748Y-82437925D01*
X119068776Y-82440609D01*
X119068778Y-82440610D01*
X119231181Y-82512916D01*
X119237212Y-82515601D01*
X119330613Y-82535454D01*
X119417556Y-82553935D01*
X119417561Y-82553935D01*
X119424013Y-82555307D01*
X119614987Y-82555307D01*
X119621439Y-82553935D01*
X119621444Y-82553935D01*
X119733029Y-82530216D01*
X119776642Y-82520946D01*
X119847432Y-82526348D01*
X119904064Y-82569165D01*
X119928558Y-82635802D01*
X119916464Y-82696381D01*
X119916685Y-82696461D01*
X119916160Y-82697904D01*
X119915698Y-82700217D01*
X119914273Y-82703087D01*
X119857096Y-82860182D01*
X119853110Y-82876658D01*
X119817651Y-82938166D01*
X119754568Y-82970739D01*
X119730643Y-82973031D01*
X119625013Y-82973031D01*
X119618561Y-82974403D01*
X119618556Y-82974403D01*
X119539690Y-82991167D01*
X119438212Y-83012737D01*
X119432182Y-83015422D01*
X119432181Y-83015422D01*
X119269778Y-83087728D01*
X119269776Y-83087729D01*
X119263748Y-83090413D01*
X119109247Y-83202665D01*
X118981460Y-83344587D01*
X118885973Y-83509975D01*
X118826958Y-83691603D01*
X118826268Y-83698164D01*
X118826268Y-83698166D01*
X118815674Y-83798964D01*
X118806996Y-83881531D01*
X118826958Y-84071459D01*
X118885973Y-84253087D01*
X118981460Y-84418475D01*
X119109247Y-84560397D01*
X119263748Y-84672649D01*
X119265866Y-84673592D01*
X119284854Y-84688163D01*
X119286513Y-84690325D01*
X119293059Y-84695348D01*
X119293062Y-84695351D01*
X119311879Y-84709790D01*
X119324270Y-84720657D01*
X121510518Y-86906905D01*
X121544544Y-86969217D01*
X121539479Y-87040032D01*
X121496932Y-87096868D01*
X121430412Y-87121679D01*
X121421423Y-87122000D01*
X116004000Y-87122000D01*
X115935879Y-87101998D01*
X115889386Y-87048342D01*
X115878000Y-86996000D01*
X115878000Y-85149502D01*
X115878002Y-85148732D01*
X115878421Y-85080122D01*
X115878476Y-85071148D01*
X115876010Y-85062519D01*
X115876009Y-85062514D01*
X115870361Y-85042752D01*
X115866783Y-85025991D01*
X115863870Y-85005648D01*
X115863867Y-85005638D01*
X115862595Y-84996755D01*
X115851979Y-84973405D01*
X115845536Y-84955893D01*
X115840954Y-84939863D01*
X115838488Y-84931235D01*
X115822726Y-84906252D01*
X115814596Y-84891186D01*
X115802367Y-84864290D01*
X115785626Y-84844861D01*
X115774521Y-84829853D01*
X115765630Y-84815761D01*
X115760840Y-84808169D01*
X115738703Y-84788618D01*
X115726659Y-84776426D01*
X115713239Y-84760851D01*
X115713237Y-84760850D01*
X115707381Y-84754053D01*
X115699853Y-84749174D01*
X115699850Y-84749171D01*
X115685861Y-84740104D01*
X115670987Y-84728814D01*
X115658502Y-84717788D01*
X115651772Y-84711844D01*
X115643646Y-84708029D01*
X115643645Y-84708028D01*
X115637979Y-84705368D01*
X115625034Y-84699290D01*
X115610065Y-84690976D01*
X115585273Y-84674907D01*
X115560709Y-84667561D01*
X115543264Y-84660899D01*
X115520052Y-84650001D01*
X115490870Y-84645457D01*
X115474151Y-84641674D01*
X115454464Y-84635786D01*
X115454461Y-84635785D01*
X115445859Y-84633213D01*
X115436884Y-84633158D01*
X115436883Y-84633158D01*
X115430190Y-84633117D01*
X115411444Y-84633003D01*
X115410672Y-84632970D01*
X115409577Y-84632800D01*
X115378702Y-84632800D01*
X115377932Y-84632798D01*
X115304284Y-84632348D01*
X115304283Y-84632348D01*
X115300348Y-84632324D01*
X115299004Y-84632708D01*
X115297659Y-84632800D01*
X115188000Y-84632800D01*
X115119879Y-84612798D01*
X115073386Y-84559142D01*
X115062000Y-84506800D01*
X115062000Y-83192800D01*
X115082002Y-83124679D01*
X115135658Y-83078186D01*
X115188000Y-83066800D01*
X115561298Y-83066800D01*
X115562069Y-83066802D01*
X115639652Y-83067276D01*
X115648281Y-83064810D01*
X115648286Y-83064809D01*
X115668048Y-83059161D01*
X115684809Y-83055583D01*
X115705152Y-83052670D01*
X115705162Y-83052667D01*
X115714045Y-83051395D01*
X115737395Y-83040779D01*
X115754907Y-83034336D01*
X115770937Y-83029754D01*
X115779565Y-83027288D01*
X115804548Y-83011526D01*
X115819614Y-83003396D01*
X115846510Y-82991167D01*
X115865939Y-82974426D01*
X115880947Y-82963321D01*
X115895039Y-82954430D01*
X115902631Y-82949640D01*
X115922182Y-82927503D01*
X115934374Y-82915459D01*
X115949949Y-82902039D01*
X115949950Y-82902037D01*
X115956747Y-82896181D01*
X115961626Y-82888653D01*
X115961629Y-82888650D01*
X115970696Y-82874661D01*
X115981986Y-82859787D01*
X115993012Y-82847302D01*
X115998956Y-82840572D01*
X116011510Y-82813834D01*
X116019824Y-82798865D01*
X116035893Y-82774073D01*
X116043239Y-82749509D01*
X116049901Y-82732064D01*
X116056983Y-82716979D01*
X116060799Y-82708852D01*
X116065343Y-82679670D01*
X116069126Y-82662951D01*
X116075014Y-82643264D01*
X116075015Y-82643261D01*
X116077587Y-82634659D01*
X116077797Y-82600244D01*
X116077830Y-82599472D01*
X116078000Y-82598377D01*
X116078000Y-82567502D01*
X116078002Y-82566732D01*
X116078452Y-82493084D01*
X116078452Y-82493083D01*
X116078476Y-82489148D01*
X116078092Y-82487804D01*
X116078000Y-82486459D01*
X116078000Y-80615939D01*
X116098002Y-80547818D01*
X116151658Y-80501325D01*
X116221932Y-80491221D01*
X116286512Y-80520715D01*
G37*
%TD.AperFunction*%
%TA.AperFunction,Conductor*%
G36*
X131756724Y-78041004D02*
G01*
X131803217Y-78094660D01*
X131813321Y-78164934D01*
X131783827Y-78229514D01*
X131779113Y-78234578D01*
X131773013Y-78239258D01*
X131748526Y-78271170D01*
X131748523Y-78271173D01*
X131675476Y-78366369D01*
X131620900Y-78498128D01*
X131614162Y-78514395D01*
X131598500Y-78633360D01*
X131598500Y-78633365D01*
X131593250Y-78673245D01*
X131594328Y-78681433D01*
X131597422Y-78704935D01*
X131598500Y-78721381D01*
X131598500Y-81573886D01*
X131597422Y-81590329D01*
X131593250Y-81622022D01*
X131598500Y-81661902D01*
X131598500Y-81661907D01*
X131602292Y-81690709D01*
X131614162Y-81780873D01*
X131675476Y-81928898D01*
X131680503Y-81935449D01*
X131680504Y-81935451D01*
X131748520Y-82024091D01*
X131748526Y-82024097D01*
X131773013Y-82056009D01*
X131779568Y-82061039D01*
X131798379Y-82075474D01*
X131810770Y-82086341D01*
X131908663Y-82184234D01*
X131919530Y-82196625D01*
X131938991Y-82221987D01*
X131945541Y-82227013D01*
X131970899Y-82246471D01*
X131970906Y-82246477D01*
X131994492Y-82264575D01*
X132066103Y-82319524D01*
X132137832Y-82349235D01*
X132205010Y-82377061D01*
X132214128Y-82380838D01*
X132333093Y-82396500D01*
X132333098Y-82396500D01*
X132333107Y-82396501D01*
X132364790Y-82400672D01*
X132372978Y-82401750D01*
X132404671Y-82397578D01*
X132421114Y-82396500D01*
X132927577Y-82396500D01*
X132995698Y-82416502D01*
X133042191Y-82470158D01*
X133052295Y-82540432D01*
X133022801Y-82605012D01*
X132978826Y-82637607D01*
X132961778Y-82645197D01*
X132961776Y-82645198D01*
X132955748Y-82647882D01*
X132801247Y-82760134D01*
X132796826Y-82765044D01*
X132796825Y-82765045D01*
X132698127Y-82874661D01*
X132673460Y-82902056D01*
X132631690Y-82974403D01*
X132595604Y-83036907D01*
X132577973Y-83067444D01*
X132518958Y-83249072D01*
X132518268Y-83255633D01*
X132518268Y-83255635D01*
X132509435Y-83339679D01*
X132498996Y-83439000D01*
X132499184Y-83440786D01*
X132479684Y-83507196D01*
X132462781Y-83528170D01*
X132409956Y-83580995D01*
X132347644Y-83615021D01*
X132320861Y-83617900D01*
X124508136Y-83617900D01*
X124491690Y-83616822D01*
X124468188Y-83613728D01*
X124460000Y-83612650D01*
X124451812Y-83613728D01*
X124420129Y-83617899D01*
X124420120Y-83617900D01*
X124420115Y-83617900D01*
X124301150Y-83633562D01*
X124153125Y-83694876D01*
X124153123Y-83694877D01*
X124153124Y-83694877D01*
X124057928Y-83767923D01*
X124057925Y-83767926D01*
X124026013Y-83792413D01*
X124020987Y-83798963D01*
X124020986Y-83798964D01*
X124006551Y-83817776D01*
X123995684Y-83830166D01*
X123253415Y-84572435D01*
X123191103Y-84606461D01*
X123120288Y-84601396D01*
X123075225Y-84572435D01*
X122924885Y-84422095D01*
X122890859Y-84359783D01*
X122895924Y-84288968D01*
X122924885Y-84243905D01*
X123460480Y-83708310D01*
X123468092Y-83694370D01*
X123467960Y-83692534D01*
X123463709Y-83685919D01*
X122924885Y-83147095D01*
X122890859Y-83084783D01*
X122892694Y-83059132D01*
X123559408Y-83059132D01*
X123559539Y-83060966D01*
X123563790Y-83067579D01*
X123907504Y-83411293D01*
X123919879Y-83418050D01*
X123923696Y-83415193D01*
X123980065Y-83266802D01*
X123983549Y-83253233D01*
X124007244Y-83084627D01*
X124007851Y-83076741D01*
X124008058Y-83061962D01*
X124007671Y-83054061D01*
X123988692Y-82884855D01*
X123985590Y-82871202D01*
X123930610Y-82713322D01*
X123927281Y-82706372D01*
X123918605Y-82698659D01*
X123909558Y-82702653D01*
X123567021Y-83045189D01*
X123559408Y-83059132D01*
X122892694Y-83059132D01*
X122895924Y-83013968D01*
X122924885Y-82968905D01*
X123195000Y-82698790D01*
X123460477Y-82433312D01*
X123468091Y-82419368D01*
X123467960Y-82417533D01*
X123463712Y-82410923D01*
X122835790Y-81783000D01*
X122570311Y-81517522D01*
X122556368Y-81509909D01*
X122554533Y-81510040D01*
X122547920Y-81514290D01*
X122009095Y-82053115D01*
X121946783Y-82087141D01*
X121875968Y-82082076D01*
X121830905Y-82053115D01*
X121649885Y-81872095D01*
X121615859Y-81809783D01*
X121620924Y-81738968D01*
X121649885Y-81693905D01*
X122272913Y-81070877D01*
X122279671Y-81058500D01*
X122275105Y-81052400D01*
X122269802Y-81049813D01*
X122112309Y-80993732D01*
X122098684Y-80990536D01*
X122007804Y-80979700D01*
X121942530Y-80951773D01*
X121902717Y-80892990D01*
X121896722Y-80854586D01*
X121896722Y-80849202D01*
X121897412Y-80842637D01*
X121893950Y-80809696D01*
X121906723Y-80739857D01*
X121930165Y-80707431D01*
X122017134Y-80620462D01*
X122029525Y-80609595D01*
X122046506Y-80596565D01*
X122053056Y-80591539D01*
X122144983Y-80471738D01*
X122202770Y-80332228D01*
X122217531Y-80220106D01*
X122222480Y-80182514D01*
X122218609Y-80153109D01*
X122217531Y-80136664D01*
X122217531Y-79774500D01*
X122237533Y-79706379D01*
X122291189Y-79659886D01*
X122343531Y-79648500D01*
X122421887Y-79648500D01*
X122428339Y-79647128D01*
X122428344Y-79647128D01*
X122515287Y-79628647D01*
X122608688Y-79608794D01*
X122630839Y-79598932D01*
X122777122Y-79533803D01*
X122777124Y-79533802D01*
X122783152Y-79531118D01*
X122863744Y-79472564D01*
X122930611Y-79448706D01*
X122937805Y-79448500D01*
X124131340Y-79448500D01*
X124199461Y-79468502D01*
X124220435Y-79485405D01*
X124333962Y-79598932D01*
X124367988Y-79661244D01*
X124370177Y-79674855D01*
X124375085Y-79721555D01*
X124377125Y-79727832D01*
X124377125Y-79727834D01*
X124377667Y-79729501D01*
X124434100Y-79903183D01*
X124529587Y-80068571D01*
X124606308Y-80153778D01*
X124637025Y-80217786D01*
X124628260Y-80288239D01*
X124601766Y-80327183D01*
X124593217Y-80335732D01*
X124530905Y-80369758D01*
X124460090Y-80364693D01*
X124430062Y-80348574D01*
X124412386Y-80335732D01*
X124391932Y-80320871D01*
X124385904Y-80318187D01*
X124385902Y-80318186D01*
X124223499Y-80245880D01*
X124223498Y-80245880D01*
X124217468Y-80243195D01*
X124124067Y-80223342D01*
X124037124Y-80204861D01*
X124037119Y-80204861D01*
X124030667Y-80203489D01*
X123839693Y-80203489D01*
X123833241Y-80204861D01*
X123833236Y-80204861D01*
X123746293Y-80223342D01*
X123652892Y-80243195D01*
X123646862Y-80245880D01*
X123646861Y-80245880D01*
X123484458Y-80318186D01*
X123484456Y-80318187D01*
X123478428Y-80320871D01*
X123473087Y-80324751D01*
X123473086Y-80324752D01*
X123452296Y-80339857D01*
X123323927Y-80433123D01*
X123319506Y-80438033D01*
X123319505Y-80438034D01*
X123283258Y-80478291D01*
X123196140Y-80575045D01*
X123100653Y-80740433D01*
X123041638Y-80922061D01*
X123040550Y-80921708D01*
X123009902Y-80978473D01*
X122960991Y-81009078D01*
X122855463Y-81045002D01*
X122844855Y-81049994D01*
X122836016Y-81059799D01*
X122839840Y-81068629D01*
X123007642Y-81236431D01*
X123041263Y-81298353D01*
X123041638Y-81301917D01*
X123100653Y-81483545D01*
X123196140Y-81648933D01*
X123323927Y-81790855D01*
X123478428Y-81903107D01*
X123484456Y-81905791D01*
X123484458Y-81905792D01*
X123551074Y-81935451D01*
X123652892Y-81980783D01*
X123659347Y-81982155D01*
X123659350Y-81982156D01*
X123710796Y-81993091D01*
X123742239Y-81999774D01*
X123805137Y-82033926D01*
X123907500Y-82136289D01*
X123919880Y-82143049D01*
X123923696Y-82140192D01*
X123939371Y-82098929D01*
X123982260Y-82042351D01*
X124030961Y-82020427D01*
X124217468Y-81980783D01*
X124319286Y-81935451D01*
X124385902Y-81905792D01*
X124385904Y-81905791D01*
X124391932Y-81903107D01*
X124546433Y-81790855D01*
X124606932Y-81723663D01*
X124667379Y-81686423D01*
X124684122Y-81683051D01*
X124688581Y-81682464D01*
X124703499Y-81680500D01*
X124732784Y-81676645D01*
X124769538Y-81671806D01*
X124769539Y-81671806D01*
X124777725Y-81670728D01*
X124917235Y-81612941D01*
X124977136Y-81566977D01*
X125030483Y-81526043D01*
X125030486Y-81526040D01*
X125037036Y-81521014D01*
X125045457Y-81510040D01*
X125055096Y-81497479D01*
X125065963Y-81485088D01*
X125478455Y-81072596D01*
X125540767Y-81038570D01*
X125611582Y-81043635D01*
X125661185Y-81077379D01*
X125714747Y-81136866D01*
X125777989Y-81182814D01*
X125858031Y-81240968D01*
X125869248Y-81249118D01*
X125875276Y-81251802D01*
X125875278Y-81251803D01*
X126004678Y-81309415D01*
X126043712Y-81326794D01*
X126137113Y-81346647D01*
X126224056Y-81365128D01*
X126224061Y-81365128D01*
X126230513Y-81366500D01*
X126421487Y-81366500D01*
X126427939Y-81365128D01*
X126427944Y-81365128D01*
X126514887Y-81346647D01*
X126608288Y-81326794D01*
X126647322Y-81309415D01*
X126776722Y-81251803D01*
X126776724Y-81251802D01*
X126782752Y-81249118D01*
X126793970Y-81240968D01*
X126874011Y-81182814D01*
X126937253Y-81136866D01*
X126986549Y-81082117D01*
X127060621Y-80999852D01*
X127060622Y-80999851D01*
X127065040Y-80994944D01*
X127160527Y-80829556D01*
X127219542Y-80647928D01*
X127224941Y-80596565D01*
X127238814Y-80464565D01*
X127239504Y-80458000D01*
X127239316Y-80456214D01*
X127258816Y-80389804D01*
X127275719Y-80368830D01*
X127878144Y-79766405D01*
X127940456Y-79732379D01*
X127967239Y-79729500D01*
X129999864Y-79729500D01*
X130016307Y-79730578D01*
X130048000Y-79734750D01*
X130056189Y-79733672D01*
X130087874Y-79729501D01*
X130087884Y-79729500D01*
X130087885Y-79729500D01*
X130100540Y-79727834D01*
X130187457Y-79716391D01*
X130198664Y-79714916D01*
X130198666Y-79714915D01*
X130206851Y-79713838D01*
X130354876Y-79652524D01*
X130361909Y-79647128D01*
X130450072Y-79579477D01*
X130450075Y-79579474D01*
X130475434Y-79560015D01*
X130481987Y-79554987D01*
X130487017Y-79548432D01*
X130501452Y-79529621D01*
X130512319Y-79517230D01*
X130952234Y-79077315D01*
X130964625Y-79066448D01*
X130983437Y-79052013D01*
X130989987Y-79046987D01*
X131014474Y-79015075D01*
X131014477Y-79015072D01*
X131083700Y-78924858D01*
X131087524Y-78919875D01*
X131148838Y-78771850D01*
X131164500Y-78652885D01*
X131164500Y-78652878D01*
X131169750Y-78613000D01*
X131165578Y-78581307D01*
X131164500Y-78564864D01*
X131164500Y-78147002D01*
X131184502Y-78078881D01*
X131238158Y-78032388D01*
X131290500Y-78021002D01*
X131688603Y-78021002D01*
X131756724Y-78041004D01*
G37*
%TD.AperFunction*%
%TA.AperFunction,Conductor*%
G36*
X133886621Y-72510502D02*
G01*
X133933114Y-72564158D01*
X133944500Y-72616500D01*
X133944500Y-72906934D01*
X133951255Y-72969116D01*
X134002385Y-73105505D01*
X134007771Y-73112691D01*
X134012079Y-73120560D01*
X134009553Y-73121943D01*
X134029279Y-73174742D01*
X134014226Y-73244124D01*
X134010507Y-73249912D01*
X134007772Y-73254907D01*
X134002385Y-73262095D01*
X133951255Y-73398484D01*
X133944500Y-73460666D01*
X133944500Y-74149500D01*
X133924498Y-74217621D01*
X133870842Y-74264114D01*
X133818500Y-74275500D01*
X133757999Y-74275500D01*
X133751547Y-74276872D01*
X133751542Y-74276872D01*
X133640697Y-74300433D01*
X133569906Y-74295031D01*
X133513273Y-74252214D01*
X133488780Y-74185576D01*
X133488500Y-74177186D01*
X133488500Y-74014866D01*
X133481745Y-73952684D01*
X133430615Y-73816295D01*
X133343261Y-73699739D01*
X133226705Y-73612385D01*
X133090316Y-73561255D01*
X133028134Y-73554500D01*
X131346879Y-73554500D01*
X131278758Y-73534498D01*
X131246917Y-73505204D01*
X131197988Y-73441439D01*
X131197987Y-73441438D01*
X131178528Y-73416078D01*
X131178524Y-73416074D01*
X131173498Y-73409524D01*
X131148135Y-73390062D01*
X131135744Y-73379196D01*
X130834140Y-73077591D01*
X130823274Y-73065201D01*
X130808839Y-73046389D01*
X130808838Y-73046388D01*
X130803812Y-73039838D01*
X130797262Y-73034812D01*
X130797259Y-73034809D01*
X130773348Y-73016462D01*
X130731481Y-72959124D01*
X130727259Y-72888253D01*
X130762023Y-72826350D01*
X130824736Y-72793069D01*
X130850052Y-72790500D01*
X130905487Y-72790500D01*
X130911939Y-72789128D01*
X130911944Y-72789128D01*
X130998887Y-72770647D01*
X131092288Y-72750794D01*
X131098319Y-72748109D01*
X131260722Y-72675803D01*
X131260724Y-72675802D01*
X131266752Y-72673118D01*
X131297114Y-72651059D01*
X131415116Y-72565325D01*
X131421253Y-72560866D01*
X131447074Y-72532189D01*
X131507520Y-72494950D01*
X131540710Y-72490500D01*
X133818500Y-72490500D01*
X133886621Y-72510502D01*
G37*
%TD.AperFunction*%
%TA.AperFunction,Conductor*%
G36*
X129992755Y-71240502D02*
G01*
X130039248Y-71294158D01*
X130049352Y-71364432D01*
X130033753Y-71409500D01*
X129975473Y-71510444D01*
X129916458Y-71692072D01*
X129915768Y-71698633D01*
X129915768Y-71698635D01*
X129899128Y-71856961D01*
X129896496Y-71882000D01*
X129897186Y-71888565D01*
X129913819Y-72046816D01*
X129916458Y-72071928D01*
X129975473Y-72253556D01*
X130070960Y-72418944D01*
X130075378Y-72423851D01*
X130075379Y-72423852D01*
X130172926Y-72532189D01*
X130198747Y-72560866D01*
X130244988Y-72594462D01*
X130304071Y-72637389D01*
X130347425Y-72693612D01*
X130353500Y-72764348D01*
X130320368Y-72827139D01*
X130258548Y-72862051D01*
X130230010Y-72865325D01*
X129134576Y-72865325D01*
X129066455Y-72845323D01*
X129040940Y-72823636D01*
X129019534Y-72799862D01*
X129019532Y-72799861D01*
X129015119Y-72794959D01*
X128896562Y-72708822D01*
X128865960Y-72686588D01*
X128865959Y-72686587D01*
X128860618Y-72682707D01*
X128854590Y-72680023D01*
X128854588Y-72680022D01*
X128692185Y-72607716D01*
X128692184Y-72607716D01*
X128686154Y-72605031D01*
X128585913Y-72583724D01*
X128505810Y-72566697D01*
X128505805Y-72566697D01*
X128499353Y-72565325D01*
X128308379Y-72565325D01*
X128301927Y-72566697D01*
X128301922Y-72566697D01*
X128221819Y-72583724D01*
X128121578Y-72605031D01*
X128115548Y-72607716D01*
X128115547Y-72607716D01*
X127953144Y-72680022D01*
X127953142Y-72680023D01*
X127947114Y-72682707D01*
X127941773Y-72686587D01*
X127941772Y-72686588D01*
X127911170Y-72708822D01*
X127792613Y-72794959D01*
X127788192Y-72799869D01*
X127788191Y-72799870D01*
X127719824Y-72875800D01*
X127664826Y-72936881D01*
X127569339Y-73102269D01*
X127510324Y-73283897D01*
X127494769Y-73431903D01*
X127493742Y-73441670D01*
X127466729Y-73507327D01*
X127408508Y-73547957D01*
X127368432Y-73554500D01*
X126344683Y-73554500D01*
X126276562Y-73534498D01*
X126244720Y-73505204D01*
X126230831Y-73487103D01*
X126188477Y-73431906D01*
X126188474Y-73431903D01*
X126163987Y-73399991D01*
X126144494Y-73385033D01*
X126138621Y-73380526D01*
X126126230Y-73369659D01*
X124941837Y-72185266D01*
X124930970Y-72172875D01*
X124916535Y-72154063D01*
X124911509Y-72147513D01*
X124879597Y-72123026D01*
X124879594Y-72123023D01*
X124821188Y-72078206D01*
X124790951Y-72055004D01*
X124790949Y-72055003D01*
X124784398Y-72049976D01*
X124717123Y-72022110D01*
X124669634Y-72002439D01*
X124624216Y-71970341D01*
X124563253Y-71902634D01*
X124408752Y-71790382D01*
X124402724Y-71787698D01*
X124402722Y-71787697D01*
X124240319Y-71715391D01*
X124240318Y-71715391D01*
X124234288Y-71712706D01*
X124137213Y-71692072D01*
X124053944Y-71674372D01*
X124053939Y-71674372D01*
X124047487Y-71673000D01*
X123856513Y-71673000D01*
X123850061Y-71674372D01*
X123850056Y-71674372D01*
X123766787Y-71692072D01*
X123669712Y-71712706D01*
X123663682Y-71715391D01*
X123663681Y-71715391D01*
X123501278Y-71787697D01*
X123501276Y-71787698D01*
X123495248Y-71790382D01*
X123340747Y-71902634D01*
X123276565Y-71973916D01*
X123257377Y-71995226D01*
X123196931Y-72032466D01*
X123125948Y-72031114D01*
X123066963Y-71991601D01*
X123054622Y-71973916D01*
X123013467Y-71902634D01*
X122987098Y-71856961D01*
X122924733Y-71787697D01*
X122863733Y-71719950D01*
X122863732Y-71719949D01*
X122859311Y-71715039D01*
X122704810Y-71602787D01*
X122698782Y-71600103D01*
X122698780Y-71600102D01*
X122536377Y-71527796D01*
X122536376Y-71527796D01*
X122530346Y-71525111D01*
X122523891Y-71523739D01*
X122523882Y-71523736D01*
X122420109Y-71501678D01*
X122357636Y-71467950D01*
X122323315Y-71405800D01*
X122328043Y-71334961D01*
X122357212Y-71289337D01*
X122389144Y-71257405D01*
X122451456Y-71223379D01*
X122478239Y-71220500D01*
X129924634Y-71220500D01*
X129992755Y-71240502D01*
G37*
%TD.AperFunction*%
%TA.AperFunction,Conductor*%
G36*
X119690455Y-70378002D02*
G01*
X119736948Y-70431658D01*
X119747052Y-70501932D01*
X119731453Y-70547000D01*
X119691777Y-70615721D01*
X119688473Y-70621444D01*
X119629458Y-70803072D01*
X119609496Y-70993000D01*
X119629458Y-71182928D01*
X119688473Y-71364556D01*
X119783960Y-71529944D01*
X119788378Y-71534851D01*
X119788379Y-71534852D01*
X119907325Y-71666955D01*
X119911747Y-71671866D01*
X119917089Y-71675747D01*
X119917091Y-71675749D01*
X120003155Y-71738278D01*
X120046509Y-71794500D01*
X120055094Y-71840214D01*
X120055094Y-72526341D01*
X120035092Y-72594462D01*
X119981436Y-72640955D01*
X119911162Y-72651059D01*
X119846726Y-72621631D01*
X119845472Y-72619905D01*
X119827493Y-72605031D01*
X119811395Y-72591714D01*
X119802616Y-72583724D01*
X117791988Y-70573095D01*
X117757962Y-70510783D01*
X117763027Y-70439967D01*
X117805574Y-70383132D01*
X117872094Y-70358321D01*
X117881083Y-70358000D01*
X119622334Y-70358000D01*
X119690455Y-70378002D01*
G37*
%TD.AperFunction*%
%TD*%
M02*
