%TF.GenerationSoftware,KiCad,Pcbnew,(6.0.2-0)*%
%TF.CreationDate,2022-06-01T12:35:39-04:00*%
%TF.ProjectId,hitclips_2040,68697463-6c69-4707-935f-323034302e6b,rev?*%
%TF.SameCoordinates,Original*%
%TF.FileFunction,Legend,Top*%
%TF.FilePolarity,Positive*%
%FSLAX46Y46*%
G04 Gerber Fmt 4.6, Leading zero omitted, Abs format (unit mm)*
G04 Created by KiCad (PCBNEW (6.0.2-0)) date 2022-06-01 12:35:39*
%MOMM*%
%LPD*%
G01*
G04 APERTURE LIST*
%ADD10C,0.150000*%
%ADD11C,0.125000*%
%ADD12C,0.120000*%
G04 APERTURE END LIST*
D10*
%TO.C,R5*%
X133956380Y-83986666D02*
X133480190Y-84320000D01*
X133956380Y-84558095D02*
X132956380Y-84558095D01*
X132956380Y-84177142D01*
X133004000Y-84081904D01*
X133051619Y-84034285D01*
X133146857Y-83986666D01*
X133289714Y-83986666D01*
X133384952Y-84034285D01*
X133432571Y-84081904D01*
X133480190Y-84177142D01*
X133480190Y-84558095D01*
X132956380Y-83081904D02*
X132956380Y-83558095D01*
X133432571Y-83605714D01*
X133384952Y-83558095D01*
X133337333Y-83462857D01*
X133337333Y-83224761D01*
X133384952Y-83129523D01*
X133432571Y-83081904D01*
X133527809Y-83034285D01*
X133765904Y-83034285D01*
X133861142Y-83081904D01*
X133908761Y-83129523D01*
X133956380Y-83224761D01*
X133956380Y-83462857D01*
X133908761Y-83558095D01*
X133861142Y-83605714D01*
D11*
%TO.C,C11*%
X118694971Y-77791428D02*
X118718780Y-77815238D01*
X118742590Y-77886666D01*
X118742590Y-77934285D01*
X118718780Y-78005714D01*
X118671161Y-78053333D01*
X118623542Y-78077142D01*
X118528304Y-78100952D01*
X118456876Y-78100952D01*
X118361638Y-78077142D01*
X118314019Y-78053333D01*
X118266400Y-78005714D01*
X118242590Y-77934285D01*
X118242590Y-77886666D01*
X118266400Y-77815238D01*
X118290209Y-77791428D01*
X118742590Y-77315238D02*
X118742590Y-77600952D01*
X118742590Y-77458095D02*
X118242590Y-77458095D01*
X118314019Y-77505714D01*
X118361638Y-77553333D01*
X118385447Y-77600952D01*
X118742590Y-76839047D02*
X118742590Y-77124761D01*
X118742590Y-76981904D02*
X118242590Y-76981904D01*
X118314019Y-77029523D01*
X118361638Y-77077142D01*
X118385447Y-77124761D01*
D10*
%TO.C,C5*%
X127153942Y-82615066D02*
X127201561Y-82662685D01*
X127249180Y-82805542D01*
X127249180Y-82900780D01*
X127201561Y-83043638D01*
X127106323Y-83138876D01*
X127011085Y-83186495D01*
X126820609Y-83234114D01*
X126677752Y-83234114D01*
X126487276Y-83186495D01*
X126392038Y-83138876D01*
X126296800Y-83043638D01*
X126249180Y-82900780D01*
X126249180Y-82805542D01*
X126296800Y-82662685D01*
X126344419Y-82615066D01*
X126249180Y-81710304D02*
X126249180Y-82186495D01*
X126725371Y-82234114D01*
X126677752Y-82186495D01*
X126630133Y-82091257D01*
X126630133Y-81853161D01*
X126677752Y-81757923D01*
X126725371Y-81710304D01*
X126820609Y-81662685D01*
X127058704Y-81662685D01*
X127153942Y-81710304D01*
X127201561Y-81757923D01*
X127249180Y-81853161D01*
X127249180Y-82091257D01*
X127201561Y-82186495D01*
X127153942Y-82234114D01*
D11*
%TO.C,C13*%
X125510171Y-76429371D02*
X125486361Y-76453180D01*
X125414933Y-76476990D01*
X125367314Y-76476990D01*
X125295885Y-76453180D01*
X125248266Y-76405561D01*
X125224457Y-76357942D01*
X125200647Y-76262704D01*
X125200647Y-76191276D01*
X125224457Y-76096038D01*
X125248266Y-76048419D01*
X125295885Y-76000800D01*
X125367314Y-75976990D01*
X125414933Y-75976990D01*
X125486361Y-76000800D01*
X125510171Y-76024609D01*
X125986361Y-76476990D02*
X125700647Y-76476990D01*
X125843504Y-76476990D02*
X125843504Y-75976990D01*
X125795885Y-76048419D01*
X125748266Y-76096038D01*
X125700647Y-76119847D01*
X126153028Y-75976990D02*
X126462552Y-75976990D01*
X126295885Y-76167466D01*
X126367314Y-76167466D01*
X126414933Y-76191276D01*
X126438742Y-76215085D01*
X126462552Y-76262704D01*
X126462552Y-76381752D01*
X126438742Y-76429371D01*
X126414933Y-76453180D01*
X126367314Y-76476990D01*
X126224457Y-76476990D01*
X126176838Y-76453180D01*
X126153028Y-76429371D01*
D10*
%TO.C,Y1*%
X128936809Y-81346190D02*
X128936809Y-81822380D01*
X128603476Y-80822380D02*
X128936809Y-81346190D01*
X129270142Y-80822380D01*
X130127285Y-81822380D02*
X129555857Y-81822380D01*
X129841571Y-81822380D02*
X129841571Y-80822380D01*
X129746333Y-80965238D01*
X129651095Y-81060476D01*
X129555857Y-81108095D01*
D11*
%TO.C,C3*%
X127475466Y-78105771D02*
X127451657Y-78129580D01*
X127380228Y-78153390D01*
X127332609Y-78153390D01*
X127261180Y-78129580D01*
X127213561Y-78081961D01*
X127189752Y-78034342D01*
X127165942Y-77939104D01*
X127165942Y-77867676D01*
X127189752Y-77772438D01*
X127213561Y-77724819D01*
X127261180Y-77677200D01*
X127332609Y-77653390D01*
X127380228Y-77653390D01*
X127451657Y-77677200D01*
X127475466Y-77701009D01*
X127642133Y-77653390D02*
X127951657Y-77653390D01*
X127784990Y-77843866D01*
X127856419Y-77843866D01*
X127904038Y-77867676D01*
X127927847Y-77891485D01*
X127951657Y-77939104D01*
X127951657Y-78058152D01*
X127927847Y-78105771D01*
X127904038Y-78129580D01*
X127856419Y-78153390D01*
X127713561Y-78153390D01*
X127665942Y-78129580D01*
X127642133Y-78105771D01*
%TO.C,C1*%
X127881866Y-76530971D02*
X127858057Y-76554780D01*
X127786628Y-76578590D01*
X127739009Y-76578590D01*
X127667580Y-76554780D01*
X127619961Y-76507161D01*
X127596152Y-76459542D01*
X127572342Y-76364304D01*
X127572342Y-76292876D01*
X127596152Y-76197638D01*
X127619961Y-76150019D01*
X127667580Y-76102400D01*
X127739009Y-76078590D01*
X127786628Y-76078590D01*
X127858057Y-76102400D01*
X127881866Y-76126209D01*
X128358057Y-76578590D02*
X128072342Y-76578590D01*
X128215200Y-76578590D02*
X128215200Y-76078590D01*
X128167580Y-76150019D01*
X128119961Y-76197638D01*
X128072342Y-76221447D01*
D10*
%TO.C,R2*%
X123226533Y-75687180D02*
X122893200Y-75210990D01*
X122655104Y-75687180D02*
X122655104Y-74687180D01*
X123036057Y-74687180D01*
X123131295Y-74734800D01*
X123178914Y-74782419D01*
X123226533Y-74877657D01*
X123226533Y-75020514D01*
X123178914Y-75115752D01*
X123131295Y-75163371D01*
X123036057Y-75210990D01*
X122655104Y-75210990D01*
X123607485Y-74782419D02*
X123655104Y-74734800D01*
X123750342Y-74687180D01*
X123988438Y-74687180D01*
X124083676Y-74734800D01*
X124131295Y-74782419D01*
X124178914Y-74877657D01*
X124178914Y-74972895D01*
X124131295Y-75115752D01*
X123559866Y-75687180D01*
X124178914Y-75687180D01*
D11*
%TO.C,C2*%
X129812266Y-72365371D02*
X129788457Y-72389180D01*
X129717028Y-72412990D01*
X129669409Y-72412990D01*
X129597980Y-72389180D01*
X129550361Y-72341561D01*
X129526552Y-72293942D01*
X129502742Y-72198704D01*
X129502742Y-72127276D01*
X129526552Y-72032038D01*
X129550361Y-71984419D01*
X129597980Y-71936800D01*
X129669409Y-71912990D01*
X129717028Y-71912990D01*
X129788457Y-71936800D01*
X129812266Y-71960609D01*
X130002742Y-71960609D02*
X130026552Y-71936800D01*
X130074171Y-71912990D01*
X130193219Y-71912990D01*
X130240838Y-71936800D01*
X130264647Y-71960609D01*
X130288457Y-72008228D01*
X130288457Y-72055847D01*
X130264647Y-72127276D01*
X129978933Y-72412990D01*
X130288457Y-72412990D01*
%TO.C,R4*%
X128389866Y-74851390D02*
X128223200Y-74613295D01*
X128104152Y-74851390D02*
X128104152Y-74351390D01*
X128294628Y-74351390D01*
X128342247Y-74375200D01*
X128366057Y-74399009D01*
X128389866Y-74446628D01*
X128389866Y-74518057D01*
X128366057Y-74565676D01*
X128342247Y-74589485D01*
X128294628Y-74613295D01*
X128104152Y-74613295D01*
X128818438Y-74518057D02*
X128818438Y-74851390D01*
X128699390Y-74327580D02*
X128580342Y-74684723D01*
X128889866Y-74684723D01*
D12*
%TO.C,U2*%
X119195000Y-75877000D02*
X119195000Y-75617000D01*
X119195000Y-70427000D02*
X119195000Y-70687000D01*
X121920000Y-75877000D02*
X124645000Y-75877000D01*
X121920000Y-75877000D02*
X119195000Y-75877000D01*
X119195000Y-70687000D02*
X117520000Y-70687000D01*
X124645000Y-70427000D02*
X124645000Y-70687000D01*
X121920000Y-70427000D02*
X119195000Y-70427000D01*
X121920000Y-70427000D02*
X124645000Y-70427000D01*
X124645000Y-75877000D02*
X124645000Y-75617000D01*
%TO.C,C14*%
X127880164Y-71226000D02*
X128095836Y-71226000D01*
X127880164Y-70506000D02*
X128095836Y-70506000D01*
%TO.C,C9*%
X117073000Y-81133836D02*
X117073000Y-80918164D01*
X116353000Y-81133836D02*
X116353000Y-80918164D01*
%TO.C,R3*%
X127128000Y-72490359D02*
X127128000Y-72797641D01*
X127888000Y-72490359D02*
X127888000Y-72797641D01*
%TO.C,R5*%
X132714000Y-83666359D02*
X132714000Y-83973641D01*
X131954000Y-83666359D02*
X131954000Y-83973641D01*
%TO.C,R1*%
X122503200Y-77166441D02*
X122503200Y-76859159D01*
X121743200Y-77166441D02*
X121743200Y-76859159D01*
%TO.C,C11*%
X119740000Y-77577836D02*
X119740000Y-77362164D01*
X119020000Y-77577836D02*
X119020000Y-77362164D01*
%TO.C,C5*%
X127400164Y-81386000D02*
X127615836Y-81386000D01*
X127400164Y-80666000D02*
X127615836Y-80666000D01*
%TO.C,C15*%
X131143836Y-86974000D02*
X130928164Y-86974000D01*
X131143836Y-86254000D02*
X130928164Y-86254000D01*
%TO.C,U1*%
X133172000Y-74968000D02*
X133172000Y-73368000D01*
X129972000Y-73368000D02*
X129972000Y-75668000D01*
%TO.C,C13*%
X126090000Y-77577836D02*
X126090000Y-77362164D01*
X125370000Y-77577836D02*
X125370000Y-77362164D01*
%TO.C,Y1*%
X127413000Y-82170000D02*
X127413000Y-85470000D01*
X127413000Y-85470000D02*
X131413000Y-85470000D01*
%TO.C,J1*%
X114510000Y-79244000D02*
X116630000Y-79244000D01*
X114510000Y-73184000D02*
X116630000Y-73184000D01*
X114510000Y-73184000D02*
X114510000Y-79244000D01*
X114510000Y-71124000D02*
X115570000Y-71124000D01*
X116630000Y-73184000D02*
X116630000Y-79244000D01*
X114510000Y-72184000D02*
X114510000Y-71124000D01*
%TO.C,C7*%
X117073000Y-86213836D02*
X117073000Y-85998164D01*
X116353000Y-86213836D02*
X116353000Y-85998164D01*
%TO.C,C3*%
X127400164Y-78380000D02*
X127615836Y-78380000D01*
X127400164Y-79100000D02*
X127615836Y-79100000D01*
%TO.C,C16*%
X132695836Y-82529000D02*
X132480164Y-82529000D01*
X132695836Y-81809000D02*
X132480164Y-81809000D01*
%TO.C,C1*%
X128418000Y-75838164D02*
X128418000Y-76053836D01*
X129138000Y-75838164D02*
X129138000Y-76053836D01*
%TO.C,R2*%
X123722400Y-77166441D02*
X123722400Y-76859159D01*
X122962400Y-77166441D02*
X122962400Y-76859159D01*
%TO.C,U3*%
X124880000Y-79448000D02*
X125530000Y-79448000D01*
X124880000Y-86668000D02*
X125530000Y-86668000D01*
X125530000Y-79448000D02*
X125530000Y-80098000D01*
X125530000Y-86668000D02*
X125530000Y-86018000D01*
X118310000Y-86668000D02*
X118310000Y-86018000D01*
X118960000Y-86668000D02*
X118310000Y-86668000D01*
X118960000Y-79448000D02*
X118310000Y-79448000D01*
%TO.C,U5*%
X132418000Y-77640000D02*
X132418000Y-79840000D01*
X130218000Y-77640000D02*
X130218000Y-80640000D01*
%TO.C,C2*%
X128545000Y-72751836D02*
X128545000Y-72536164D01*
X129265000Y-72751836D02*
X129265000Y-72536164D01*
%TO.C,C6*%
X120290000Y-77577836D02*
X120290000Y-77362164D01*
X121010000Y-77577836D02*
X121010000Y-77362164D01*
%TO.C,C4*%
X127400164Y-80116000D02*
X127615836Y-80116000D01*
X127400164Y-79396000D02*
X127615836Y-79396000D01*
%TO.C,C10*%
X127118164Y-86254000D02*
X127333836Y-86254000D01*
X127118164Y-86974000D02*
X127333836Y-86974000D01*
%TO.C,C8*%
X116353000Y-83673836D02*
X116353000Y-83458164D01*
X117073000Y-83673836D02*
X117073000Y-83458164D01*
%TO.C,J2*%
X134068000Y-73183800D02*
X134068000Y-81243800D01*
X134068000Y-71123800D02*
X135128000Y-71123800D01*
X134068000Y-81243800D02*
X136188000Y-81243800D01*
X134068000Y-72183800D02*
X134068000Y-71123800D01*
X136188000Y-73183800D02*
X136188000Y-81243800D01*
X134068000Y-73183800D02*
X136188000Y-73183800D01*
%TO.C,R4*%
X127128000Y-75083641D02*
X127128000Y-74776359D01*
X127888000Y-75083641D02*
X127888000Y-74776359D01*
%TO.C,C12*%
X124820000Y-77577836D02*
X124820000Y-77362164D01*
X124100000Y-77577836D02*
X124100000Y-77362164D01*
%TD*%
M02*
