G04 #@! TF.GenerationSoftware,KiCad,Pcbnew,(6.0.6-0)*
G04 #@! TF.CreationDate,2022-07-24T09:40:11-04:00*
G04 #@! TF.ProjectId,hitclips_2040_adapter_v5,68697463-6c69-4707-935f-323034305f61,rev?*
G04 #@! TF.SameCoordinates,Original*
G04 #@! TF.FileFunction,Copper,L1,Top*
G04 #@! TF.FilePolarity,Positive*
%FSLAX46Y46*%
G04 Gerber Fmt 4.6, Leading zero omitted, Abs format (unit mm)*
G04 Created by KiCad (PCBNEW (6.0.6-0)) date 2022-07-24 09:40:11*
%MOMM*%
%LPD*%
G01*
G04 APERTURE LIST*
G04 #@! TA.AperFunction,SMDPad,CuDef*
%ADD10R,2.000000X4.800000*%
G04 #@! TD*
G04 #@! TA.AperFunction,SMDPad,CuDef*
%ADD11R,2.000000X4.000000*%
G04 #@! TD*
G04 #@! TA.AperFunction,ComponentPad*
%ADD12R,1.800000X2.200000*%
G04 #@! TD*
G04 #@! TA.AperFunction,ViaPad*
%ADD13C,0.800000*%
G04 #@! TD*
G04 #@! TA.AperFunction,Conductor*
%ADD14C,0.500000*%
G04 #@! TD*
G04 #@! TA.AperFunction,Conductor*
%ADD15C,0.200000*%
G04 #@! TD*
G04 APERTURE END LIST*
D10*
X134943200Y-90432000D03*
X137423200Y-90432000D03*
X139903200Y-90432000D03*
D11*
X139903200Y-96232000D03*
X137423200Y-96232000D03*
X134943200Y-96232000D03*
D12*
X131875600Y-85783200D03*
X134415600Y-85783200D03*
X136955600Y-85783200D03*
X139495600Y-85783200D03*
X142035600Y-85783200D03*
X144575600Y-85783200D03*
D13*
X131875600Y-89356000D03*
X136144000Y-93522800D03*
X142035600Y-89968000D03*
X132232400Y-92760800D03*
X143611600Y-92151200D03*
X132892800Y-97282000D03*
D14*
X134943200Y-90432000D02*
X132951600Y-90432000D01*
X132951600Y-90432000D02*
X131875600Y-89356000D01*
X131875600Y-89356000D02*
X131875600Y-86000420D01*
X137423200Y-92243600D02*
X136144000Y-93522800D01*
X137423200Y-90432000D02*
X137423200Y-92243600D01*
X142035600Y-89968000D02*
X142035600Y-86000420D01*
X137423200Y-88655200D02*
X136100711Y-87332711D01*
X135747891Y-87332711D02*
X134415600Y-86000420D01*
X137423200Y-90932000D02*
X137423200Y-88655200D01*
X136100711Y-87332711D02*
X135747891Y-87332711D01*
X139903200Y-90932000D02*
X139903200Y-88948020D01*
X138691511Y-87332711D02*
X138287891Y-87332711D01*
X138287891Y-87332711D02*
X136955600Y-86000420D01*
X139903200Y-88544400D02*
X138691511Y-87332711D01*
X139903200Y-88948020D02*
X139903200Y-88544400D01*
X143611600Y-93539600D02*
X143611600Y-92151200D01*
X139903200Y-97248000D02*
X143611600Y-93539600D01*
X137423200Y-97248000D02*
X137423200Y-96028978D01*
X141211422Y-93522800D02*
X142035600Y-92698622D01*
X137423200Y-96232000D02*
X137423200Y-94812978D01*
X138713378Y-93522800D02*
X141211422Y-93522800D01*
X137423200Y-94812978D02*
X138713378Y-93522800D01*
X142035600Y-92698622D02*
X142035600Y-89968000D01*
D15*
X137423200Y-97248000D02*
X137423200Y-96328978D01*
D14*
X132926800Y-97248000D02*
X132892800Y-97282000D01*
X134943200Y-97248000D02*
X132926800Y-97248000D01*
G04 #@! TA.AperFunction,Conductor*
G36*
X143365923Y-87288248D02*
G01*
X143381156Y-87298037D01*
X143428895Y-87333815D01*
X143565284Y-87384945D01*
X143627466Y-87391700D01*
X145059900Y-87391700D01*
X145128021Y-87411702D01*
X145174514Y-87465358D01*
X145185900Y-87517700D01*
X145185900Y-98365500D01*
X145165898Y-98433621D01*
X145112242Y-98480114D01*
X145059900Y-98491500D01*
X141527412Y-98491500D01*
X141459291Y-98471498D01*
X141412798Y-98417842D01*
X141402694Y-98347568D01*
X141404830Y-98336351D01*
X141405305Y-98334352D01*
X141410831Y-98283486D01*
X141411200Y-98276672D01*
X141411200Y-96504115D01*
X141406725Y-96488876D01*
X141405335Y-96487671D01*
X141397652Y-96486000D01*
X139775200Y-96486000D01*
X139707079Y-96465998D01*
X139660586Y-96412342D01*
X139649200Y-96360000D01*
X139649200Y-96104000D01*
X139669202Y-96035879D01*
X139722858Y-95989386D01*
X139775200Y-95978000D01*
X141393084Y-95978000D01*
X141408323Y-95973525D01*
X141409528Y-95972135D01*
X141411199Y-95964452D01*
X141411199Y-94347046D01*
X141431201Y-94278925D01*
X141484857Y-94232432D01*
X141498366Y-94227179D01*
X141522363Y-94219405D01*
X141522362Y-94219405D01*
X141529321Y-94217151D01*
X141535576Y-94213355D01*
X141541050Y-94210849D01*
X141546480Y-94208130D01*
X141553359Y-94205633D01*
X141614398Y-94165614D01*
X141618102Y-94163277D01*
X141680529Y-94125395D01*
X141688906Y-94117997D01*
X141688930Y-94118024D01*
X141691922Y-94115371D01*
X141695155Y-94112668D01*
X141701274Y-94108656D01*
X141754550Y-94052417D01*
X141756928Y-94049975D01*
X142524511Y-93282392D01*
X142538923Y-93270006D01*
X142550518Y-93261473D01*
X142550523Y-93261468D01*
X142556418Y-93257130D01*
X142561157Y-93251552D01*
X142561160Y-93251549D01*
X142590635Y-93216854D01*
X142597565Y-93209338D01*
X142603261Y-93203642D01*
X142605524Y-93200781D01*
X142605529Y-93200776D01*
X142620893Y-93181356D01*
X142623682Y-93177955D01*
X142625343Y-93176000D01*
X142670933Y-93122337D01*
X142674259Y-93115824D01*
X142677620Y-93110785D01*
X142680796Y-93105643D01*
X142685334Y-93099906D01*
X142716255Y-93033747D01*
X142718161Y-93029847D01*
X142751369Y-92964814D01*
X142753108Y-92957705D01*
X142755204Y-92952071D01*
X142757123Y-92946301D01*
X142760222Y-92939672D01*
X142775091Y-92868187D01*
X142776061Y-92863904D01*
X142792073Y-92798466D01*
X142793408Y-92793012D01*
X142794100Y-92781858D01*
X142794135Y-92781860D01*
X142794375Y-92777888D01*
X142794752Y-92773667D01*
X142796241Y-92766507D01*
X142794146Y-92689080D01*
X142794100Y-92685672D01*
X142794100Y-90504999D01*
X142810981Y-90441999D01*
X142866823Y-90345279D01*
X142866824Y-90345278D01*
X142870127Y-90339556D01*
X142929142Y-90157928D01*
X142930748Y-90142653D01*
X142948414Y-89974565D01*
X142949104Y-89968000D01*
X142929142Y-89778072D01*
X142870127Y-89596444D01*
X142810981Y-89494000D01*
X142794100Y-89431001D01*
X142794100Y-87517700D01*
X142814102Y-87449579D01*
X142867758Y-87403086D01*
X142920100Y-87391700D01*
X142983734Y-87391700D01*
X143045916Y-87384945D01*
X143182305Y-87333815D01*
X143230037Y-87298042D01*
X143296541Y-87273195D01*
X143365923Y-87288248D01*
G37*
G04 #@! TD.AperFunction*
G04 #@! TA.AperFunction,Conductor*
G36*
X131366158Y-90108836D02*
G01*
X131418848Y-90147118D01*
X131424876Y-90149802D01*
X131424878Y-90149803D01*
X131457228Y-90164206D01*
X131593312Y-90224794D01*
X131599767Y-90226166D01*
X131599776Y-90226169D01*
X131656372Y-90238199D01*
X131719269Y-90272350D01*
X132367830Y-90920911D01*
X132380216Y-90935323D01*
X132388749Y-90946918D01*
X132388754Y-90946923D01*
X132393092Y-90952818D01*
X132398670Y-90957557D01*
X132398673Y-90957560D01*
X132433368Y-90987035D01*
X132440884Y-90993965D01*
X132446580Y-90999661D01*
X132449441Y-91001924D01*
X132449446Y-91001929D01*
X132468866Y-91017293D01*
X132472267Y-91020082D01*
X132527885Y-91067333D01*
X132534398Y-91070659D01*
X132539437Y-91074020D01*
X132544579Y-91077196D01*
X132550316Y-91081734D01*
X132616475Y-91112655D01*
X132620369Y-91114558D01*
X132685408Y-91147769D01*
X132692517Y-91149508D01*
X132698151Y-91151604D01*
X132703921Y-91153523D01*
X132710550Y-91156622D01*
X132717713Y-91158112D01*
X132717716Y-91158113D01*
X132768430Y-91168661D01*
X132782035Y-91171491D01*
X132786301Y-91172457D01*
X132857210Y-91189808D01*
X132862812Y-91190156D01*
X132862815Y-91190156D01*
X132868364Y-91190500D01*
X132868362Y-91190535D01*
X132872334Y-91190775D01*
X132876555Y-91191152D01*
X132883715Y-91192641D01*
X132961142Y-91190546D01*
X132964550Y-91190500D01*
X133308700Y-91190500D01*
X133376821Y-91210502D01*
X133423314Y-91264158D01*
X133434700Y-91316500D01*
X133434700Y-92880134D01*
X133441455Y-92942316D01*
X133492585Y-93078705D01*
X133579939Y-93195261D01*
X133696495Y-93282615D01*
X133832884Y-93333745D01*
X133895066Y-93340500D01*
X135109719Y-93340500D01*
X135177840Y-93360502D01*
X135224333Y-93414158D01*
X135235029Y-93479670D01*
X135230496Y-93522800D01*
X135231186Y-93529365D01*
X135236963Y-93584330D01*
X135224191Y-93654168D01*
X135175689Y-93706015D01*
X135111653Y-93723500D01*
X133895066Y-93723500D01*
X133832884Y-93730255D01*
X133696495Y-93781385D01*
X133579939Y-93868739D01*
X133492585Y-93985295D01*
X133441455Y-94121684D01*
X133434700Y-94183866D01*
X133434700Y-96334769D01*
X133414698Y-96402890D01*
X133361042Y-96449383D01*
X133290768Y-96459487D01*
X133257452Y-96449876D01*
X133181123Y-96415892D01*
X133181115Y-96415889D01*
X133175088Y-96413206D01*
X133081688Y-96393353D01*
X132994744Y-96374872D01*
X132994739Y-96374872D01*
X132988287Y-96373500D01*
X132797313Y-96373500D01*
X132790861Y-96374872D01*
X132790856Y-96374872D01*
X132703912Y-96393353D01*
X132610512Y-96413206D01*
X132604482Y-96415891D01*
X132604481Y-96415891D01*
X132442078Y-96488197D01*
X132442076Y-96488198D01*
X132436048Y-96490882D01*
X132281547Y-96603134D01*
X132153760Y-96745056D01*
X132058273Y-96910444D01*
X131999258Y-97092072D01*
X131979296Y-97282000D01*
X131999258Y-97471928D01*
X132058273Y-97653556D01*
X132153760Y-97818944D01*
X132281547Y-97960866D01*
X132436048Y-98073118D01*
X132442076Y-98075802D01*
X132442078Y-98075803D01*
X132506960Y-98104690D01*
X132610512Y-98150794D01*
X132703913Y-98170647D01*
X132790856Y-98189128D01*
X132790861Y-98189128D01*
X132797313Y-98190500D01*
X132988287Y-98190500D01*
X132994739Y-98189128D01*
X132994744Y-98189128D01*
X133081687Y-98170647D01*
X133175088Y-98150794D01*
X133181115Y-98148111D01*
X133181123Y-98148108D01*
X133257452Y-98114124D01*
X133327819Y-98104690D01*
X133392116Y-98134797D01*
X133429929Y-98194886D01*
X133434700Y-98229231D01*
X133434700Y-98280134D01*
X133440972Y-98337868D01*
X133441455Y-98342316D01*
X133440736Y-98342394D01*
X133437350Y-98407252D01*
X133395905Y-98464896D01*
X133329875Y-98490983D01*
X133318469Y-98491500D01*
X131292100Y-98491500D01*
X131223979Y-98471498D01*
X131177486Y-98417842D01*
X131166100Y-98365500D01*
X131166100Y-90210774D01*
X131186102Y-90142653D01*
X131239758Y-90096160D01*
X131310032Y-90086056D01*
X131366158Y-90108836D01*
G37*
G04 #@! TD.AperFunction*
M02*
